<?xml version="1.0" encoding="UTF-8"?>
<svg xmlns="http://www.w3.org/2000/svg" xmlns:xlink="http://www.w3.org/1999/xlink" width="288pt" height="288pt" viewBox="0 0 288 288" version="1.1">
<defs>
<clipPath id="clip1">
  <path d="M 8.21875 235 L 282.519531 235 L 282.519531 236 L 8.21875 236 Z M 8.21875 235 "/>
</clipPath>
<clipPath id="clip2">
  <path d="M 8.21875 171 L 282.519531 171 L 282.519531 172 L 8.21875 172 Z M 8.21875 171 "/>
</clipPath>
<clipPath id="clip3">
  <path d="M 8.21875 107 L 282.519531 107 L 282.519531 108 L 8.21875 108 Z M 8.21875 107 "/>
</clipPath>
<clipPath id="clip4">
  <path d="M 8.21875 43 L 282.519531 43 L 282.519531 44 L 8.21875 44 Z M 8.21875 43 "/>
</clipPath>
<clipPath id="clip5">
  <path d="M 10 5.480469 L 11 5.480469 L 11 279.78125 L 10 279.78125 Z M 10 5.480469 "/>
</clipPath>
<clipPath id="clip6">
  <path d="M 92 5.480469 L 93 5.480469 L 93 279.78125 L 92 279.78125 Z M 92 5.480469 "/>
</clipPath>
<clipPath id="clip7">
  <path d="M 174 5.480469 L 175 5.480469 L 175 279.78125 L 174 279.78125 Z M 174 5.480469 "/>
</clipPath>
<clipPath id="clip8">
  <path d="M 256 5.480469 L 257 5.480469 L 257 279.78125 L 256 279.78125 Z M 256 5.480469 "/>
</clipPath>
<clipPath id="clip9">
  <path d="M 8.21875 266 L 282.519531 266 L 282.519531 268 L 8.21875 268 Z M 8.21875 266 "/>
</clipPath>
<clipPath id="clip10">
  <path d="M 8.21875 202 L 282.519531 202 L 282.519531 204 L 8.21875 204 Z M 8.21875 202 "/>
</clipPath>
<clipPath id="clip11">
  <path d="M 8.21875 138 L 282.519531 138 L 282.519531 140 L 8.21875 140 Z M 8.21875 138 "/>
</clipPath>
<clipPath id="clip12">
  <path d="M 8.21875 74 L 282.519531 74 L 282.519531 76 L 8.21875 76 Z M 8.21875 74 "/>
</clipPath>
<clipPath id="clip13">
  <path d="M 8.21875 10 L 282.519531 10 L 282.519531 13 L 8.21875 13 Z M 8.21875 10 "/>
</clipPath>
<clipPath id="clip14">
  <path d="M 51 5.480469 L 53 5.480469 L 53 279.78125 L 51 279.78125 Z M 51 5.480469 "/>
</clipPath>
<clipPath id="clip15">
  <path d="M 133 5.480469 L 135 5.480469 L 135 279.78125 L 133 279.78125 Z M 133 5.480469 "/>
</clipPath>
<clipPath id="clip16">
  <path d="M 214 5.480469 L 217 5.480469 L 217 279.78125 L 214 279.78125 Z M 214 5.480469 "/>
</clipPath>
</defs>
<g id="surface4509">
<rect x="0" y="0" width="288" height="288" style="fill:rgb(100%,100%,100%);fill-opacity:1;stroke:none;"/>
<g clip-path="url(#clip1)" clip-rule="nonzero">
<path style="fill:none;stroke-width:0.533489;stroke-linecap:butt;stroke-linejoin:round;stroke:rgb(92.156863%,92.156863%,92.156863%);stroke-opacity:1;stroke-miterlimit:10;" d="M 8.21875 235.367188 L 282.519531 235.367188 "/>
</g>
<g clip-path="url(#clip2)" clip-rule="nonzero">
<path style="fill:none;stroke-width:0.533489;stroke-linecap:butt;stroke-linejoin:round;stroke:rgb(92.156863%,92.156863%,92.156863%);stroke-opacity:1;stroke-miterlimit:10;" d="M 8.21875 171.402344 L 282.519531 171.402344 "/>
</g>
<g clip-path="url(#clip3)" clip-rule="nonzero">
<path style="fill:none;stroke-width:0.533489;stroke-linecap:butt;stroke-linejoin:round;stroke:rgb(92.156863%,92.156863%,92.156863%);stroke-opacity:1;stroke-miterlimit:10;" d="M 8.21875 107.4375 L 282.519531 107.4375 "/>
</g>
<g clip-path="url(#clip4)" clip-rule="nonzero">
<path style="fill:none;stroke-width:0.533489;stroke-linecap:butt;stroke-linejoin:round;stroke:rgb(92.156863%,92.156863%,92.156863%);stroke-opacity:1;stroke-miterlimit:10;" d="M 8.21875 43.472656 L 282.519531 43.472656 "/>
</g>
<g clip-path="url(#clip5)" clip-rule="nonzero">
<path style="fill:none;stroke-width:0.533489;stroke-linecap:butt;stroke-linejoin:round;stroke:rgb(92.156863%,92.156863%,92.156863%);stroke-opacity:1;stroke-miterlimit:10;" d="M 10.65625 279.78125 L 10.65625 5.480469 "/>
</g>
<g clip-path="url(#clip6)" clip-rule="nonzero">
<path style="fill:none;stroke-width:0.533489;stroke-linecap:butt;stroke-linejoin:round;stroke:rgb(92.156863%,92.156863%,92.156863%);stroke-opacity:1;stroke-miterlimit:10;" d="M 92.597656 279.78125 L 92.597656 5.480469 "/>
</g>
<g clip-path="url(#clip7)" clip-rule="nonzero">
<path style="fill:none;stroke-width:0.533489;stroke-linecap:butt;stroke-linejoin:round;stroke:rgb(92.156863%,92.156863%,92.156863%);stroke-opacity:1;stroke-miterlimit:10;" d="M 174.539062 279.78125 L 174.539062 5.480469 "/>
</g>
<g clip-path="url(#clip8)" clip-rule="nonzero">
<path style="fill:none;stroke-width:0.533489;stroke-linecap:butt;stroke-linejoin:round;stroke:rgb(92.156863%,92.156863%,92.156863%);stroke-opacity:1;stroke-miterlimit:10;" d="M 256.484375 279.78125 L 256.484375 5.480469 "/>
</g>
<g clip-path="url(#clip9)" clip-rule="nonzero">
<path style="fill:none;stroke-width:1.066978;stroke-linecap:butt;stroke-linejoin:round;stroke:rgb(92.156863%,92.156863%,92.156863%);stroke-opacity:1;stroke-miterlimit:10;" d="M 8.21875 267.351562 L 282.519531 267.351562 "/>
</g>
<g clip-path="url(#clip10)" clip-rule="nonzero">
<path style="fill:none;stroke-width:1.066978;stroke-linecap:butt;stroke-linejoin:round;stroke:rgb(92.156863%,92.156863%,92.156863%);stroke-opacity:1;stroke-miterlimit:10;" d="M 8.21875 203.386719 L 282.519531 203.386719 "/>
</g>
<g clip-path="url(#clip11)" clip-rule="nonzero">
<path style="fill:none;stroke-width:1.066978;stroke-linecap:butt;stroke-linejoin:round;stroke:rgb(92.156863%,92.156863%,92.156863%);stroke-opacity:1;stroke-miterlimit:10;" d="M 8.21875 139.421875 L 282.519531 139.421875 "/>
</g>
<g clip-path="url(#clip12)" clip-rule="nonzero">
<path style="fill:none;stroke-width:1.066978;stroke-linecap:butt;stroke-linejoin:round;stroke:rgb(92.156863%,92.156863%,92.156863%);stroke-opacity:1;stroke-miterlimit:10;" d="M 8.21875 75.453125 L 282.519531 75.453125 "/>
</g>
<g clip-path="url(#clip13)" clip-rule="nonzero">
<path style="fill:none;stroke-width:1.066978;stroke-linecap:butt;stroke-linejoin:round;stroke:rgb(92.156863%,92.156863%,92.156863%);stroke-opacity:1;stroke-miterlimit:10;" d="M 8.21875 11.488281 L 282.519531 11.488281 "/>
</g>
<g clip-path="url(#clip14)" clip-rule="nonzero">
<path style="fill:none;stroke-width:1.066978;stroke-linecap:butt;stroke-linejoin:round;stroke:rgb(92.156863%,92.156863%,92.156863%);stroke-opacity:1;stroke-miterlimit:10;" d="M 51.625 279.78125 L 51.625 5.480469 "/>
</g>
<g clip-path="url(#clip15)" clip-rule="nonzero">
<path style="fill:none;stroke-width:1.066978;stroke-linecap:butt;stroke-linejoin:round;stroke:rgb(92.156863%,92.156863%,92.156863%);stroke-opacity:1;stroke-miterlimit:10;" d="M 133.570312 279.78125 L 133.570312 5.480469 "/>
</g>
<g clip-path="url(#clip16)" clip-rule="nonzero">
<path style="fill:none;stroke-width:1.066978;stroke-linecap:butt;stroke-linejoin:round;stroke:rgb(92.156863%,92.156863%,92.156863%);stroke-opacity:1;stroke-miterlimit:10;" d="M 215.511719 279.78125 L 215.511719 5.480469 "/>
</g>
<path style="fill-rule:nonzero;fill:rgb(0%,0%,0%);fill-opacity:1;stroke-width:0.708661;stroke-linecap:round;stroke-linejoin:round;stroke:rgb(0%,0%,0%);stroke-opacity:1;stroke-miterlimit:10;" d="M 77.609375 110.222656 C 77.609375 112.828125 73.699219 112.828125 73.699219 110.222656 C 73.699219 107.617188 77.609375 107.617188 77.609375 110.222656 "/>
<path style="fill-rule:nonzero;fill:rgb(0%,0%,0%);fill-opacity:1;stroke-width:0.708661;stroke-linecap:round;stroke-linejoin:round;stroke:rgb(0%,0%,0%);stroke-opacity:1;stroke-miterlimit:10;" d="M 146.738281 200.347656 C 146.738281 202.957031 142.828125 202.957031 142.828125 200.347656 C 142.828125 197.742188 146.738281 197.742188 146.738281 200.347656 "/>
<path style="fill-rule:nonzero;fill:rgb(0%,0%,0%);fill-opacity:1;stroke-width:0.708661;stroke-linecap:round;stroke-linejoin:round;stroke:rgb(0%,0%,0%);stroke-opacity:1;stroke-miterlimit:10;" d="M 181.148438 188.464844 C 181.148438 191.070312 177.242188 191.070312 177.242188 188.464844 C 177.242188 185.855469 181.148438 185.855469 181.148438 188.464844 "/>
<path style="fill-rule:nonzero;fill:rgb(0%,0%,0%);fill-opacity:1;stroke-width:0.708661;stroke-linecap:round;stroke-linejoin:round;stroke:rgb(0%,0%,0%);stroke-opacity:1;stroke-miterlimit:10;" d="M 202.027344 56.179688 C 202.027344 58.785156 198.117188 58.785156 198.117188 56.179688 C 198.117188 53.574219 202.027344 53.574219 202.027344 56.179688 "/>
<path style="fill-rule:nonzero;fill:rgb(0%,0%,0%);fill-opacity:1;stroke-width:0.708661;stroke-linecap:round;stroke-linejoin:round;stroke:rgb(0%,0%,0%);stroke-opacity:1;stroke-miterlimit:10;" d="M 83.46875 150.332031 C 83.46875 152.941406 79.558594 152.941406 79.558594 150.332031 C 79.558594 147.726562 83.46875 147.726562 83.46875 150.332031 "/>
<path style="fill-rule:nonzero;fill:rgb(0%,0%,0%);fill-opacity:1;stroke-width:0.708661;stroke-linecap:round;stroke-linejoin:round;stroke:rgb(0%,0%,0%);stroke-opacity:1;stroke-miterlimit:10;" d="M 193.441406 172.398438 C 193.441406 175.003906 189.535156 175.003906 189.535156 172.398438 C 189.535156 169.792969 193.441406 169.792969 193.441406 172.398438 "/>
<path style="fill-rule:nonzero;fill:rgb(0%,0%,0%);fill-opacity:1;stroke-width:0.708661;stroke-linecap:round;stroke-linejoin:round;stroke:rgb(0%,0%,0%);stroke-opacity:1;stroke-miterlimit:10;" d="M 146.207031 17.949219 C 146.207031 20.554688 142.296875 20.554688 142.296875 17.949219 C 142.296875 15.339844 146.207031 15.339844 146.207031 17.949219 "/>
<path style="fill-rule:nonzero;fill:rgb(0%,0%,0%);fill-opacity:1;stroke-width:0.708661;stroke-linecap:round;stroke-linejoin:round;stroke:rgb(0%,0%,0%);stroke-opacity:1;stroke-miterlimit:10;" d="M 179.820312 203.128906 C 179.820312 205.734375 175.914062 205.734375 175.914062 203.128906 C 175.914062 200.523438 179.820312 200.523438 179.820312 203.128906 "/>
<path style="fill-rule:nonzero;fill:rgb(0%,0%,0%);fill-opacity:1;stroke-width:0.708661;stroke-linecap:round;stroke-linejoin:round;stroke:rgb(0%,0%,0%);stroke-opacity:1;stroke-miterlimit:10;" d="M 194.457031 60.210938 C 194.457031 62.820312 190.550781 62.820312 190.550781 60.210938 C 190.550781 57.605469 194.457031 57.605469 194.457031 60.210938 "/>
<path style="fill-rule:nonzero;fill:rgb(0%,0%,0%);fill-opacity:1;stroke-width:0.708661;stroke-linecap:round;stroke-linejoin:round;stroke:rgb(0%,0%,0%);stroke-opacity:1;stroke-miterlimit:10;" d="M 192.464844 191.308594 C 192.464844 193.914062 188.554688 193.914062 188.554688 191.308594 C 188.554688 188.703125 192.464844 188.703125 192.464844 191.308594 "/>
<path style="fill-rule:nonzero;fill:rgb(0%,0%,0%);fill-opacity:1;stroke-width:0.708661;stroke-linecap:round;stroke-linejoin:round;stroke:rgb(0%,0%,0%);stroke-opacity:1;stroke-miterlimit:10;" d="M 22.640625 62.492188 C 22.640625 65.101562 18.734375 65.101562 18.734375 62.492188 C 18.734375 59.886719 22.640625 59.886719 22.640625 62.492188 "/>
<path style="fill-rule:nonzero;fill:rgb(0%,0%,0%);fill-opacity:1;stroke-width:0.708661;stroke-linecap:round;stroke-linejoin:round;stroke:rgb(0%,0%,0%);stroke-opacity:1;stroke-miterlimit:10;" d="M 206.949219 85.523438 C 206.949219 88.128906 203.039062 88.128906 203.039062 85.523438 C 203.039062 82.914062 206.949219 82.914062 206.949219 85.523438 "/>
<path style="fill-rule:nonzero;fill:rgb(0%,0%,0%);fill-opacity:1;stroke-width:0.708661;stroke-linecap:round;stroke-linejoin:round;stroke:rgb(0%,0%,0%);stroke-opacity:1;stroke-miterlimit:10;" d="M 201.871094 205.664062 C 201.871094 208.269531 197.964844 208.269531 197.964844 205.664062 C 197.964844 203.058594 201.871094 203.058594 201.871094 205.664062 "/>
<path style="fill-rule:nonzero;fill:rgb(0%,0%,0%);fill-opacity:1;stroke-width:0.708661;stroke-linecap:round;stroke-linejoin:round;stroke:rgb(0%,0%,0%);stroke-opacity:1;stroke-miterlimit:10;" d="M 184.484375 58.683594 C 184.484375 61.292969 180.574219 61.292969 180.574219 58.683594 C 180.574219 56.078125 184.484375 56.078125 184.484375 58.683594 "/>
<path style="fill-rule:nonzero;fill:rgb(0%,0%,0%);fill-opacity:1;stroke-width:0.708661;stroke-linecap:round;stroke-linejoin:round;stroke:rgb(0%,0%,0%);stroke-opacity:1;stroke-miterlimit:10;" d="M 175.554688 212.402344 C 175.554688 215.007812 171.644531 215.007812 171.644531 212.402344 C 171.644531 209.796875 175.554688 209.796875 175.554688 212.402344 "/>
<path style="fill-rule:nonzero;fill:rgb(0%,0%,0%);fill-opacity:1;stroke-width:0.708661;stroke-linecap:round;stroke-linejoin:round;stroke:rgb(0%,0%,0%);stroke-opacity:1;stroke-miterlimit:10;" d="M 192.128906 219.480469 C 192.128906 222.089844 188.21875 222.089844 188.21875 219.480469 C 188.21875 216.875 192.128906 216.875 192.128906 219.480469 "/>
<path style="fill-rule:nonzero;fill:rgb(0%,0%,0%);fill-opacity:1;stroke-width:0.708661;stroke-linecap:round;stroke-linejoin:round;stroke:rgb(0%,0%,0%);stroke-opacity:1;stroke-miterlimit:10;" d="M 104.617188 64.265625 C 104.617188 66.871094 100.707031 66.871094 100.707031 64.265625 C 100.707031 61.660156 104.617188 61.660156 104.617188 64.265625 "/>
<path style="fill-rule:nonzero;fill:rgb(0%,0%,0%);fill-opacity:1;stroke-width:0.708661;stroke-linecap:round;stroke-linejoin:round;stroke:rgb(0%,0%,0%);stroke-opacity:1;stroke-miterlimit:10;" d="M 216.617188 213.359375 C 216.617188 215.964844 212.707031 215.964844 212.707031 213.359375 C 212.707031 210.753906 216.617188 210.753906 216.617188 213.359375 "/>
<path style="fill-rule:nonzero;fill:rgb(0%,0%,0%);fill-opacity:1;stroke-width:0.708661;stroke-linecap:round;stroke-linejoin:round;stroke:rgb(0%,0%,0%);stroke-opacity:1;stroke-miterlimit:10;" d="M 206.875 216.152344 C 206.875 218.757812 202.964844 218.757812 202.964844 216.152344 C 202.964844 213.542969 206.875 213.542969 206.875 216.152344 "/>
<path style="fill-rule:nonzero;fill:rgb(0%,0%,0%);fill-opacity:1;stroke-width:0.708661;stroke-linecap:round;stroke-linejoin:round;stroke:rgb(0%,0%,0%);stroke-opacity:1;stroke-miterlimit:10;" d="M 221.292969 73.058594 C 221.292969 75.664062 217.382812 75.664062 217.382812 73.058594 C 217.382812 70.453125 221.292969 70.453125 221.292969 73.058594 "/>
<path style="fill-rule:nonzero;fill:rgb(0%,0%,0%);fill-opacity:1;stroke-width:0.708661;stroke-linecap:round;stroke-linejoin:round;stroke:rgb(0%,0%,0%);stroke-opacity:1;stroke-miterlimit:10;" d="M 186.734375 227.480469 C 186.734375 230.085938 182.824219 230.085938 182.824219 227.480469 C 182.824219 224.875 186.734375 224.875 186.734375 227.480469 "/>
<path style="fill-rule:nonzero;fill:rgb(0%,0%,0%);fill-opacity:1;stroke-width:0.708661;stroke-linecap:round;stroke-linejoin:round;stroke:rgb(0%,0%,0%);stroke-opacity:1;stroke-miterlimit:10;" d="M 138.3125 231.5625 C 138.3125 234.167969 134.402344 234.167969 134.402344 231.5625 C 134.402344 228.957031 138.3125 228.957031 138.3125 231.5625 "/>
<path style="fill-rule:nonzero;fill:rgb(0%,0%,0%);fill-opacity:1;stroke-width:0.708661;stroke-linecap:round;stroke-linejoin:round;stroke:rgb(0%,0%,0%);stroke-opacity:1;stroke-miterlimit:10;" d="M 79.882812 204.746094 C 79.882812 207.355469 75.972656 207.355469 75.972656 204.746094 C 75.972656 202.140625 79.882812 202.140625 79.882812 204.746094 "/>
<path style="fill-rule:nonzero;fill:rgb(0%,0%,0%);fill-opacity:1;stroke-width:0.708661;stroke-linecap:round;stroke-linejoin:round;stroke:rgb(0%,0%,0%);stroke-opacity:1;stroke-miterlimit:10;" d="M 101.785156 51.722656 C 101.785156 54.328125 97.875 54.328125 97.875 51.722656 C 97.875 49.117188 101.785156 49.117188 101.785156 51.722656 "/>
<path style="fill-rule:nonzero;fill:rgb(0%,0%,0%);fill-opacity:1;stroke-width:0.708661;stroke-linecap:round;stroke-linejoin:round;stroke:rgb(0%,0%,0%);stroke-opacity:1;stroke-miterlimit:10;" d="M 121.089844 242.371094 C 121.089844 244.976562 117.179688 244.976562 117.179688 242.371094 C 117.179688 239.765625 121.089844 239.765625 121.089844 242.371094 "/>
<path style="fill-rule:nonzero;fill:rgb(0%,0%,0%);fill-opacity:1;stroke-width:0.708661;stroke-linecap:round;stroke-linejoin:round;stroke:rgb(0%,0%,0%);stroke-opacity:1;stroke-miterlimit:10;" d="M 112.476562 221.4375 C 112.476562 224.042969 108.566406 224.042969 108.566406 221.4375 C 108.566406 218.828125 112.476562 218.828125 112.476562 221.4375 "/>
<path style="fill-rule:nonzero;fill:rgb(0%,0%,0%);fill-opacity:1;stroke-width:0.708661;stroke-linecap:round;stroke-linejoin:round;stroke:rgb(0%,0%,0%);stroke-opacity:1;stroke-miterlimit:10;" d="M 143.699219 226.28125 C 143.699219 228.890625 139.789062 228.890625 139.789062 226.28125 C 139.789062 223.675781 143.699219 223.675781 143.699219 226.28125 "/>
<path style="fill-rule:nonzero;fill:rgb(0%,0%,0%);fill-opacity:1;stroke-width:0.708661;stroke-linecap:round;stroke-linejoin:round;stroke:rgb(0%,0%,0%);stroke-opacity:1;stroke-miterlimit:10;" d="M 122.683594 208.21875 C 122.683594 210.828125 118.773438 210.828125 118.773438 208.21875 C 118.773438 205.613281 122.683594 205.613281 122.683594 208.21875 "/>
<path style="fill-rule:nonzero;fill:rgb(0%,0%,0%);fill-opacity:1;stroke-width:0.708661;stroke-linecap:round;stroke-linejoin:round;stroke:rgb(0%,0%,0%);stroke-opacity:1;stroke-miterlimit:10;" d="M 215 215.375 C 215 217.980469 211.089844 217.980469 211.089844 215.375 C 211.089844 212.769531 215 212.769531 215 215.375 "/>
<path style="fill-rule:nonzero;fill:rgb(0%,0%,0%);fill-opacity:1;stroke-width:0.708661;stroke-linecap:round;stroke-linejoin:round;stroke:rgb(0%,0%,0%);stroke-opacity:1;stroke-miterlimit:10;" d="M 183.273438 53.347656 C 183.273438 55.957031 179.363281 55.957031 179.363281 53.347656 C 179.363281 50.742188 183.273438 50.742188 183.273438 53.347656 "/>
<path style="fill-rule:nonzero;fill:rgb(0%,0%,0%);fill-opacity:1;stroke-width:0.708661;stroke-linecap:round;stroke-linejoin:round;stroke:rgb(0%,0%,0%);stroke-opacity:1;stroke-miterlimit:10;" d="M 214.257812 72.566406 C 214.257812 75.175781 210.351562 75.175781 210.351562 72.566406 C 210.351562 69.960938 214.257812 69.960938 214.257812 72.566406 "/>
<path style="fill-rule:nonzero;fill:rgb(0%,0%,0%);fill-opacity:1;stroke-width:0.708661;stroke-linecap:round;stroke-linejoin:round;stroke:rgb(0%,0%,0%);stroke-opacity:1;stroke-miterlimit:10;" d="M 176.136719 252.964844 C 176.136719 255.570312 172.230469 255.570312 172.230469 252.964844 C 172.230469 250.359375 176.136719 250.359375 176.136719 252.964844 "/>
<path style="fill-rule:nonzero;fill:rgb(0%,0%,0%);fill-opacity:1;stroke-width:0.708661;stroke-linecap:round;stroke-linejoin:round;stroke:rgb(0%,0%,0%);stroke-opacity:1;stroke-miterlimit:10;" d="M 214.808594 93.023438 C 214.808594 95.628906 210.898438 95.628906 210.898438 93.023438 C 210.898438 90.417969 214.808594 90.417969 214.808594 93.023438 "/>
<path style="fill-rule:nonzero;fill:rgb(0%,0%,0%);fill-opacity:1;stroke-width:0.708661;stroke-linecap:round;stroke-linejoin:round;stroke:rgb(0%,0%,0%);stroke-opacity:1;stroke-miterlimit:10;" d="M 64.191406 123.710938 C 64.191406 126.316406 60.28125 126.316406 60.28125 123.710938 C 60.28125 121.105469 64.191406 121.105469 64.191406 123.710938 "/>
<path style="fill-rule:nonzero;fill:rgb(0%,0%,0%);fill-opacity:1;stroke-width:0.708661;stroke-linecap:round;stroke-linejoin:round;stroke:rgb(0%,0%,0%);stroke-opacity:1;stroke-miterlimit:10;" d="M 219.996094 88.683594 C 219.996094 91.292969 216.085938 91.292969 216.085938 88.683594 C 216.085938 86.078125 219.996094 86.078125 219.996094 88.683594 "/>
<path style="fill-rule:nonzero;fill:rgb(0%,0%,0%);fill-opacity:1;stroke-width:0.708661;stroke-linecap:round;stroke-linejoin:round;stroke:rgb(0%,0%,0%);stroke-opacity:1;stroke-miterlimit:10;" d="M 220.269531 107.394531 C 220.269531 110 216.359375 110 216.359375 107.394531 C 216.359375 104.789062 220.269531 104.789062 220.269531 107.394531 "/>
<path style="fill-rule:nonzero;fill:rgb(0%,0%,0%);fill-opacity:1;stroke-width:0.708661;stroke-linecap:round;stroke-linejoin:round;stroke:rgb(0%,0%,0%);stroke-opacity:1;stroke-miterlimit:10;" d="M 187.871094 81.226562 C 187.871094 83.832031 183.960938 83.832031 183.960938 81.226562 C 183.960938 78.617188 187.871094 78.617188 187.871094 81.226562 "/>
<path style="fill-rule:nonzero;fill:rgb(0%,0%,0%);fill-opacity:1;stroke-width:0.708661;stroke-linecap:round;stroke-linejoin:round;stroke:rgb(0%,0%,0%);stroke-opacity:1;stroke-miterlimit:10;" d="M 43.019531 250.421875 C 43.019531 253.027344 39.109375 253.027344 39.109375 250.421875 C 39.109375 247.816406 43.019531 247.816406 43.019531 250.421875 "/>
<path style="fill-rule:nonzero;fill:rgb(0%,0%,0%);fill-opacity:1;stroke-width:0.708661;stroke-linecap:round;stroke-linejoin:round;stroke:rgb(0%,0%,0%);stroke-opacity:1;stroke-miterlimit:10;" d="M 193.734375 82.054688 C 193.734375 84.660156 189.824219 84.660156 189.824219 82.054688 C 189.824219 79.445312 193.734375 79.445312 193.734375 82.054688 "/>
<path style="fill-rule:nonzero;fill:rgb(0%,0%,0%);fill-opacity:1;stroke-width:0.708661;stroke-linecap:round;stroke-linejoin:round;stroke:rgb(0%,0%,0%);stroke-opacity:1;stroke-miterlimit:10;" d="M 229.324219 132.832031 C 229.324219 135.4375 225.414062 135.4375 225.414062 132.832031 C 225.414062 130.226562 229.324219 130.226562 229.324219 132.832031 "/>
<path style="fill-rule:nonzero;fill:rgb(0%,0%,0%);fill-opacity:1;stroke-width:0.708661;stroke-linecap:round;stroke-linejoin:round;stroke:rgb(0%,0%,0%);stroke-opacity:1;stroke-miterlimit:10;" d="M 196.1875 227.804688 C 196.1875 230.410156 192.277344 230.410156 192.277344 227.804688 C 192.277344 225.195312 196.1875 225.195312 196.1875 227.804688 "/>
<path style="fill-rule:nonzero;fill:rgb(0%,0%,0%);fill-opacity:1;stroke-width:0.708661;stroke-linecap:round;stroke-linejoin:round;stroke:rgb(0%,0%,0%);stroke-opacity:1;stroke-miterlimit:10;" d="M 217.089844 202.320312 C 217.089844 204.925781 213.179688 204.925781 213.179688 202.320312 C 213.179688 199.714844 217.089844 199.714844 217.089844 202.320312 "/>
<path style="fill-rule:nonzero;fill:rgb(0%,0%,0%);fill-opacity:1;stroke-width:0.708661;stroke-linecap:round;stroke-linejoin:round;stroke:rgb(0%,0%,0%);stroke-opacity:1;stroke-miterlimit:10;" d="M 189.457031 216.597656 C 189.457031 219.203125 185.546875 219.203125 185.546875 216.597656 C 185.546875 213.992188 189.457031 213.992188 189.457031 216.597656 "/>
<path style="fill-rule:nonzero;fill:rgb(0%,0%,0%);fill-opacity:1;stroke-width:0.708661;stroke-linecap:round;stroke-linejoin:round;stroke:rgb(0%,0%,0%);stroke-opacity:1;stroke-miterlimit:10;" d="M 225.0625 143.519531 C 225.0625 146.125 221.152344 146.125 221.152344 143.519531 C 221.152344 140.910156 225.0625 140.910156 225.0625 143.519531 "/>
<path style="fill-rule:nonzero;fill:rgb(0%,0%,0%);fill-opacity:1;stroke-width:0.708661;stroke-linecap:round;stroke-linejoin:round;stroke:rgb(0%,0%,0%);stroke-opacity:1;stroke-miterlimit:10;" d="M 164.734375 73.746094 C 164.734375 76.351562 160.828125 76.351562 160.828125 73.746094 C 160.828125 71.140625 164.734375 71.140625 164.734375 73.746094 "/>
<path style="fill-rule:nonzero;fill:rgb(0%,0%,0%);fill-opacity:1;stroke-width:0.708661;stroke-linecap:round;stroke-linejoin:round;stroke:rgb(0%,0%,0%);stroke-opacity:1;stroke-miterlimit:10;" d="M 160.492188 246.382812 C 160.492188 248.992188 156.582031 248.992188 156.582031 246.382812 C 156.582031 243.777344 160.492188 243.777344 160.492188 246.382812 "/>
<path style="fill-rule:nonzero;fill:rgb(0%,0%,0%);fill-opacity:1;stroke-width:0.708661;stroke-linecap:round;stroke-linejoin:round;stroke:rgb(0%,0%,0%);stroke-opacity:1;stroke-miterlimit:10;" d="M 221.03125 114.652344 C 221.03125 117.257812 217.125 117.257812 217.125 114.652344 C 217.125 112.046875 221.03125 112.046875 221.03125 114.652344 "/>
<path style="fill-rule:nonzero;fill:rgb(0%,0%,0%);fill-opacity:1;stroke-width:0.708661;stroke-linecap:round;stroke-linejoin:round;stroke:rgb(0%,0%,0%);stroke-opacity:1;stroke-miterlimit:10;" d="M 159.996094 263.503906 C 159.996094 266.109375 156.085938 266.109375 156.085938 263.503906 C 156.085938 260.894531 159.996094 260.894531 159.996094 263.503906 "/>
<path style="fill-rule:nonzero;fill:rgb(0%,0%,0%);fill-opacity:1;stroke-width:0.708661;stroke-linecap:round;stroke-linejoin:round;stroke:rgb(0%,0%,0%);stroke-opacity:1;stroke-miterlimit:10;" d="M 231.980469 151.675781 C 231.980469 154.28125 228.070312 154.28125 228.070312 151.675781 C 228.070312 149.066406 231.980469 149.066406 231.980469 151.675781 "/>
<path style="fill-rule:nonzero;fill:rgb(0%,0%,0%);fill-opacity:1;stroke-width:0.708661;stroke-linecap:round;stroke-linejoin:round;stroke:rgb(0%,0%,0%);stroke-opacity:1;stroke-miterlimit:10;" d="M 221.914062 240.695312 C 221.914062 243.300781 218.003906 243.300781 218.003906 240.695312 C 218.003906 238.089844 221.914062 238.089844 221.914062 240.695312 "/>
<path style="fill-rule:nonzero;fill:rgb(0%,0%,0%);fill-opacity:1;stroke-width:0.708661;stroke-linecap:round;stroke-linejoin:round;stroke:rgb(0%,0%,0%);stroke-opacity:1;stroke-miterlimit:10;" d="M 182.738281 66.285156 C 182.738281 68.890625 178.828125 68.890625 178.828125 66.285156 C 178.828125 63.675781 182.738281 63.675781 182.738281 66.285156 "/>
<path style="fill-rule:nonzero;fill:rgb(0%,0%,0%);fill-opacity:1;stroke-width:0.708661;stroke-linecap:round;stroke-linejoin:round;stroke:rgb(0%,0%,0%);stroke-opacity:1;stroke-miterlimit:10;" d="M 104.828125 79.5625 C 104.828125 82.167969 100.917969 82.167969 100.917969 79.5625 C 100.917969 76.957031 104.828125 76.957031 104.828125 79.5625 "/>
<path style="fill-rule:nonzero;fill:rgb(0%,0%,0%);fill-opacity:1;stroke-width:0.708661;stroke-linecap:round;stroke-linejoin:round;stroke:rgb(0%,0%,0%);stroke-opacity:1;stroke-miterlimit:10;" d="M 115.691406 73 C 115.691406 75.609375 111.785156 75.609375 111.785156 73 C 111.785156 70.394531 115.691406 70.394531 115.691406 73 "/>
<path style="fill-rule:nonzero;fill:rgb(0%,0%,0%);fill-opacity:1;stroke-width:0.708661;stroke-linecap:round;stroke-linejoin:round;stroke:rgb(0%,0%,0%);stroke-opacity:1;stroke-miterlimit:10;" d="M 73.234375 83.914062 C 73.234375 86.519531 69.324219 86.519531 69.324219 83.914062 C 69.324219 81.304688 73.234375 81.304688 73.234375 83.914062 "/>
<path style="fill-rule:nonzero;fill:rgb(0%,0%,0%);fill-opacity:1;stroke-width:0.708661;stroke-linecap:round;stroke-linejoin:round;stroke:rgb(0%,0%,0%);stroke-opacity:1;stroke-miterlimit:10;" d="M 195.277344 60.429688 C 195.277344 63.035156 191.371094 63.035156 191.371094 60.429688 C 191.371094 57.824219 195.277344 57.824219 195.277344 60.429688 "/>
<path style="fill-rule:nonzero;fill:rgb(0%,0%,0%);fill-opacity:1;stroke-width:0.708661;stroke-linecap:round;stroke-linejoin:round;stroke:rgb(0%,0%,0%);stroke-opacity:1;stroke-miterlimit:10;" d="M 207.785156 234.300781 C 207.785156 236.90625 203.875 236.90625 203.875 234.300781 C 203.875 231.691406 207.785156 231.691406 207.785156 234.300781 "/>
<path style="fill-rule:nonzero;fill:rgb(0%,0%,0%);fill-opacity:1;stroke-width:0.708661;stroke-linecap:round;stroke-linejoin:round;stroke:rgb(0%,0%,0%);stroke-opacity:1;stroke-miterlimit:10;" d="M 124.355469 49.9375 C 124.355469 52.546875 120.445312 52.546875 120.445312 49.9375 C 120.445312 47.332031 124.355469 47.332031 124.355469 49.9375 "/>
<path style="fill-rule:nonzero;fill:rgb(0%,0%,0%);fill-opacity:1;stroke-width:0.708661;stroke-linecap:round;stroke-linejoin:round;stroke:rgb(0%,0%,0%);stroke-opacity:1;stroke-miterlimit:10;" d="M 133.089844 57.847656 C 133.089844 60.453125 129.179688 60.453125 129.179688 57.847656 C 129.179688 55.242188 133.089844 55.242188 133.089844 57.847656 "/>
<path style="fill-rule:nonzero;fill:rgb(0%,0%,0%);fill-opacity:1;stroke-width:0.708661;stroke-linecap:round;stroke-linejoin:round;stroke:rgb(0%,0%,0%);stroke-opacity:1;stroke-miterlimit:10;" d="M 111.863281 234.113281 C 111.863281 236.71875 107.953125 236.71875 107.953125 234.113281 C 107.953125 231.503906 111.863281 231.503906 111.863281 234.113281 "/>
<path style="fill-rule:nonzero;fill:rgb(0%,0%,0%);fill-opacity:1;stroke-width:0.708661;stroke-linecap:round;stroke-linejoin:round;stroke:rgb(0%,0%,0%);stroke-opacity:1;stroke-miterlimit:10;" d="M 186.25 230.828125 C 186.25 233.433594 182.339844 233.433594 182.339844 230.828125 C 182.339844 228.222656 186.25 228.222656 186.25 230.828125 "/>
<path style="fill-rule:nonzero;fill:rgb(0%,0%,0%);fill-opacity:1;stroke-width:0.708661;stroke-linecap:round;stroke-linejoin:round;stroke:rgb(0%,0%,0%);stroke-opacity:1;stroke-miterlimit:10;" d="M 207.519531 222.039062 C 207.519531 224.644531 203.609375 224.644531 203.609375 222.039062 C 203.609375 219.429688 207.519531 219.429688 207.519531 222.039062 "/>
<path style="fill-rule:nonzero;fill:rgb(0%,0%,0%);fill-opacity:1;stroke-width:0.708661;stroke-linecap:round;stroke-linejoin:round;stroke:rgb(0%,0%,0%);stroke-opacity:1;stroke-miterlimit:10;" d="M 77.003906 156.097656 C 77.003906 158.703125 73.09375 158.703125 73.09375 156.097656 C 73.09375 153.492188 77.003906 153.492188 77.003906 156.097656 "/>
<path style="fill-rule:nonzero;fill:rgb(0%,0%,0%);fill-opacity:1;stroke-width:0.708661;stroke-linecap:round;stroke-linejoin:round;stroke:rgb(0%,0%,0%);stroke-opacity:1;stroke-miterlimit:10;" d="M 75.996094 83.609375 C 75.996094 86.21875 72.085938 86.21875 72.085938 83.609375 C 72.085938 81.003906 75.996094 81.003906 75.996094 83.609375 "/>
<path style="fill-rule:nonzero;fill:rgb(0%,0%,0%);fill-opacity:1;stroke-width:0.708661;stroke-linecap:round;stroke-linejoin:round;stroke:rgb(0%,0%,0%);stroke-opacity:1;stroke-miterlimit:10;" d="M 73.265625 163.261719 C 73.265625 165.867188 69.355469 165.867188 69.355469 163.261719 C 69.355469 160.652344 73.265625 160.652344 73.265625 163.261719 "/>
<path style="fill-rule:nonzero;fill:rgb(0%,0%,0%);fill-opacity:1;stroke-width:0.708661;stroke-linecap:round;stroke-linejoin:round;stroke:rgb(0%,0%,0%);stroke-opacity:1;stroke-miterlimit:10;" d="M 235.398438 140.695312 C 235.398438 143.300781 231.488281 143.300781 231.488281 140.695312 C 231.488281 138.085938 235.398438 138.085938 235.398438 140.695312 "/>
<path style="fill-rule:nonzero;fill:rgb(0%,0%,0%);fill-opacity:1;stroke-width:0.708661;stroke-linecap:round;stroke-linejoin:round;stroke:rgb(0%,0%,0%);stroke-opacity:1;stroke-miterlimit:10;" d="M 207.515625 160.210938 C 207.515625 162.816406 203.605469 162.816406 203.605469 160.210938 C 203.605469 157.605469 207.515625 157.605469 207.515625 160.210938 "/>
<path style="fill-rule:nonzero;fill:rgb(0%,0%,0%);fill-opacity:1;stroke-width:0.708661;stroke-linecap:round;stroke-linejoin:round;stroke:rgb(0%,0%,0%);stroke-opacity:1;stroke-miterlimit:10;" d="M 227.558594 29.058594 C 227.558594 31.664062 223.648438 31.664062 223.648438 29.058594 C 223.648438 26.453125 227.558594 26.453125 227.558594 29.058594 "/>
<path style="fill-rule:nonzero;fill:rgb(0%,0%,0%);fill-opacity:1;stroke-width:0.708661;stroke-linecap:round;stroke-linejoin:round;stroke:rgb(0%,0%,0%);stroke-opacity:1;stroke-miterlimit:10;" d="M 108.246094 190.078125 C 108.246094 192.683594 104.335938 192.683594 104.335938 190.078125 C 104.335938 187.472656 108.246094 187.472656 108.246094 190.078125 "/>
<path style="fill-rule:nonzero;fill:rgb(0%,0%,0%);fill-opacity:1;stroke-width:0.708661;stroke-linecap:round;stroke-linejoin:round;stroke:rgb(0%,0%,0%);stroke-opacity:1;stroke-miterlimit:10;" d="M 187.816406 187.65625 C 187.816406 190.261719 183.90625 190.261719 183.90625 187.65625 C 183.90625 185.050781 187.816406 185.050781 187.816406 187.65625 "/>
<path style="fill-rule:nonzero;fill:rgb(0%,0%,0%);fill-opacity:1;stroke-width:0.708661;stroke-linecap:round;stroke-linejoin:round;stroke:rgb(0%,0%,0%);stroke-opacity:1;stroke-miterlimit:10;" d="M 177.917969 185.6875 C 177.917969 188.296875 174.007812 188.296875 174.007812 185.6875 C 174.007812 183.082031 177.917969 183.082031 177.917969 185.6875 "/>
<path style="fill-rule:nonzero;fill:rgb(0%,0%,0%);fill-opacity:1;stroke-width:0.708661;stroke-linecap:round;stroke-linejoin:round;stroke:rgb(0%,0%,0%);stroke-opacity:1;stroke-miterlimit:10;" d="M 182.636719 193.503906 C 182.636719 196.109375 178.726562 196.109375 178.726562 193.503906 C 178.726562 190.894531 182.636719 190.894531 182.636719 193.503906 "/>
<path style="fill-rule:nonzero;fill:rgb(0%,0%,0%);fill-opacity:1;stroke-width:0.708661;stroke-linecap:round;stroke-linejoin:round;stroke:rgb(0%,0%,0%);stroke-opacity:1;stroke-miterlimit:10;" d="M 209.300781 166.183594 C 209.300781 168.789062 205.394531 168.789062 205.394531 166.183594 C 205.394531 163.578125 209.300781 163.578125 209.300781 166.183594 "/>
<path style="fill-rule:nonzero;fill:rgb(0%,0%,0%);fill-opacity:1;stroke-width:0.708661;stroke-linecap:round;stroke-linejoin:round;stroke:rgb(0%,0%,0%);stroke-opacity:1;stroke-miterlimit:10;" d="M 70.140625 20.144531 C 70.140625 22.75 66.230469 22.75 66.230469 20.144531 C 66.230469 17.539062 70.140625 17.539062 70.140625 20.144531 "/>
<path style="fill-rule:nonzero;fill:rgb(0%,0%,0%);fill-opacity:1;stroke-width:0.708661;stroke-linecap:round;stroke-linejoin:round;stroke:rgb(0%,0%,0%);stroke-opacity:1;stroke-miterlimit:10;" d="M 63.425781 147.933594 C 63.425781 150.542969 59.515625 150.542969 59.515625 147.933594 C 59.515625 145.328125 63.425781 145.328125 63.425781 147.933594 "/>
<path style="fill-rule:nonzero;fill:rgb(0%,0%,0%);fill-opacity:1;stroke-width:0.708661;stroke-linecap:round;stroke-linejoin:round;stroke:rgb(0%,0%,0%);stroke-opacity:1;stroke-miterlimit:10;" d="M 218.78125 40.558594 C 218.78125 43.164062 214.871094 43.164062 214.871094 40.558594 C 214.871094 37.949219 218.78125 37.949219 218.78125 40.558594 "/>
<path style="fill-rule:nonzero;fill:rgb(0%,0%,0%);fill-opacity:1;stroke-width:0.708661;stroke-linecap:round;stroke-linejoin:round;stroke:rgb(0%,0%,0%);stroke-opacity:1;stroke-miterlimit:10;" d="M 99.402344 43.925781 C 99.402344 46.535156 95.492188 46.535156 95.492188 43.925781 C 95.492188 41.320312 99.402344 41.320312 99.402344 43.925781 "/>
<path style="fill-rule:nonzero;fill:rgb(0%,0%,0%);fill-opacity:1;stroke-width:0.708661;stroke-linecap:round;stroke-linejoin:round;stroke:rgb(0%,0%,0%);stroke-opacity:1;stroke-miterlimit:10;" d="M 185.410156 50.679688 C 185.410156 53.285156 181.5 53.285156 181.5 50.679688 C 181.5 48.074219 185.410156 48.074219 185.410156 50.679688 "/>
<path style="fill-rule:nonzero;fill:rgb(0%,0%,0%);fill-opacity:1;stroke-width:0.708661;stroke-linecap:round;stroke-linejoin:round;stroke:rgb(0%,0%,0%);stroke-opacity:1;stroke-miterlimit:10;" d="M 211.085938 192.175781 C 211.085938 194.785156 207.179688 194.785156 207.179688 192.175781 C 207.179688 189.570312 211.085938 189.570312 211.085938 192.175781 "/>
<path style="fill-rule:nonzero;fill:rgb(0%,0%,0%);fill-opacity:1;stroke-width:0.708661;stroke-linecap:round;stroke-linejoin:round;stroke:rgb(0%,0%,0%);stroke-opacity:1;stroke-miterlimit:10;" d="M 84.386719 115 C 84.386719 117.605469 80.476562 117.605469 80.476562 115 C 80.476562 112.394531 84.386719 112.394531 84.386719 115 "/>
<path style="fill-rule:nonzero;fill:rgb(0%,0%,0%);fill-opacity:1;stroke-width:0.708661;stroke-linecap:round;stroke-linejoin:round;stroke:rgb(0%,0%,0%);stroke-opacity:1;stroke-miterlimit:10;" d="M 114.1875 163.003906 C 114.1875 165.609375 110.277344 165.609375 110.277344 163.003906 C 110.277344 160.398438 114.1875 160.398438 114.1875 163.003906 "/>
<path style="fill-rule:nonzero;fill:rgb(0%,0%,0%);fill-opacity:1;stroke-width:0.708661;stroke-linecap:round;stroke-linejoin:round;stroke:rgb(0%,0%,0%);stroke-opacity:1;stroke-miterlimit:10;" d="M 152.367188 188.734375 C 152.367188 191.34375 148.457031 191.34375 148.457031 188.734375 C 148.457031 186.128906 152.367188 186.128906 152.367188 188.734375 "/>
<path style="fill-rule:nonzero;fill:rgb(0%,0%,0%);fill-opacity:1;stroke-width:0.708661;stroke-linecap:round;stroke-linejoin:round;stroke:rgb(0%,0%,0%);stroke-opacity:1;stroke-miterlimit:10;" d="M 114.824219 183.371094 C 114.824219 185.976562 110.914062 185.976562 110.914062 183.371094 C 110.914062 180.761719 114.824219 180.761719 114.824219 183.371094 "/>
<path style="fill-rule:nonzero;fill:rgb(0%,0%,0%);fill-opacity:1;stroke-width:0.708661;stroke-linecap:round;stroke-linejoin:round;stroke:rgb(0%,0%,0%);stroke-opacity:1;stroke-miterlimit:10;" d="M 89.320312 34.230469 C 89.320312 36.835938 85.410156 36.835938 85.410156 34.230469 C 85.410156 31.625 89.320312 31.625 89.320312 34.230469 "/>
<path style="fill-rule:nonzero;fill:rgb(0%,0%,0%);fill-opacity:1;stroke-width:0.708661;stroke-linecap:round;stroke-linejoin:round;stroke:rgb(0%,0%,0%);stroke-opacity:1;stroke-miterlimit:10;" d="M 120.375 192.71875 C 120.375 195.324219 116.464844 195.324219 116.464844 192.71875 C 116.464844 190.113281 120.375 190.113281 120.375 192.71875 "/>
<path style="fill-rule:nonzero;fill:rgb(0%,0%,0%);fill-opacity:1;stroke-width:0.708661;stroke-linecap:round;stroke-linejoin:round;stroke:rgb(0%,0%,0%);stroke-opacity:1;stroke-miterlimit:10;" d="M 102.015625 155.398438 C 102.015625 158.003906 98.109375 158.003906 98.109375 155.398438 C 98.109375 152.789062 102.015625 152.789062 102.015625 155.398438 "/>
<path style="fill-rule:nonzero;fill:rgb(0%,0%,0%);fill-opacity:1;stroke-width:0.708661;stroke-linecap:round;stroke-linejoin:round;stroke:rgb(0%,0%,0%);stroke-opacity:1;stroke-miterlimit:10;" d="M 98.371094 182.105469 C 98.371094 184.710938 94.460938 184.710938 94.460938 182.105469 C 94.460938 179.5 98.371094 179.5 98.371094 182.105469 "/>
<path style="fill-rule:nonzero;fill:rgb(0%,0%,0%);fill-opacity:1;stroke-width:0.708661;stroke-linecap:round;stroke-linejoin:round;stroke:rgb(0%,0%,0%);stroke-opacity:1;stroke-miterlimit:10;" d="M 99.613281 50.699219 C 99.613281 53.304688 95.703125 53.304688 95.703125 50.699219 C 95.703125 48.089844 99.613281 48.089844 99.613281 50.699219 "/>
<path style="fill-rule:nonzero;fill:rgb(0%,0%,0%);fill-opacity:1;stroke-width:0.708661;stroke-linecap:round;stroke-linejoin:round;stroke:rgb(0%,0%,0%);stroke-opacity:1;stroke-miterlimit:10;" d="M 272.007812 64.179688 C 272.007812 66.785156 268.097656 66.785156 268.097656 64.179688 C 268.097656 61.574219 272.007812 61.574219 272.007812 64.179688 "/>
<path style="fill-rule:nonzero;fill:rgb(0%,0%,0%);fill-opacity:1;stroke-width:0.708661;stroke-linecap:round;stroke-linejoin:round;stroke:rgb(0%,0%,0%);stroke-opacity:1;stroke-miterlimit:10;" d="M 127.289062 48.871094 C 127.289062 51.476562 123.382812 51.476562 123.382812 48.871094 C 123.382812 46.265625 127.289062 46.265625 127.289062 48.871094 "/>
<path style="fill-rule:nonzero;fill:rgb(0%,0%,0%);fill-opacity:1;stroke-width:0.708661;stroke-linecap:round;stroke-linejoin:round;stroke:rgb(0%,0%,0%);stroke-opacity:1;stroke-miterlimit:10;" d="M 117.792969 210.972656 C 117.792969 213.582031 113.882812 213.582031 113.882812 210.972656 C 113.882812 208.367188 117.792969 208.367188 117.792969 210.972656 "/>
<path style="fill-rule:nonzero;fill:rgb(0%,0%,0%);fill-opacity:1;stroke-width:0.708661;stroke-linecap:round;stroke-linejoin:round;stroke:rgb(0%,0%,0%);stroke-opacity:1;stroke-miterlimit:10;" d="M 99.761719 87.054688 C 99.761719 89.660156 95.851562 89.660156 95.851562 87.054688 C 95.851562 84.449219 99.761719 84.449219 99.761719 87.054688 "/>
<path style="fill-rule:nonzero;fill:rgb(0%,0%,0%);fill-opacity:1;stroke-width:0.708661;stroke-linecap:round;stroke-linejoin:round;stroke:rgb(0%,0%,0%);stroke-opacity:1;stroke-miterlimit:10;" d="M 110.054688 216.398438 C 110.054688 219.003906 106.144531 219.003906 106.144531 216.398438 C 106.144531 213.792969 110.054688 213.792969 110.054688 216.398438 "/>
<path style="fill-rule:nonzero;fill:rgb(0%,0%,0%);fill-opacity:1;stroke-width:0.708661;stroke-linecap:round;stroke-linejoin:round;stroke:rgb(0%,0%,0%);stroke-opacity:1;stroke-miterlimit:10;" d="M 92.914062 113.15625 C 92.914062 115.765625 89.003906 115.765625 89.003906 113.15625 C 89.003906 110.550781 92.914062 110.550781 92.914062 113.15625 "/>
<path style="fill-rule:nonzero;fill:rgb(0%,0%,0%);fill-opacity:1;stroke-width:0.708661;stroke-linecap:round;stroke-linejoin:round;stroke:rgb(0%,0%,0%);stroke-opacity:1;stroke-miterlimit:10;" d="M 99.640625 86.578125 C 99.640625 89.183594 95.730469 89.183594 95.730469 86.578125 C 95.730469 83.972656 99.640625 83.972656 99.640625 86.578125 "/>
<path style="fill-rule:nonzero;fill:rgb(0%,0%,0%);fill-opacity:1;stroke-width:0.708661;stroke-linecap:round;stroke-linejoin:round;stroke:rgb(0%,0%,0%);stroke-opacity:1;stroke-miterlimit:10;" d="M 94.515625 111.75 C 94.515625 114.355469 90.605469 114.355469 90.605469 111.75 C 90.605469 109.144531 94.515625 109.144531 94.515625 111.75 "/>
<path style="fill-rule:nonzero;fill:rgb(0%,0%,0%);fill-opacity:1;stroke-width:0.708661;stroke-linecap:round;stroke-linejoin:round;stroke:rgb(0%,0%,0%);stroke-opacity:1;stroke-miterlimit:10;" d="M 198.980469 99.707031 C 198.980469 102.3125 195.070312 102.3125 195.070312 99.707031 C 195.070312 97.101562 198.980469 97.101562 198.980469 99.707031 "/>
<path style="fill-rule:nonzero;fill:rgb(0%,0%,0%);fill-opacity:1;stroke-width:0.708661;stroke-linecap:round;stroke-linejoin:round;stroke:rgb(0%,0%,0%);stroke-opacity:1;stroke-miterlimit:10;" d="M 114.359375 107.539062 C 114.359375 110.144531 110.449219 110.144531 110.449219 107.539062 C 110.449219 104.933594 114.359375 104.933594 114.359375 107.539062 "/>
<path style="fill-rule:nonzero;fill:rgb(0%,0%,0%);fill-opacity:1;stroke-width:0.708661;stroke-linecap:round;stroke-linejoin:round;stroke:rgb(0%,0%,0%);stroke-opacity:1;stroke-miterlimit:10;" d="M 102.128906 100.183594 C 102.128906 102.789062 98.21875 102.789062 98.21875 100.183594 C 98.21875 97.578125 102.128906 97.578125 102.128906 100.183594 "/>
<path style="fill-rule:nonzero;fill:rgb(0%,0%,0%);fill-opacity:1;stroke-width:0.708661;stroke-linecap:round;stroke-linejoin:round;stroke:rgb(0%,0%,0%);stroke-opacity:1;stroke-miterlimit:10;" d="M 201.304688 247.921875 C 201.304688 250.527344 197.394531 250.527344 197.394531 247.921875 C 197.394531 245.316406 201.304688 245.316406 201.304688 247.921875 "/>
<path style="fill-rule:nonzero;fill:rgb(0%,0%,0%);fill-opacity:1;stroke-width:0.708661;stroke-linecap:round;stroke-linejoin:round;stroke:rgb(0%,0%,0%);stroke-opacity:1;stroke-miterlimit:10;" d="M 201.210938 69.96875 C 201.210938 72.574219 197.300781 72.574219 197.300781 69.96875 C 197.300781 67.363281 201.210938 67.363281 201.210938 69.96875 "/>
<path style="fill-rule:nonzero;fill:rgb(0%,0%,0%);fill-opacity:1;stroke-width:0.708661;stroke-linecap:round;stroke-linejoin:round;stroke:rgb(0%,0%,0%);stroke-opacity:1;stroke-miterlimit:10;" d="M 101.125 75.835938 C 101.125 78.441406 97.21875 78.441406 97.21875 75.835938 C 97.21875 73.226562 101.125 73.226562 101.125 75.835938 "/>
<path style="fill-rule:nonzero;fill:rgb(0%,0%,0%);fill-opacity:1;stroke-width:0.708661;stroke-linecap:round;stroke-linejoin:round;stroke:rgb(0%,0%,0%);stroke-opacity:1;stroke-miterlimit:10;" d="M 176.550781 97.242188 C 176.550781 99.847656 172.640625 99.847656 172.640625 97.242188 C 172.640625 94.636719 176.550781 94.636719 176.550781 97.242188 "/>
<path style="fill-rule:nonzero;fill:rgb(0%,0%,0%);fill-opacity:1;stroke-width:0.708661;stroke-linecap:round;stroke-linejoin:round;stroke:rgb(0%,0%,0%);stroke-opacity:1;stroke-miterlimit:10;" d="M 208.09375 267.3125 C 208.09375 269.917969 204.183594 269.917969 204.183594 267.3125 C 204.183594 264.707031 208.09375 264.707031 208.09375 267.3125 "/>
<path style="fill-rule:nonzero;fill:rgb(0%,0%,0%);fill-opacity:1;stroke-width:0.708661;stroke-linecap:round;stroke-linejoin:round;stroke:rgb(0%,0%,0%);stroke-opacity:1;stroke-miterlimit:10;" d="M 119.960938 88.238281 C 119.960938 90.84375 116.050781 90.84375 116.050781 88.238281 C 116.050781 85.632812 119.960938 85.632812 119.960938 88.238281 "/>
<path style="fill-rule:nonzero;fill:rgb(0%,0%,0%);fill-opacity:1;stroke-width:0.708661;stroke-linecap:round;stroke-linejoin:round;stroke:rgb(0%,0%,0%);stroke-opacity:1;stroke-miterlimit:10;" d="M 109.507812 261.375 C 109.507812 263.984375 105.601562 263.984375 105.601562 261.375 C 105.601562 258.769531 109.507812 258.769531 109.507812 261.375 "/>
<path style="fill-rule:nonzero;fill:rgb(0%,0%,0%);fill-opacity:1;stroke-width:0.708661;stroke-linecap:round;stroke-linejoin:round;stroke:rgb(0%,0%,0%);stroke-opacity:1;stroke-miterlimit:10;" d="M 90.800781 251.984375 C 90.800781 254.589844 86.890625 254.589844 86.890625 251.984375 C 86.890625 249.378906 90.800781 249.378906 90.800781 251.984375 "/>
<path style="fill-rule:nonzero;fill:rgb(0%,0%,0%);fill-opacity:1;stroke-width:0.708661;stroke-linecap:round;stroke-linejoin:round;stroke:rgb(0%,0%,0%);stroke-opacity:1;stroke-miterlimit:10;" d="M 71.253906 157.945312 C 71.253906 160.550781 67.34375 160.550781 67.34375 157.945312 C 67.34375 155.339844 71.253906 155.339844 71.253906 157.945312 "/>
<path style="fill-rule:nonzero;fill:rgb(0%,0%,0%);fill-opacity:1;stroke-width:0.708661;stroke-linecap:round;stroke-linejoin:round;stroke:rgb(0%,0%,0%);stroke-opacity:1;stroke-miterlimit:10;" d="M 91.109375 138.023438 C 91.109375 140.628906 87.199219 140.628906 87.199219 138.023438 C 87.199219 135.417969 91.109375 135.417969 91.109375 138.023438 "/>
<path style="fill-rule:nonzero;fill:rgb(0%,0%,0%);fill-opacity:1;stroke-width:0.708661;stroke-linecap:round;stroke-linejoin:round;stroke:rgb(0%,0%,0%);stroke-opacity:1;stroke-miterlimit:10;" d="M 104.28125 113.761719 C 104.28125 116.371094 100.371094 116.371094 100.371094 113.761719 C 100.371094 111.15625 104.28125 111.15625 104.28125 113.761719 "/>
<path style="fill-rule:nonzero;fill:rgb(0%,0%,0%);fill-opacity:1;stroke-width:0.708661;stroke-linecap:round;stroke-linejoin:round;stroke:rgb(0%,0%,0%);stroke-opacity:1;stroke-miterlimit:10;" d="M 239.507812 251.902344 C 239.507812 254.511719 235.597656 254.511719 235.597656 251.902344 C 235.597656 249.296875 239.507812 249.296875 239.507812 251.902344 "/>
<path style="fill-rule:nonzero;fill:rgb(0%,0%,0%);fill-opacity:1;stroke-width:0.708661;stroke-linecap:round;stroke-linejoin:round;stroke:rgb(0%,0%,0%);stroke-opacity:1;stroke-miterlimit:10;" d="M 131.667969 71.269531 C 131.667969 73.875 127.757812 73.875 127.757812 71.269531 C 127.757812 68.664062 131.667969 68.664062 131.667969 71.269531 "/>
<path style="fill-rule:nonzero;fill:rgb(0%,0%,0%);fill-opacity:1;stroke-width:0.708661;stroke-linecap:round;stroke-linejoin:round;stroke:rgb(0%,0%,0%);stroke-opacity:1;stroke-miterlimit:10;" d="M 88.390625 120.777344 C 88.390625 123.382812 84.484375 123.382812 84.484375 120.777344 C 84.484375 118.171875 88.390625 118.171875 88.390625 120.777344 "/>
<path style="fill-rule:nonzero;fill:rgb(0%,0%,0%);fill-opacity:1;stroke-width:0.708661;stroke-linecap:round;stroke-linejoin:round;stroke:rgb(0%,0%,0%);stroke-opacity:1;stroke-miterlimit:10;" d="M 137.4375 83.625 C 137.4375 86.230469 133.527344 86.230469 133.527344 83.625 C 133.527344 81.019531 137.4375 81.019531 137.4375 83.625 "/>
<path style="fill-rule:nonzero;fill:rgb(0%,0%,0%);fill-opacity:1;stroke-width:0.708661;stroke-linecap:round;stroke-linejoin:round;stroke:rgb(0%,0%,0%);stroke-opacity:1;stroke-miterlimit:10;" d="M 174.386719 83.660156 C 174.386719 86.265625 170.476562 86.265625 170.476562 83.660156 C 170.476562 81.054688 174.386719 81.054688 174.386719 83.660156 "/>
<path style="fill-rule:nonzero;fill:rgb(0%,0%,0%);fill-opacity:1;stroke-width:0.708661;stroke-linecap:round;stroke-linejoin:round;stroke:rgb(0%,0%,0%);stroke-opacity:1;stroke-miterlimit:10;" d="M 100.53125 115.621094 C 100.53125 118.230469 96.621094 118.230469 96.621094 115.621094 C 96.621094 113.015625 100.53125 113.015625 100.53125 115.621094 "/>
<path style="fill-rule:nonzero;fill:rgb(0%,0%,0%);fill-opacity:1;stroke-width:0.708661;stroke-linecap:round;stroke-linejoin:round;stroke:rgb(0%,0%,0%);stroke-opacity:1;stroke-miterlimit:10;" d="M 109.910156 98.394531 C 109.910156 101 106 101 106 98.394531 C 106 95.785156 109.910156 95.785156 109.910156 98.394531 "/>
<path style="fill-rule:nonzero;fill:rgb(0%,0%,0%);fill-opacity:1;stroke-width:0.708661;stroke-linecap:round;stroke-linejoin:round;stroke:rgb(0%,0%,0%);stroke-opacity:1;stroke-miterlimit:10;" d="M 72.746094 171.808594 C 72.746094 174.414062 68.835938 174.414062 68.835938 171.808594 C 68.835938 169.203125 72.746094 169.203125 72.746094 171.808594 "/>
<path style="fill-rule:nonzero;fill:rgb(0%,0%,0%);fill-opacity:1;stroke-width:0.708661;stroke-linecap:round;stroke-linejoin:round;stroke:rgb(0%,0%,0%);stroke-opacity:1;stroke-miterlimit:10;" d="M 67.828125 159.507812 C 67.828125 162.113281 63.917969 162.113281 63.917969 159.507812 C 63.917969 156.902344 67.828125 156.902344 67.828125 159.507812 "/>
<path style="fill-rule:nonzero;fill:rgb(0%,0%,0%);fill-opacity:1;stroke-width:0.708661;stroke-linecap:round;stroke-linejoin:round;stroke:rgb(0%,0%,0%);stroke-opacity:1;stroke-miterlimit:10;" d="M 240.773438 264.253906 C 240.773438 266.859375 236.863281 266.859375 236.863281 264.253906 C 236.863281 261.648438 240.773438 261.648438 240.773438 264.253906 "/>
<path style="fill-rule:nonzero;fill:rgb(0%,0%,0%);fill-opacity:1;stroke-width:0.708661;stroke-linecap:round;stroke-linejoin:round;stroke:rgb(0%,0%,0%);stroke-opacity:1;stroke-miterlimit:10;" d="M 97.179688 113.789062 C 97.179688 116.394531 93.273438 116.394531 93.273438 113.789062 C 93.273438 111.183594 97.179688 111.183594 97.179688 113.789062 "/>
<path style="fill-rule:nonzero;fill:rgb(0%,0%,0%);fill-opacity:1;stroke-width:0.708661;stroke-linecap:round;stroke-linejoin:round;stroke:rgb(0%,0%,0%);stroke-opacity:1;stroke-miterlimit:10;" d="M 157.105469 86.9375 C 157.105469 89.542969 153.195312 89.542969 153.195312 86.9375 C 153.195312 84.328125 157.105469 84.328125 157.105469 86.9375 "/>
<path style="fill-rule:nonzero;fill:rgb(0%,0%,0%);fill-opacity:1;stroke-width:0.708661;stroke-linecap:round;stroke-linejoin:round;stroke:rgb(0%,0%,0%);stroke-opacity:1;stroke-miterlimit:10;" d="M 80.914062 266.046875 C 80.914062 268.65625 77.003906 268.65625 77.003906 266.046875 C 77.003906 263.441406 80.914062 263.441406 80.914062 266.046875 "/>
<path style="fill-rule:nonzero;fill:rgb(0%,0%,0%);fill-opacity:1;stroke-width:0.708661;stroke-linecap:round;stroke-linejoin:round;stroke:rgb(0%,0%,0%);stroke-opacity:1;stroke-miterlimit:10;" d="M 229.835938 176.5625 C 229.835938 179.167969 225.925781 179.167969 225.925781 176.5625 C 225.925781 173.953125 229.835938 173.953125 229.835938 176.5625 "/>
<path style="fill-rule:nonzero;fill:rgb(0%,0%,0%);fill-opacity:1;stroke-width:0.708661;stroke-linecap:round;stroke-linejoin:round;stroke:rgb(0%,0%,0%);stroke-opacity:1;stroke-miterlimit:10;" d="M 63.160156 200.859375 C 63.160156 203.46875 59.25 203.46875 59.25 200.859375 C 59.25 198.253906 63.160156 198.253906 63.160156 200.859375 "/>
<path style="fill-rule:nonzero;fill:rgb(0%,0%,0%);fill-opacity:1;stroke-width:0.708661;stroke-linecap:round;stroke-linejoin:round;stroke:rgb(0%,0%,0%);stroke-opacity:1;stroke-miterlimit:10;" d="M 206.644531 239.542969 C 206.644531 242.148438 202.734375 242.148438 202.734375 239.542969 C 202.734375 236.9375 206.644531 236.9375 206.644531 239.542969 "/>
<path style="fill-rule:nonzero;fill:rgb(0%,0%,0%);fill-opacity:1;stroke-width:0.708661;stroke-linecap:round;stroke-linejoin:round;stroke:rgb(0%,0%,0%);stroke-opacity:1;stroke-miterlimit:10;" d="M 214.640625 141.535156 C 214.640625 144.140625 210.730469 144.140625 210.730469 141.535156 C 210.730469 138.925781 214.640625 138.925781 214.640625 141.535156 "/>
<path style="fill-rule:nonzero;fill:rgb(0%,0%,0%);fill-opacity:1;stroke-width:0.708661;stroke-linecap:round;stroke-linejoin:round;stroke:rgb(0%,0%,0%);stroke-opacity:1;stroke-miterlimit:10;" d="M 78.421875 262.726562 C 78.421875 265.332031 74.511719 265.332031 74.511719 262.726562 C 74.511719 260.117188 78.421875 260.117188 78.421875 262.726562 "/>
<path style="fill-rule:nonzero;fill:rgb(0%,0%,0%);fill-opacity:1;stroke-width:0.708661;stroke-linecap:round;stroke-linejoin:round;stroke:rgb(0%,0%,0%);stroke-opacity:1;stroke-miterlimit:10;" d="M 167.75 90.417969 C 167.75 93.023438 163.839844 93.023438 163.839844 90.417969 C 163.839844 87.808594 167.75 87.808594 167.75 90.417969 "/>
<path style="fill-rule:nonzero;fill:rgb(0%,0%,0%);fill-opacity:1;stroke-width:0.708661;stroke-linecap:round;stroke-linejoin:round;stroke:rgb(0%,0%,0%);stroke-opacity:1;stroke-miterlimit:10;" d="M 86.457031 235.273438 C 86.457031 237.882812 82.550781 237.882812 82.550781 235.273438 C 82.550781 232.667969 86.457031 232.667969 86.457031 235.273438 "/>
<path style="fill-rule:nonzero;fill:rgb(0%,0%,0%);fill-opacity:1;stroke-width:0.708661;stroke-linecap:round;stroke-linejoin:round;stroke:rgb(0%,0%,0%);stroke-opacity:1;stroke-miterlimit:10;" d="M 215.171875 158.667969 C 215.171875 161.273438 211.261719 161.273438 211.261719 158.667969 C 211.261719 156.0625 215.171875 156.0625 215.171875 158.667969 "/>
<path style="fill-rule:nonzero;fill:rgb(0%,0%,0%);fill-opacity:1;stroke-width:0.708661;stroke-linecap:round;stroke-linejoin:round;stroke:rgb(0%,0%,0%);stroke-opacity:1;stroke-miterlimit:10;" d="M 178.953125 98.605469 C 178.953125 101.210938 175.042969 101.210938 175.042969 98.605469 C 175.042969 95.996094 178.953125 95.996094 178.953125 98.605469 "/>
<path style="fill-rule:nonzero;fill:rgb(0%,0%,0%);fill-opacity:1;stroke-width:0.708661;stroke-linecap:round;stroke-linejoin:round;stroke:rgb(0%,0%,0%);stroke-opacity:1;stroke-miterlimit:10;" d="M 83.648438 201.609375 C 83.648438 204.21875 79.738281 204.21875 79.738281 201.609375 C 79.738281 199.003906 83.648438 199.003906 83.648438 201.609375 "/>
<path style="fill-rule:nonzero;fill:rgb(0%,0%,0%);fill-opacity:1;stroke-width:0.708661;stroke-linecap:round;stroke-linejoin:round;stroke:rgb(0%,0%,0%);stroke-opacity:1;stroke-miterlimit:10;" d="M 105.742188 168.691406 C 105.742188 171.300781 101.832031 171.300781 101.832031 168.691406 C 101.832031 166.085938 105.742188 166.085938 105.742188 168.691406 "/>
<path style="fill-rule:nonzero;fill:rgb(0%,0%,0%);fill-opacity:1;stroke-width:0.708661;stroke-linecap:round;stroke-linejoin:round;stroke:rgb(0%,0%,0%);stroke-opacity:1;stroke-miterlimit:10;" d="M 177.585938 107.410156 C 177.585938 110.015625 173.679688 110.015625 173.679688 107.410156 C 173.679688 104.804688 177.585938 104.804688 177.585938 107.410156 "/>
<path style="fill-rule:nonzero;fill:rgb(0%,0%,0%);fill-opacity:1;stroke-width:0.708661;stroke-linecap:round;stroke-linejoin:round;stroke:rgb(0%,0%,0%);stroke-opacity:1;stroke-miterlimit:10;" d="M 110.863281 122.199219 C 110.863281 124.804688 106.957031 124.804688 106.957031 122.199219 C 106.957031 119.589844 110.863281 119.589844 110.863281 122.199219 "/>
<path style="fill-rule:nonzero;fill:rgb(0%,0%,0%);fill-opacity:1;stroke-width:0.708661;stroke-linecap:round;stroke-linejoin:round;stroke:rgb(0%,0%,0%);stroke-opacity:1;stroke-miterlimit:10;" d="M 142.1875 102.148438 C 142.1875 104.757812 138.277344 104.757812 138.277344 102.148438 C 138.277344 99.542969 142.1875 99.542969 142.1875 102.148438 "/>
<path style="fill-rule:nonzero;fill:rgb(0%,0%,0%);fill-opacity:1;stroke-width:0.708661;stroke-linecap:round;stroke-linejoin:round;stroke:rgb(0%,0%,0%);stroke-opacity:1;stroke-miterlimit:10;" d="M 131.941406 77.277344 C 131.941406 79.882812 128.03125 79.882812 128.03125 77.277344 C 128.03125 74.671875 131.941406 74.671875 131.941406 77.277344 "/>
<path style="fill-rule:nonzero;fill:rgb(0%,0%,0%);fill-opacity:1;stroke-width:0.708661;stroke-linecap:round;stroke-linejoin:round;stroke:rgb(0%,0%,0%);stroke-opacity:1;stroke-miterlimit:10;" d="M 167.816406 80.679688 C 167.816406 83.285156 163.90625 83.285156 163.90625 80.679688 C 163.90625 78.070312 167.816406 78.070312 167.816406 80.679688 "/>
<path style="fill-rule:nonzero;fill:rgb(0%,0%,0%);fill-opacity:1;stroke-width:0.708661;stroke-linecap:round;stroke-linejoin:round;stroke:rgb(0%,0%,0%);stroke-opacity:1;stroke-miterlimit:10;" d="M 132.117188 81.519531 C 132.117188 84.125 128.207031 84.125 128.207031 81.519531 C 128.207031 78.914062 132.117188 78.914062 132.117188 81.519531 "/>
<path style="fill-rule:nonzero;fill:rgb(0%,0%,0%);fill-opacity:1;stroke-width:0.708661;stroke-linecap:round;stroke-linejoin:round;stroke:rgb(0%,0%,0%);stroke-opacity:1;stroke-miterlimit:10;" d="M 125.183594 173.214844 C 125.183594 175.820312 121.273438 175.820312 121.273438 173.214844 C 121.273438 170.609375 125.183594 170.609375 125.183594 173.214844 "/>
<path style="fill-rule:nonzero;fill:rgb(0%,0%,0%);fill-opacity:1;stroke-width:0.708661;stroke-linecap:round;stroke-linejoin:round;stroke:rgb(0%,0%,0%);stroke-opacity:1;stroke-miterlimit:10;" d="M 102.625 157.472656 C 102.625 160.078125 98.714844 160.078125 98.714844 157.472656 C 98.714844 154.863281 102.625 154.863281 102.625 157.472656 "/>
<path style="fill-rule:nonzero;fill:rgb(0%,0%,0%);fill-opacity:1;stroke-width:0.708661;stroke-linecap:round;stroke-linejoin:round;stroke:rgb(0%,0%,0%);stroke-opacity:1;stroke-miterlimit:10;" d="M 190.277344 185.4375 C 190.277344 188.042969 186.367188 188.042969 186.367188 185.4375 C 186.367188 182.832031 190.277344 182.832031 190.277344 185.4375 "/>
</g>
</svg>
