<?xml version="1.0" encoding="UTF-8"?>
<svg xmlns="http://www.w3.org/2000/svg" xmlns:xlink="http://www.w3.org/1999/xlink" width="288pt" height="288pt" viewBox="0 0 288 288" version="1.1">
<defs>
<clipPath id="clip1">
  <path d="M 8.21875 248 L 282.519531 248 L 282.519531 250 L 8.21875 250 Z M 8.21875 248 "/>
</clipPath>
<clipPath id="clip2">
  <path d="M 8.21875 182 L 282.519531 182 L 282.519531 184 L 8.21875 184 Z M 8.21875 182 "/>
</clipPath>
<clipPath id="clip3">
  <path d="M 8.21875 116 L 282.519531 116 L 282.519531 117 L 8.21875 117 Z M 8.21875 116 "/>
</clipPath>
<clipPath id="clip4">
  <path d="M 8.21875 49 L 282.519531 49 L 282.519531 51 L 8.21875 51 Z M 8.21875 49 "/>
</clipPath>
<clipPath id="clip5">
  <path d="M 52 5.480469 L 54 5.480469 L 54 279.78125 L 52 279.78125 Z M 52 5.480469 "/>
</clipPath>
<clipPath id="clip6">
  <path d="M 119 5.480469 L 120 5.480469 L 120 279.78125 L 119 279.78125 Z M 119 5.480469 "/>
</clipPath>
<clipPath id="clip7">
  <path d="M 185 5.480469 L 187 5.480469 L 187 279.78125 L 185 279.78125 Z M 185 5.480469 "/>
</clipPath>
<clipPath id="clip8">
  <path d="M 252 5.480469 L 253 5.480469 L 253 279.78125 L 252 279.78125 Z M 252 5.480469 "/>
</clipPath>
<clipPath id="clip9">
  <path d="M 8.21875 215 L 282.519531 215 L 282.519531 217 L 8.21875 217 Z M 8.21875 215 "/>
</clipPath>
<clipPath id="clip10">
  <path d="M 8.21875 149 L 282.519531 149 L 282.519531 151 L 8.21875 151 Z M 8.21875 149 "/>
</clipPath>
<clipPath id="clip11">
  <path d="M 8.21875 82 L 282.519531 82 L 282.519531 84 L 8.21875 84 Z M 8.21875 82 "/>
</clipPath>
<clipPath id="clip12">
  <path d="M 8.21875 16 L 282.519531 16 L 282.519531 18 L 8.21875 18 Z M 8.21875 16 "/>
</clipPath>
<clipPath id="clip13">
  <path d="M 19 5.480469 L 21 5.480469 L 21 279.78125 L 19 279.78125 Z M 19 5.480469 "/>
</clipPath>
<clipPath id="clip14">
  <path d="M 85 5.480469 L 87 5.480469 L 87 279.78125 L 85 279.78125 Z M 85 5.480469 "/>
</clipPath>
<clipPath id="clip15">
  <path d="M 152 5.480469 L 154 5.480469 L 154 279.78125 L 152 279.78125 Z M 152 5.480469 "/>
</clipPath>
<clipPath id="clip16">
  <path d="M 218 5.480469 L 220 5.480469 L 220 279.78125 L 218 279.78125 Z M 218 5.480469 "/>
</clipPath>
</defs>
<g id="surface4">
<rect x="0" y="0" width="288" height="288" style="fill:rgb(100%,100%,100%);fill-opacity:1;stroke:none;"/>
<g clip-path="url(#clip1)" clip-rule="nonzero">
<path style="fill:none;stroke-width:0.533489;stroke-linecap:butt;stroke-linejoin:round;stroke:rgb(92.156863%,92.156863%,92.156863%);stroke-opacity:1;stroke-miterlimit:10;" d="M 8.21875 249.117188 L 282.519531 249.117188 "/>
</g>
<g clip-path="url(#clip2)" clip-rule="nonzero">
<path style="fill:none;stroke-width:0.533489;stroke-linecap:butt;stroke-linejoin:round;stroke:rgb(92.156863%,92.156863%,92.156863%);stroke-opacity:1;stroke-miterlimit:10;" d="M 8.21875 182.75 L 282.519531 182.75 "/>
</g>
<g clip-path="url(#clip3)" clip-rule="nonzero">
<path style="fill:none;stroke-width:0.533489;stroke-linecap:butt;stroke-linejoin:round;stroke:rgb(92.156863%,92.156863%,92.156863%);stroke-opacity:1;stroke-miterlimit:10;" d="M 8.21875 116.382812 L 282.519531 116.382812 "/>
</g>
<g clip-path="url(#clip4)" clip-rule="nonzero">
<path style="fill:none;stroke-width:0.533489;stroke-linecap:butt;stroke-linejoin:round;stroke:rgb(92.156863%,92.156863%,92.156863%);stroke-opacity:1;stroke-miterlimit:10;" d="M 8.21875 50.015625 L 282.519531 50.015625 "/>
</g>
<g clip-path="url(#clip5)" clip-rule="nonzero">
<path style="fill:none;stroke-width:0.533489;stroke-linecap:butt;stroke-linejoin:round;stroke:rgb(92.156863%,92.156863%,92.156863%);stroke-opacity:1;stroke-miterlimit:10;" d="M 53.214844 279.78125 L 53.214844 5.480469 "/>
</g>
<g clip-path="url(#clip6)" clip-rule="nonzero">
<path style="fill:none;stroke-width:0.533489;stroke-linecap:butt;stroke-linejoin:round;stroke:rgb(92.156863%,92.156863%,92.156863%);stroke-opacity:1;stroke-miterlimit:10;" d="M 119.667969 279.78125 L 119.667969 5.480469 "/>
</g>
<g clip-path="url(#clip7)" clip-rule="nonzero">
<path style="fill:none;stroke-width:0.533489;stroke-linecap:butt;stroke-linejoin:round;stroke:rgb(92.156863%,92.156863%,92.156863%);stroke-opacity:1;stroke-miterlimit:10;" d="M 186.121094 279.78125 L 186.121094 5.480469 "/>
</g>
<g clip-path="url(#clip8)" clip-rule="nonzero">
<path style="fill:none;stroke-width:0.533489;stroke-linecap:butt;stroke-linejoin:round;stroke:rgb(92.156863%,92.156863%,92.156863%);stroke-opacity:1;stroke-miterlimit:10;" d="M 252.574219 279.78125 L 252.574219 5.480469 "/>
</g>
<g clip-path="url(#clip9)" clip-rule="nonzero">
<path style="fill:none;stroke-width:1.066978;stroke-linecap:butt;stroke-linejoin:round;stroke:rgb(92.156863%,92.156863%,92.156863%);stroke-opacity:1;stroke-miterlimit:10;" d="M 8.21875 215.933594 L 282.519531 215.933594 "/>
</g>
<g clip-path="url(#clip10)" clip-rule="nonzero">
<path style="fill:none;stroke-width:1.066978;stroke-linecap:butt;stroke-linejoin:round;stroke:rgb(92.156863%,92.156863%,92.156863%);stroke-opacity:1;stroke-miterlimit:10;" d="M 8.21875 149.566406 L 282.519531 149.566406 "/>
</g>
<g clip-path="url(#clip11)" clip-rule="nonzero">
<path style="fill:none;stroke-width:1.066978;stroke-linecap:butt;stroke-linejoin:round;stroke:rgb(92.156863%,92.156863%,92.156863%);stroke-opacity:1;stroke-miterlimit:10;" d="M 8.21875 83.199219 L 282.519531 83.199219 "/>
</g>
<g clip-path="url(#clip12)" clip-rule="nonzero">
<path style="fill:none;stroke-width:1.066978;stroke-linecap:butt;stroke-linejoin:round;stroke:rgb(92.156863%,92.156863%,92.156863%);stroke-opacity:1;stroke-miterlimit:10;" d="M 8.21875 16.832031 L 282.519531 16.832031 "/>
</g>
<g clip-path="url(#clip13)" clip-rule="nonzero">
<path style="fill:none;stroke-width:1.066978;stroke-linecap:butt;stroke-linejoin:round;stroke:rgb(92.156863%,92.156863%,92.156863%);stroke-opacity:1;stroke-miterlimit:10;" d="M 19.992188 279.78125 L 19.992188 5.480469 "/>
</g>
<g clip-path="url(#clip14)" clip-rule="nonzero">
<path style="fill:none;stroke-width:1.066978;stroke-linecap:butt;stroke-linejoin:round;stroke:rgb(92.156863%,92.156863%,92.156863%);stroke-opacity:1;stroke-miterlimit:10;" d="M 86.441406 279.78125 L 86.441406 5.480469 "/>
</g>
<g clip-path="url(#clip15)" clip-rule="nonzero">
<path style="fill:none;stroke-width:1.066978;stroke-linecap:butt;stroke-linejoin:round;stroke:rgb(92.156863%,92.156863%,92.156863%);stroke-opacity:1;stroke-miterlimit:10;" d="M 152.894531 279.78125 L 152.894531 5.480469 "/>
</g>
<g clip-path="url(#clip16)" clip-rule="nonzero">
<path style="fill:none;stroke-width:1.066978;stroke-linecap:butt;stroke-linejoin:round;stroke:rgb(92.156863%,92.156863%,92.156863%);stroke-opacity:1;stroke-miterlimit:10;" d="M 219.347656 279.78125 L 219.347656 5.480469 "/>
</g>
<path style="fill-rule:nonzero;fill:rgb(0%,0%,0%);fill-opacity:1;stroke-width:0.708661;stroke-linecap:round;stroke-linejoin:round;stroke:rgb(0%,0%,0%);stroke-opacity:1;stroke-miterlimit:10;" d="M 113.964844 29.464844 C 113.964844 32.070312 110.054688 32.070312 110.054688 29.464844 C 110.054688 26.859375 113.964844 26.859375 113.964844 29.464844 "/>
<path style="fill-rule:nonzero;fill:rgb(0%,0%,0%);fill-opacity:1;stroke-width:0.708661;stroke-linecap:round;stroke-linejoin:round;stroke:rgb(0%,0%,0%);stroke-opacity:1;stroke-miterlimit:10;" d="M 103.714844 35.214844 C 103.714844 37.820312 99.804688 37.820312 99.804688 35.214844 C 99.804688 32.605469 103.714844 32.605469 103.714844 35.214844 "/>
<path style="fill-rule:nonzero;fill:rgb(0%,0%,0%);fill-opacity:1;stroke-width:0.708661;stroke-linecap:round;stroke-linejoin:round;stroke:rgb(0%,0%,0%);stroke-opacity:1;stroke-miterlimit:10;" d="M 101.210938 32.53125 C 101.210938 35.136719 97.300781 35.136719 97.300781 32.53125 C 97.300781 29.925781 101.210938 29.925781 101.210938 32.53125 "/>
<path style="fill-rule:nonzero;fill:rgb(0%,0%,0%);fill-opacity:1;stroke-width:0.708661;stroke-linecap:round;stroke-linejoin:round;stroke:rgb(0%,0%,0%);stroke-opacity:1;stroke-miterlimit:10;" d="M 93.644531 42.574219 C 93.644531 45.179688 89.734375 45.179688 89.734375 42.574219 C 89.734375 39.964844 93.644531 39.964844 93.644531 42.574219 "/>
<path style="fill-rule:nonzero;fill:rgb(0%,0%,0%);fill-opacity:1;stroke-width:0.708661;stroke-linecap:round;stroke-linejoin:round;stroke:rgb(0%,0%,0%);stroke-opacity:1;stroke-miterlimit:10;" d="M 118.890625 25.828125 C 118.890625 28.4375 114.980469 28.4375 114.980469 25.828125 C 114.980469 23.222656 118.890625 23.222656 118.890625 25.828125 "/>
<path style="fill-rule:nonzero;fill:rgb(0%,0%,0%);fill-opacity:1;stroke-width:0.708661;stroke-linecap:round;stroke-linejoin:round;stroke:rgb(0%,0%,0%);stroke-opacity:1;stroke-miterlimit:10;" d="M 97.210938 41.890625 C 97.210938 44.496094 93.300781 44.496094 93.300781 41.890625 C 93.300781 39.285156 97.210938 39.285156 97.210938 41.890625 "/>
<path style="fill-rule:nonzero;fill:rgb(0%,0%,0%);fill-opacity:1;stroke-width:0.708661;stroke-linecap:round;stroke-linejoin:round;stroke:rgb(0%,0%,0%);stroke-opacity:1;stroke-miterlimit:10;" d="M 55.582031 66.886719 C 55.582031 69.492188 51.671875 69.492188 51.671875 66.886719 C 51.671875 64.28125 55.582031 64.28125 55.582031 66.886719 "/>
<path style="fill-rule:nonzero;fill:rgb(0%,0%,0%);fill-opacity:1;stroke-width:0.708661;stroke-linecap:round;stroke-linejoin:round;stroke:rgb(0%,0%,0%);stroke-opacity:1;stroke-miterlimit:10;" d="M 61.535156 70.480469 C 61.535156 73.089844 57.625 73.089844 57.625 70.480469 C 57.625 67.875 61.535156 67.875 61.535156 70.480469 "/>
<path style="fill-rule:nonzero;fill:rgb(0%,0%,0%);fill-opacity:1;stroke-width:0.708661;stroke-linecap:round;stroke-linejoin:round;stroke:rgb(0%,0%,0%);stroke-opacity:1;stroke-miterlimit:10;" d="M 48.152344 82.015625 C 48.152344 84.621094 44.242188 84.621094 44.242188 82.015625 C 44.242188 79.410156 48.152344 79.410156 48.152344 82.015625 "/>
<path style="fill-rule:nonzero;fill:rgb(0%,0%,0%);fill-opacity:1;stroke-width:0.708661;stroke-linecap:round;stroke-linejoin:round;stroke:rgb(0%,0%,0%);stroke-opacity:1;stroke-miterlimit:10;" d="M 47.023438 82.761719 C 47.023438 85.367188 43.117188 85.367188 43.117188 82.761719 C 43.117188 80.15625 47.023438 80.15625 47.023438 82.761719 "/>
<path style="fill-rule:nonzero;fill:rgb(0%,0%,0%);fill-opacity:1;stroke-width:0.708661;stroke-linecap:round;stroke-linejoin:round;stroke:rgb(0%,0%,0%);stroke-opacity:1;stroke-miterlimit:10;" d="M 22.640625 103.066406 C 22.640625 105.671875 18.734375 105.671875 18.734375 103.066406 C 18.734375 100.457031 22.640625 100.457031 22.640625 103.066406 "/>
<path style="fill-rule:nonzero;fill:rgb(0%,0%,0%);fill-opacity:1;stroke-width:0.708661;stroke-linecap:round;stroke-linejoin:round;stroke:rgb(0%,0%,0%);stroke-opacity:1;stroke-miterlimit:10;" d="M 36.710938 137.691406 C 36.710938 140.296875 32.800781 140.296875 32.800781 137.691406 C 32.800781 135.082031 36.710938 135.082031 36.710938 137.691406 "/>
<path style="fill-rule:nonzero;fill:rgb(0%,0%,0%);fill-opacity:1;stroke-width:0.708661;stroke-linecap:round;stroke-linejoin:round;stroke:rgb(0%,0%,0%);stroke-opacity:1;stroke-miterlimit:10;" d="M 37.332031 140.550781 C 37.332031 143.15625 33.421875 143.15625 33.421875 140.550781 C 33.421875 137.945312 37.332031 137.945312 37.332031 140.550781 "/>
<path style="fill-rule:nonzero;fill:rgb(0%,0%,0%);fill-opacity:1;stroke-width:0.708661;stroke-linecap:round;stroke-linejoin:round;stroke:rgb(0%,0%,0%);stroke-opacity:1;stroke-miterlimit:10;" d="M 25.394531 150.019531 C 25.394531 152.625 21.484375 152.625 21.484375 150.019531 C 21.484375 147.414062 25.394531 147.414062 25.394531 150.019531 "/>
<path style="fill-rule:nonzero;fill:rgb(0%,0%,0%);fill-opacity:1;stroke-width:0.708661;stroke-linecap:round;stroke-linejoin:round;stroke:rgb(0%,0%,0%);stroke-opacity:1;stroke-miterlimit:10;" d="M 45.554688 137.035156 C 45.554688 139.644531 41.648438 139.644531 41.648438 137.035156 C 41.648438 134.429688 45.554688 134.429688 45.554688 137.035156 "/>
<path style="fill-rule:nonzero;fill:rgb(0%,0%,0%);fill-opacity:1;stroke-width:0.708661;stroke-linecap:round;stroke-linejoin:round;stroke:rgb(0%,0%,0%);stroke-opacity:1;stroke-miterlimit:10;" d="M 48.824219 121.660156 C 48.824219 124.265625 44.914062 124.265625 44.914062 121.660156 C 44.914062 119.054688 48.824219 119.054688 48.824219 121.660156 "/>
<path style="fill-rule:nonzero;fill:rgb(0%,0%,0%);fill-opacity:1;stroke-width:0.708661;stroke-linecap:round;stroke-linejoin:round;stroke:rgb(0%,0%,0%);stroke-opacity:1;stroke-miterlimit:10;" d="M 58.945312 119.21875 C 58.945312 121.824219 55.035156 121.824219 55.035156 119.21875 C 55.035156 116.613281 58.945312 116.613281 58.945312 119.21875 "/>
<path style="fill-rule:nonzero;fill:rgb(0%,0%,0%);fill-opacity:1;stroke-width:0.708661;stroke-linecap:round;stroke-linejoin:round;stroke:rgb(0%,0%,0%);stroke-opacity:1;stroke-miterlimit:10;" d="M 80.757812 100.671875 C 80.757812 103.277344 76.847656 103.277344 76.847656 100.671875 C 76.847656 98.066406 80.757812 98.066406 80.757812 100.671875 "/>
<path style="fill-rule:nonzero;fill:rgb(0%,0%,0%);fill-opacity:1;stroke-width:0.708661;stroke-linecap:round;stroke-linejoin:round;stroke:rgb(0%,0%,0%);stroke-opacity:1;stroke-miterlimit:10;" d="M 99.671875 166.5625 C 99.671875 169.167969 95.761719 169.167969 95.761719 166.5625 C 95.761719 163.957031 99.671875 163.957031 99.671875 166.5625 "/>
<path style="fill-rule:nonzero;fill:rgb(0%,0%,0%);fill-opacity:1;stroke-width:0.708661;stroke-linecap:round;stroke-linejoin:round;stroke:rgb(0%,0%,0%);stroke-opacity:1;stroke-miterlimit:10;" d="M 125.816406 150.453125 C 125.816406 153.058594 121.910156 153.058594 121.910156 150.453125 C 121.910156 147.84375 125.816406 147.84375 125.816406 150.453125 "/>
<path style="fill-rule:nonzero;fill:rgb(0%,0%,0%);fill-opacity:1;stroke-width:0.708661;stroke-linecap:round;stroke-linejoin:round;stroke:rgb(0%,0%,0%);stroke-opacity:1;stroke-miterlimit:10;" d="M 99.316406 167.996094 C 99.316406 170.605469 95.410156 170.605469 95.410156 167.996094 C 95.410156 165.390625 99.316406 165.390625 99.316406 167.996094 "/>
<path style="fill-rule:nonzero;fill:rgb(0%,0%,0%);fill-opacity:1;stroke-width:0.708661;stroke-linecap:round;stroke-linejoin:round;stroke:rgb(0%,0%,0%);stroke-opacity:1;stroke-miterlimit:10;" d="M 141.246094 138.277344 C 141.246094 140.882812 137.335938 140.882812 137.335938 138.277344 C 137.335938 135.671875 141.246094 135.671875 141.246094 138.277344 "/>
<path style="fill-rule:nonzero;fill:rgb(0%,0%,0%);fill-opacity:1;stroke-width:0.708661;stroke-linecap:round;stroke-linejoin:round;stroke:rgb(0%,0%,0%);stroke-opacity:1;stroke-miterlimit:10;" d="M 122.285156 143.660156 C 122.285156 146.265625 118.375 146.265625 118.375 143.660156 C 118.375 141.054688 122.285156 141.054688 122.285156 143.660156 "/>
<path style="fill-rule:nonzero;fill:rgb(0%,0%,0%);fill-opacity:1;stroke-width:0.708661;stroke-linecap:round;stroke-linejoin:round;stroke:rgb(0%,0%,0%);stroke-opacity:1;stroke-miterlimit:10;" d="M 140.765625 138.867188 C 140.765625 141.472656 136.859375 141.472656 136.859375 138.867188 C 136.859375 136.261719 140.765625 136.261719 140.765625 138.867188 "/>
<path style="fill-rule:nonzero;fill:rgb(0%,0%,0%);fill-opacity:1;stroke-width:0.708661;stroke-linecap:round;stroke-linejoin:round;stroke:rgb(0%,0%,0%);stroke-opacity:1;stroke-miterlimit:10;" d="M 149.277344 122.9375 C 149.277344 125.542969 145.367188 125.542969 145.367188 122.9375 C 145.367188 120.332031 149.277344 120.332031 149.277344 122.9375 "/>
<path style="fill-rule:nonzero;fill:rgb(0%,0%,0%);fill-opacity:1;stroke-width:0.708661;stroke-linecap:round;stroke-linejoin:round;stroke:rgb(0%,0%,0%);stroke-opacity:1;stroke-miterlimit:10;" d="M 188.644531 95.722656 C 188.644531 98.328125 184.734375 98.328125 184.734375 95.722656 C 184.734375 93.117188 188.644531 93.117188 188.644531 95.722656 "/>
<path style="fill-rule:nonzero;fill:rgb(0%,0%,0%);fill-opacity:1;stroke-width:0.708661;stroke-linecap:round;stroke-linejoin:round;stroke:rgb(0%,0%,0%);stroke-opacity:1;stroke-miterlimit:10;" d="M 156.84375 123.675781 C 156.84375 126.28125 152.933594 126.28125 152.933594 123.675781 C 152.933594 121.066406 156.84375 121.066406 156.84375 123.675781 "/>
<path style="fill-rule:nonzero;fill:rgb(0%,0%,0%);fill-opacity:1;stroke-width:0.708661;stroke-linecap:round;stroke-linejoin:round;stroke:rgb(0%,0%,0%);stroke-opacity:1;stroke-miterlimit:10;" d="M 167.34375 119.871094 C 167.34375 122.476562 163.433594 122.476562 163.433594 119.871094 C 163.433594 117.265625 167.34375 117.265625 167.34375 119.871094 "/>
<path style="fill-rule:nonzero;fill:rgb(0%,0%,0%);fill-opacity:1;stroke-width:0.708661;stroke-linecap:round;stroke-linejoin:round;stroke:rgb(0%,0%,0%);stroke-opacity:1;stroke-miterlimit:10;" d="M 136.207031 139.445312 C 136.207031 142.054688 132.296875 142.054688 132.296875 139.445312 C 132.296875 136.839844 136.207031 136.839844 136.207031 139.445312 "/>
<path style="fill-rule:nonzero;fill:rgb(0%,0%,0%);fill-opacity:1;stroke-width:0.708661;stroke-linecap:round;stroke-linejoin:round;stroke:rgb(0%,0%,0%);stroke-opacity:1;stroke-miterlimit:10;" d="M 139.039062 142.679688 C 139.039062 145.289062 135.128906 145.289062 135.128906 142.679688 C 135.128906 140.074219 139.039062 140.074219 139.039062 142.679688 "/>
<path style="fill-rule:nonzero;fill:rgb(0%,0%,0%);fill-opacity:1;stroke-width:0.708661;stroke-linecap:round;stroke-linejoin:round;stroke:rgb(0%,0%,0%);stroke-opacity:1;stroke-miterlimit:10;" d="M 118.535156 152.496094 C 118.535156 155.101562 114.625 155.101562 114.625 152.496094 C 114.625 149.886719 118.535156 149.886719 118.535156 152.496094 "/>
<path style="fill-rule:nonzero;fill:rgb(0%,0%,0%);fill-opacity:1;stroke-width:0.708661;stroke-linecap:round;stroke-linejoin:round;stroke:rgb(0%,0%,0%);stroke-opacity:1;stroke-miterlimit:10;" d="M 108.394531 159.5 C 108.394531 162.105469 104.484375 162.105469 104.484375 159.5 C 104.484375 156.894531 108.394531 156.894531 108.394531 159.5 "/>
<path style="fill-rule:nonzero;fill:rgb(0%,0%,0%);fill-opacity:1;stroke-width:0.708661;stroke-linecap:round;stroke-linejoin:round;stroke:rgb(0%,0%,0%);stroke-opacity:1;stroke-miterlimit:10;" d="M 104.210938 170.871094 C 104.210938 173.476562 100.300781 173.476562 100.300781 170.871094 C 100.300781 168.265625 104.210938 168.265625 104.210938 170.871094 "/>
<path style="fill-rule:nonzero;fill:rgb(0%,0%,0%);fill-opacity:1;stroke-width:0.708661;stroke-linecap:round;stroke-linejoin:round;stroke:rgb(0%,0%,0%);stroke-opacity:1;stroke-miterlimit:10;" d="M 126.941406 149.480469 C 126.941406 152.085938 123.03125 152.085938 123.03125 149.480469 C 123.03125 146.875 126.941406 146.875 126.941406 149.480469 "/>
<path style="fill-rule:nonzero;fill:rgb(0%,0%,0%);fill-opacity:1;stroke-width:0.708661;stroke-linecap:round;stroke-linejoin:round;stroke:rgb(0%,0%,0%);stroke-opacity:1;stroke-miterlimit:10;" d="M 76.65625 187.996094 C 76.65625 190.601562 72.746094 190.601562 72.746094 187.996094 C 72.746094 185.386719 76.65625 185.386719 76.65625 187.996094 "/>
<path style="fill-rule:nonzero;fill:rgb(0%,0%,0%);fill-opacity:1;stroke-width:0.708661;stroke-linecap:round;stroke-linejoin:round;stroke:rgb(0%,0%,0%);stroke-opacity:1;stroke-miterlimit:10;" d="M 66.449219 189.339844 C 66.449219 191.949219 62.542969 191.949219 62.542969 189.339844 C 62.542969 186.734375 66.449219 186.734375 66.449219 189.339844 "/>
<path style="fill-rule:nonzero;fill:rgb(0%,0%,0%);fill-opacity:1;stroke-width:0.708661;stroke-linecap:round;stroke-linejoin:round;stroke:rgb(0%,0%,0%);stroke-opacity:1;stroke-miterlimit:10;" d="M 80.355469 179.214844 C 80.355469 181.820312 76.449219 181.820312 76.449219 179.214844 C 76.449219 176.609375 80.355469 176.609375 80.355469 179.214844 "/>
<path style="fill-rule:nonzero;fill:rgb(0%,0%,0%);fill-opacity:1;stroke-width:0.708661;stroke-linecap:round;stroke-linejoin:round;stroke:rgb(0%,0%,0%);stroke-opacity:1;stroke-miterlimit:10;" d="M 77.167969 184.578125 C 77.167969 187.183594 73.257812 187.183594 73.257812 184.578125 C 73.257812 181.972656 77.167969 181.972656 77.167969 184.578125 "/>
<path style="fill-rule:nonzero;fill:rgb(0%,0%,0%);fill-opacity:1;stroke-width:0.708661;stroke-linecap:round;stroke-linejoin:round;stroke:rgb(0%,0%,0%);stroke-opacity:1;stroke-miterlimit:10;" d="M 75.648438 192.519531 C 75.648438 195.128906 71.742188 195.128906 71.742188 192.519531 C 71.742188 189.914062 75.648438 189.914062 75.648438 192.519531 "/>
<path style="fill-rule:nonzero;fill:rgb(0%,0%,0%);fill-opacity:1;stroke-width:0.708661;stroke-linecap:round;stroke-linejoin:round;stroke:rgb(0%,0%,0%);stroke-opacity:1;stroke-miterlimit:10;" d="M 65.695312 199.347656 C 65.695312 201.953125 61.785156 201.953125 61.785156 199.347656 C 61.785156 196.742188 65.695312 196.742188 65.695312 199.347656 "/>
<path style="fill-rule:nonzero;fill:rgb(0%,0%,0%);fill-opacity:1;stroke-width:0.708661;stroke-linecap:round;stroke-linejoin:round;stroke:rgb(0%,0%,0%);stroke-opacity:1;stroke-miterlimit:10;" d="M 97.1875 175.703125 C 97.1875 178.308594 93.277344 178.308594 93.277344 175.703125 C 93.277344 173.097656 97.1875 173.097656 97.1875 175.703125 "/>
<path style="fill-rule:nonzero;fill:rgb(0%,0%,0%);fill-opacity:1;stroke-width:0.708661;stroke-linecap:round;stroke-linejoin:round;stroke:rgb(0%,0%,0%);stroke-opacity:1;stroke-miterlimit:10;" d="M 112.402344 163.964844 C 112.402344 166.574219 108.492188 166.574219 108.492188 163.964844 C 108.492188 161.359375 112.402344 161.359375 112.402344 163.964844 "/>
<path style="fill-rule:nonzero;fill:rgb(0%,0%,0%);fill-opacity:1;stroke-width:0.708661;stroke-linecap:round;stroke-linejoin:round;stroke:rgb(0%,0%,0%);stroke-opacity:1;stroke-miterlimit:10;" d="M 116.28125 148.6875 C 116.28125 151.292969 112.371094 151.292969 112.371094 148.6875 C 112.371094 146.078125 116.28125 146.078125 116.28125 148.6875 "/>
<path style="fill-rule:nonzero;fill:rgb(0%,0%,0%);fill-opacity:1;stroke-width:0.708661;stroke-linecap:round;stroke-linejoin:round;stroke:rgb(0%,0%,0%);stroke-opacity:1;stroke-miterlimit:10;" d="M 46.019531 203.140625 C 46.019531 205.746094 42.109375 205.746094 42.109375 203.140625 C 42.109375 200.53125 46.019531 200.53125 46.019531 203.140625 "/>
<path style="fill-rule:nonzero;fill:rgb(0%,0%,0%);fill-opacity:1;stroke-width:0.708661;stroke-linecap:round;stroke-linejoin:round;stroke:rgb(0%,0%,0%);stroke-opacity:1;stroke-miterlimit:10;" d="M 56.515625 205.101562 C 56.515625 207.710938 52.605469 207.710938 52.605469 205.101562 C 52.605469 202.496094 56.515625 202.496094 56.515625 205.101562 "/>
<path style="fill-rule:nonzero;fill:rgb(0%,0%,0%);fill-opacity:1;stroke-width:0.708661;stroke-linecap:round;stroke-linejoin:round;stroke:rgb(0%,0%,0%);stroke-opacity:1;stroke-miterlimit:10;" d="M 55.441406 209.0625 C 55.441406 211.667969 51.53125 211.667969 51.53125 209.0625 C 51.53125 206.457031 55.441406 206.457031 55.441406 209.0625 "/>
<path style="fill-rule:nonzero;fill:rgb(0%,0%,0%);fill-opacity:1;stroke-width:0.708661;stroke-linecap:round;stroke-linejoin:round;stroke:rgb(0%,0%,0%);stroke-opacity:1;stroke-miterlimit:10;" d="M 68.398438 189.296875 C 68.398438 191.90625 64.488281 191.90625 64.488281 189.296875 C 64.488281 186.691406 68.398438 186.691406 68.398438 189.296875 "/>
<path style="fill-rule:nonzero;fill:rgb(0%,0%,0%);fill-opacity:1;stroke-width:0.708661;stroke-linecap:round;stroke-linejoin:round;stroke:rgb(0%,0%,0%);stroke-opacity:1;stroke-miterlimit:10;" d="M 69.292969 190.867188 C 69.292969 193.476562 65.386719 193.476562 65.386719 190.867188 C 65.386719 188.261719 69.292969 188.261719 69.292969 190.867188 "/>
<path style="fill-rule:nonzero;fill:rgb(0%,0%,0%);fill-opacity:1;stroke-width:0.708661;stroke-linecap:round;stroke-linejoin:round;stroke:rgb(0%,0%,0%);stroke-opacity:1;stroke-miterlimit:10;" d="M 125.414062 227.566406 C 125.414062 230.171875 121.503906 230.171875 121.503906 227.566406 C 121.503906 224.957031 125.414062 224.957031 125.414062 227.566406 "/>
<path style="fill-rule:nonzero;fill:rgb(0%,0%,0%);fill-opacity:1;stroke-width:0.708661;stroke-linecap:round;stroke-linejoin:round;stroke:rgb(0%,0%,0%);stroke-opacity:1;stroke-miterlimit:10;" d="M 121.289062 230.363281 C 121.289062 232.96875 117.378906 232.96875 117.378906 230.363281 C 117.378906 227.757812 121.289062 227.757812 121.289062 230.363281 "/>
<path style="fill-rule:nonzero;fill:rgb(0%,0%,0%);fill-opacity:1;stroke-width:0.708661;stroke-linecap:round;stroke-linejoin:round;stroke:rgb(0%,0%,0%);stroke-opacity:1;stroke-miterlimit:10;" d="M 140.195312 212.484375 C 140.195312 215.089844 136.289062 215.089844 136.289062 212.484375 C 136.289062 209.878906 140.195312 209.878906 140.195312 212.484375 "/>
<path style="fill-rule:nonzero;fill:rgb(0%,0%,0%);fill-opacity:1;stroke-width:0.708661;stroke-linecap:round;stroke-linejoin:round;stroke:rgb(0%,0%,0%);stroke-opacity:1;stroke-miterlimit:10;" d="M 139.839844 221.699219 C 139.839844 224.308594 135.929688 224.308594 135.929688 221.699219 C 135.929688 219.09375 139.839844 219.09375 139.839844 221.699219 "/>
<path style="fill-rule:nonzero;fill:rgb(0%,0%,0%);fill-opacity:1;stroke-width:0.708661;stroke-linecap:round;stroke-linejoin:round;stroke:rgb(0%,0%,0%);stroke-opacity:1;stroke-miterlimit:10;" d="M 166.722656 194.859375 C 166.722656 197.464844 162.8125 197.464844 162.8125 194.859375 C 162.8125 192.253906 166.722656 192.253906 166.722656 194.859375 "/>
<path style="fill-rule:nonzero;fill:rgb(0%,0%,0%);fill-opacity:1;stroke-width:0.708661;stroke-linecap:round;stroke-linejoin:round;stroke:rgb(0%,0%,0%);stroke-opacity:1;stroke-miterlimit:10;" d="M 151.609375 207.113281 C 151.609375 209.71875 147.699219 209.71875 147.699219 207.113281 C 147.699219 204.507812 151.609375 204.507812 151.609375 207.113281 "/>
<path style="fill-rule:nonzero;fill:rgb(0%,0%,0%);fill-opacity:1;stroke-width:0.708661;stroke-linecap:round;stroke-linejoin:round;stroke:rgb(0%,0%,0%);stroke-opacity:1;stroke-miterlimit:10;" d="M 162.902344 193.402344 C 162.902344 196.011719 158.992188 196.011719 158.992188 193.402344 C 158.992188 190.796875 162.902344 190.796875 162.902344 193.402344 "/>
<path style="fill-rule:nonzero;fill:rgb(0%,0%,0%);fill-opacity:1;stroke-width:0.708661;stroke-linecap:round;stroke-linejoin:round;stroke:rgb(0%,0%,0%);stroke-opacity:1;stroke-miterlimit:10;" d="M 114.480469 153.398438 C 114.480469 156.003906 110.570312 156.003906 110.570312 153.398438 C 110.570312 150.792969 114.480469 150.792969 114.480469 153.398438 "/>
<path style="fill-rule:nonzero;fill:rgb(0%,0%,0%);fill-opacity:1;stroke-width:0.708661;stroke-linecap:round;stroke-linejoin:round;stroke:rgb(0%,0%,0%);stroke-opacity:1;stroke-miterlimit:10;" d="M 129.160156 142.117188 C 129.160156 144.726562 125.25 144.726562 125.25 142.117188 C 125.25 139.511719 129.160156 139.511719 129.160156 142.117188 "/>
<path style="fill-rule:nonzero;fill:rgb(0%,0%,0%);fill-opacity:1;stroke-width:0.708661;stroke-linecap:round;stroke-linejoin:round;stroke:rgb(0%,0%,0%);stroke-opacity:1;stroke-miterlimit:10;" d="M 184.257812 177.246094 C 184.257812 179.851562 180.347656 179.851562 180.347656 177.246094 C 180.347656 174.640625 184.257812 174.640625 184.257812 177.246094 "/>
<path style="fill-rule:nonzero;fill:rgb(0%,0%,0%);fill-opacity:1;stroke-width:0.708661;stroke-linecap:round;stroke-linejoin:round;stroke:rgb(0%,0%,0%);stroke-opacity:1;stroke-miterlimit:10;" d="M 173.710938 189.097656 C 173.710938 191.703125 169.800781 191.703125 169.800781 189.097656 C 169.800781 186.488281 173.710938 186.488281 173.710938 189.097656 "/>
<path style="fill-rule:nonzero;fill:rgb(0%,0%,0%);fill-opacity:1;stroke-width:0.708661;stroke-linecap:round;stroke-linejoin:round;stroke:rgb(0%,0%,0%);stroke-opacity:1;stroke-miterlimit:10;" d="M 213.816406 156.542969 C 213.816406 159.148438 209.90625 159.148438 209.90625 156.542969 C 209.90625 153.9375 213.816406 153.9375 213.816406 156.542969 "/>
<path style="fill-rule:nonzero;fill:rgb(0%,0%,0%);fill-opacity:1;stroke-width:0.708661;stroke-linecap:round;stroke-linejoin:round;stroke:rgb(0%,0%,0%);stroke-opacity:1;stroke-miterlimit:10;" d="M 222.476562 155.40625 C 222.476562 158.011719 218.566406 158.011719 218.566406 155.40625 C 218.566406 152.800781 222.476562 152.800781 222.476562 155.40625 "/>
<path style="fill-rule:nonzero;fill:rgb(0%,0%,0%);fill-opacity:1;stroke-width:0.708661;stroke-linecap:round;stroke-linejoin:round;stroke:rgb(0%,0%,0%);stroke-opacity:1;stroke-miterlimit:10;" d="M 155.972656 114.960938 C 155.972656 117.570312 152.0625 117.570312 152.0625 114.960938 C 152.0625 112.355469 155.972656 112.355469 155.972656 114.960938 "/>
<path style="fill-rule:nonzero;fill:rgb(0%,0%,0%);fill-opacity:1;stroke-width:0.708661;stroke-linecap:round;stroke-linejoin:round;stroke:rgb(0%,0%,0%);stroke-opacity:1;stroke-miterlimit:10;" d="M 160.359375 112.136719 C 160.359375 114.742188 156.453125 114.742188 156.453125 112.136719 C 156.453125 109.527344 160.359375 109.527344 160.359375 112.136719 "/>
<path style="fill-rule:nonzero;fill:rgb(0%,0%,0%);fill-opacity:1;stroke-width:0.708661;stroke-linecap:round;stroke-linejoin:round;stroke:rgb(0%,0%,0%);stroke-opacity:1;stroke-miterlimit:10;" d="M 193.210938 89.417969 C 193.210938 92.023438 189.300781 92.023438 189.300781 89.417969 C 189.300781 86.808594 193.210938 86.808594 193.210938 89.417969 "/>
<path style="fill-rule:nonzero;fill:rgb(0%,0%,0%);fill-opacity:1;stroke-width:0.708661;stroke-linecap:round;stroke-linejoin:round;stroke:rgb(0%,0%,0%);stroke-opacity:1;stroke-miterlimit:10;" d="M 118.4375 76.925781 C 118.4375 79.535156 114.527344 79.535156 114.527344 76.925781 C 114.527344 74.320312 118.4375 74.320312 118.4375 76.925781 "/>
<path style="fill-rule:nonzero;fill:rgb(0%,0%,0%);fill-opacity:1;stroke-width:0.708661;stroke-linecap:round;stroke-linejoin:round;stroke:rgb(0%,0%,0%);stroke-opacity:1;stroke-miterlimit:10;" d="M 127.894531 69.625 C 127.894531 72.230469 123.984375 72.230469 123.984375 69.625 C 123.984375 67.015625 127.894531 67.015625 127.894531 69.625 "/>
<path style="fill-rule:nonzero;fill:rgb(0%,0%,0%);fill-opacity:1;stroke-width:0.708661;stroke-linecap:round;stroke-linejoin:round;stroke:rgb(0%,0%,0%);stroke-opacity:1;stroke-miterlimit:10;" d="M 148.101562 55.707031 C 148.101562 58.3125 144.191406 58.3125 144.191406 55.707031 C 144.191406 53.101562 148.101562 53.101562 148.101562 55.707031 "/>
<path style="fill-rule:nonzero;fill:rgb(0%,0%,0%);fill-opacity:1;stroke-width:0.708661;stroke-linecap:round;stroke-linejoin:round;stroke:rgb(0%,0%,0%);stroke-opacity:1;stroke-miterlimit:10;" d="M 137.757812 59.882812 C 137.757812 62.488281 133.847656 62.488281 133.847656 59.882812 C 133.847656 57.273438 137.757812 57.273438 137.757812 59.882812 "/>
<path style="fill-rule:nonzero;fill:rgb(0%,0%,0%);fill-opacity:1;stroke-width:0.708661;stroke-linecap:round;stroke-linejoin:round;stroke:rgb(0%,0%,0%);stroke-opacity:1;stroke-miterlimit:10;" d="M 135.355469 59.851562 C 135.355469 62.460938 131.445312 62.460938 131.445312 59.851562 C 131.445312 57.246094 135.355469 57.246094 135.355469 59.851562 "/>
<path style="fill-rule:nonzero;fill:rgb(0%,0%,0%);fill-opacity:1;stroke-width:0.708661;stroke-linecap:round;stroke-linejoin:round;stroke:rgb(0%,0%,0%);stroke-opacity:1;stroke-miterlimit:10;" d="M 125.972656 69.5625 C 125.972656 72.167969 122.0625 72.167969 122.0625 69.5625 C 122.0625 66.957031 125.972656 66.957031 125.972656 69.5625 "/>
<path style="fill-rule:nonzero;fill:rgb(0%,0%,0%);fill-opacity:1;stroke-width:0.708661;stroke-linecap:round;stroke-linejoin:round;stroke:rgb(0%,0%,0%);stroke-opacity:1;stroke-miterlimit:10;" d="M 158.574219 46.820312 C 158.574219 49.425781 154.664062 49.425781 154.664062 46.820312 C 154.664062 44.210938 158.574219 44.210938 158.574219 46.820312 "/>
<path style="fill-rule:nonzero;fill:rgb(0%,0%,0%);fill-opacity:1;stroke-width:0.708661;stroke-linecap:round;stroke-linejoin:round;stroke:rgb(0%,0%,0%);stroke-opacity:1;stroke-miterlimit:10;" d="M 140.109375 54.5 C 140.109375 57.105469 136.199219 57.105469 136.199219 54.5 C 136.199219 51.894531 140.109375 51.894531 140.109375 54.5 "/>
<path style="fill-rule:nonzero;fill:rgb(0%,0%,0%);fill-opacity:1;stroke-width:0.708661;stroke-linecap:round;stroke-linejoin:round;stroke:rgb(0%,0%,0%);stroke-opacity:1;stroke-miterlimit:10;" d="M 138.382812 60.523438 C 138.382812 63.128906 134.472656 63.128906 134.472656 60.523438 C 134.472656 57.917969 138.382812 57.917969 138.382812 60.523438 "/>
<path style="fill-rule:nonzero;fill:rgb(0%,0%,0%);fill-opacity:1;stroke-width:0.708661;stroke-linecap:round;stroke-linejoin:round;stroke:rgb(0%,0%,0%);stroke-opacity:1;stroke-miterlimit:10;" d="M 123.097656 74.714844 C 123.097656 77.320312 119.191406 77.320312 119.191406 74.714844 C 119.191406 72.109375 123.097656 72.109375 123.097656 74.714844 "/>
<path style="fill-rule:nonzero;fill:rgb(0%,0%,0%);fill-opacity:1;stroke-width:0.708661;stroke-linecap:round;stroke-linejoin:round;stroke:rgb(0%,0%,0%);stroke-opacity:1;stroke-miterlimit:10;" d="M 101.117188 93.691406 C 101.117188 96.300781 97.207031 96.300781 97.207031 93.691406 C 97.207031 91.085938 101.117188 91.085938 101.117188 93.691406 "/>
<path style="fill-rule:nonzero;fill:rgb(0%,0%,0%);fill-opacity:1;stroke-width:0.708661;stroke-linecap:round;stroke-linejoin:round;stroke:rgb(0%,0%,0%);stroke-opacity:1;stroke-miterlimit:10;" d="M 81.058594 104.820312 C 81.058594 107.429688 77.148438 107.429688 77.148438 104.820312 C 77.148438 102.214844 81.058594 102.214844 81.058594 104.820312 "/>
<path style="fill-rule:nonzero;fill:rgb(0%,0%,0%);fill-opacity:1;stroke-width:0.708661;stroke-linecap:round;stroke-linejoin:round;stroke:rgb(0%,0%,0%);stroke-opacity:1;stroke-miterlimit:10;" d="M 52.820312 123.570312 C 52.820312 126.175781 48.910156 126.175781 48.910156 123.570312 C 48.910156 120.964844 52.820312 120.964844 52.820312 123.570312 "/>
<path style="fill-rule:nonzero;fill:rgb(0%,0%,0%);fill-opacity:1;stroke-width:0.708661;stroke-linecap:round;stroke-linejoin:round;stroke:rgb(0%,0%,0%);stroke-opacity:1;stroke-miterlimit:10;" d="M 62.453125 122.488281 C 62.453125 125.09375 58.546875 125.09375 58.546875 122.488281 C 58.546875 119.878906 62.453125 119.878906 62.453125 122.488281 "/>
<path style="fill-rule:nonzero;fill:rgb(0%,0%,0%);fill-opacity:1;stroke-width:0.708661;stroke-linecap:round;stroke-linejoin:round;stroke:rgb(0%,0%,0%);stroke-opacity:1;stroke-miterlimit:10;" d="M 126.386719 18.804688 C 126.386719 21.410156 122.480469 21.410156 122.480469 18.804688 C 122.480469 16.199219 126.386719 16.199219 126.386719 18.804688 "/>
<path style="fill-rule:nonzero;fill:rgb(0%,0%,0%);fill-opacity:1;stroke-width:0.708661;stroke-linecap:round;stroke-linejoin:round;stroke:rgb(0%,0%,0%);stroke-opacity:1;stroke-miterlimit:10;" d="M 179.648438 27.449219 C 179.648438 30.058594 175.742188 30.058594 175.742188 27.449219 C 175.742188 24.84375 179.648438 24.84375 179.648438 27.449219 "/>
<path style="fill-rule:nonzero;fill:rgb(0%,0%,0%);fill-opacity:1;stroke-width:0.708661;stroke-linecap:round;stroke-linejoin:round;stroke:rgb(0%,0%,0%);stroke-opacity:1;stroke-miterlimit:10;" d="M 171.964844 36.734375 C 171.964844 39.339844 168.054688 39.339844 168.054688 36.734375 C 168.054688 34.128906 171.964844 34.128906 171.964844 36.734375 "/>
<path style="fill-rule:nonzero;fill:rgb(0%,0%,0%);fill-opacity:1;stroke-width:0.708661;stroke-linecap:round;stroke-linejoin:round;stroke:rgb(0%,0%,0%);stroke-opacity:1;stroke-miterlimit:10;" d="M 173.402344 34.042969 C 173.402344 36.648438 169.492188 36.648438 169.492188 34.042969 C 169.492188 31.433594 173.402344 31.433594 173.402344 34.042969 "/>
<path style="fill-rule:nonzero;fill:rgb(0%,0%,0%);fill-opacity:1;stroke-width:0.708661;stroke-linecap:round;stroke-linejoin:round;stroke:rgb(0%,0%,0%);stroke-opacity:1;stroke-miterlimit:10;" d="M 185.714844 17.949219 C 185.714844 20.554688 181.804688 20.554688 181.804688 17.949219 C 181.804688 15.339844 185.714844 15.339844 185.714844 17.949219 "/>
<path style="fill-rule:nonzero;fill:rgb(0%,0%,0%);fill-opacity:1;stroke-width:0.708661;stroke-linecap:round;stroke-linejoin:round;stroke:rgb(0%,0%,0%);stroke-opacity:1;stroke-miterlimit:10;" d="M 225.519531 68.238281 C 225.519531 70.84375 221.609375 70.84375 221.609375 68.238281 C 221.609375 65.628906 225.519531 65.628906 225.519531 68.238281 "/>
<path style="fill-rule:nonzero;fill:rgb(0%,0%,0%);fill-opacity:1;stroke-width:0.708661;stroke-linecap:round;stroke-linejoin:round;stroke:rgb(0%,0%,0%);stroke-opacity:1;stroke-miterlimit:10;" d="M 216.570312 78.378906 C 216.570312 80.984375 212.660156 80.984375 212.660156 78.378906 C 212.660156 75.773438 216.570312 75.773438 216.570312 78.378906 "/>
<path style="fill-rule:nonzero;fill:rgb(0%,0%,0%);fill-opacity:1;stroke-width:0.708661;stroke-linecap:round;stroke-linejoin:round;stroke:rgb(0%,0%,0%);stroke-opacity:1;stroke-miterlimit:10;" d="M 201.988281 84.941406 C 201.988281 87.546875 198.078125 87.546875 198.078125 84.941406 C 198.078125 82.332031 201.988281 82.332031 201.988281 84.941406 "/>
<path style="fill-rule:nonzero;fill:rgb(0%,0%,0%);fill-opacity:1;stroke-width:0.708661;stroke-linecap:round;stroke-linejoin:round;stroke:rgb(0%,0%,0%);stroke-opacity:1;stroke-miterlimit:10;" d="M 196.789062 84.453125 C 196.789062 87.0625 192.878906 87.0625 192.878906 84.453125 C 192.878906 81.847656 196.789062 81.847656 196.789062 84.453125 "/>
<path style="fill-rule:nonzero;fill:rgb(0%,0%,0%);fill-opacity:1;stroke-width:0.708661;stroke-linecap:round;stroke-linejoin:round;stroke:rgb(0%,0%,0%);stroke-opacity:1;stroke-miterlimit:10;" d="M 205.160156 86.332031 C 205.160156 88.9375 201.25 88.9375 201.25 86.332031 C 201.25 83.726562 205.160156 83.726562 205.160156 86.332031 "/>
<path style="fill-rule:nonzero;fill:rgb(0%,0%,0%);fill-opacity:1;stroke-width:0.708661;stroke-linecap:round;stroke-linejoin:round;stroke:rgb(0%,0%,0%);stroke-opacity:1;stroke-miterlimit:10;" d="M 205.25 86.117188 C 205.25 88.722656 201.339844 88.722656 201.339844 86.117188 C 201.339844 83.511719 205.25 83.511719 205.25 86.117188 "/>
<path style="fill-rule:nonzero;fill:rgb(0%,0%,0%);fill-opacity:1;stroke-width:0.708661;stroke-linecap:round;stroke-linejoin:round;stroke:rgb(0%,0%,0%);stroke-opacity:1;stroke-miterlimit:10;" d="M 238.992188 135.261719 C 238.992188 137.867188 235.082031 137.867188 235.082031 135.261719 C 235.082031 132.65625 238.992188 132.65625 238.992188 135.261719 "/>
<path style="fill-rule:nonzero;fill:rgb(0%,0%,0%);fill-opacity:1;stroke-width:0.708661;stroke-linecap:round;stroke-linejoin:round;stroke:rgb(0%,0%,0%);stroke-opacity:1;stroke-miterlimit:10;" d="M 234.894531 132.835938 C 234.894531 135.441406 230.984375 135.441406 230.984375 132.835938 C 230.984375 130.230469 234.894531 130.230469 234.894531 132.835938 "/>
<path style="fill-rule:nonzero;fill:rgb(0%,0%,0%);fill-opacity:1;stroke-width:0.708661;stroke-linecap:round;stroke-linejoin:round;stroke:rgb(0%,0%,0%);stroke-opacity:1;stroke-miterlimit:10;" d="M 242.089844 134.085938 C 242.089844 136.691406 238.179688 136.691406 238.179688 134.085938 C 238.179688 131.480469 242.089844 131.480469 242.089844 134.085938 "/>
<path style="fill-rule:nonzero;fill:rgb(0%,0%,0%);fill-opacity:1;stroke-width:0.708661;stroke-linecap:round;stroke-linejoin:round;stroke:rgb(0%,0%,0%);stroke-opacity:1;stroke-miterlimit:10;" d="M 262.996094 168.410156 C 262.996094 171.015625 259.085938 171.015625 259.085938 168.410156 C 259.085938 165.804688 262.996094 165.804688 262.996094 168.410156 "/>
<path style="fill-rule:nonzero;fill:rgb(0%,0%,0%);fill-opacity:1;stroke-width:0.708661;stroke-linecap:round;stroke-linejoin:round;stroke:rgb(0%,0%,0%);stroke-opacity:1;stroke-miterlimit:10;" d="M 255.667969 182.003906 C 255.667969 184.613281 251.757812 184.613281 251.757812 182.003906 C 251.757812 179.398438 255.667969 179.398438 255.667969 182.003906 "/>
<path style="fill-rule:nonzero;fill:rgb(0%,0%,0%);fill-opacity:1;stroke-width:0.708661;stroke-linecap:round;stroke-linejoin:round;stroke:rgb(0%,0%,0%);stroke-opacity:1;stroke-miterlimit:10;" d="M 240.636719 182.558594 C 240.636719 185.167969 236.726562 185.167969 236.726562 182.558594 C 236.726562 179.953125 240.636719 179.953125 240.636719 182.558594 "/>
<path style="fill-rule:nonzero;fill:rgb(0%,0%,0%);fill-opacity:1;stroke-width:0.708661;stroke-linecap:round;stroke-linejoin:round;stroke:rgb(0%,0%,0%);stroke-opacity:1;stroke-miterlimit:10;" d="M 255.996094 175.757812 C 255.996094 178.367188 252.085938 178.367188 252.085938 175.757812 C 252.085938 173.152344 255.996094 173.152344 255.996094 175.757812 "/>
<path style="fill-rule:nonzero;fill:rgb(0%,0%,0%);fill-opacity:1;stroke-width:0.708661;stroke-linecap:round;stroke-linejoin:round;stroke:rgb(0%,0%,0%);stroke-opacity:1;stroke-miterlimit:10;" d="M 261.230469 176.332031 C 261.230469 178.9375 257.324219 178.9375 257.324219 176.332031 C 257.324219 173.722656 261.230469 173.722656 261.230469 176.332031 "/>
<path style="fill-rule:nonzero;fill:rgb(0%,0%,0%);fill-opacity:1;stroke-width:0.708661;stroke-linecap:round;stroke-linejoin:round;stroke:rgb(0%,0%,0%);stroke-opacity:1;stroke-miterlimit:10;" d="M 272.007812 160.160156 C 272.007812 162.769531 268.097656 162.769531 268.097656 160.160156 C 268.097656 157.554688 272.007812 157.554688 272.007812 160.160156 "/>
<path style="fill-rule:nonzero;fill:rgb(0%,0%,0%);fill-opacity:1;stroke-width:0.708661;stroke-linecap:round;stroke-linejoin:round;stroke:rgb(0%,0%,0%);stroke-opacity:1;stroke-miterlimit:10;" d="M 92.683594 169.976562 C 92.683594 172.582031 88.773438 172.582031 88.773438 169.976562 C 88.773438 167.371094 92.683594 167.371094 92.683594 169.976562 "/>
<path style="fill-rule:nonzero;fill:rgb(0%,0%,0%);fill-opacity:1;stroke-width:0.708661;stroke-linecap:round;stroke-linejoin:round;stroke:rgb(0%,0%,0%);stroke-opacity:1;stroke-miterlimit:10;" d="M 176.21875 185.308594 C 176.21875 187.914062 172.308594 187.914062 172.308594 185.308594 C 172.308594 182.703125 176.21875 182.703125 176.21875 185.308594 "/>
<path style="fill-rule:nonzero;fill:rgb(0%,0%,0%);fill-opacity:1;stroke-width:0.708661;stroke-linecap:round;stroke-linejoin:round;stroke:rgb(0%,0%,0%);stroke-opacity:1;stroke-miterlimit:10;" d="M 168.09375 195.457031 C 168.09375 198.0625 164.183594 198.0625 164.183594 195.457031 C 164.183594 192.851562 168.09375 192.851562 168.09375 195.457031 "/>
<path style="fill-rule:nonzero;fill:rgb(0%,0%,0%);fill-opacity:1;stroke-width:0.708661;stroke-linecap:round;stroke-linejoin:round;stroke:rgb(0%,0%,0%);stroke-opacity:1;stroke-miterlimit:10;" d="M 159.070312 204.289062 C 159.070312 206.898438 155.160156 206.898438 155.160156 204.289062 C 155.160156 201.683594 159.070312 201.683594 159.070312 204.289062 "/>
<path style="fill-rule:nonzero;fill:rgb(0%,0%,0%);fill-opacity:1;stroke-width:0.708661;stroke-linecap:round;stroke-linejoin:round;stroke:rgb(0%,0%,0%);stroke-opacity:1;stroke-miterlimit:10;" d="M 157.339844 207.832031 C 157.339844 210.4375 153.429688 210.4375 153.429688 207.832031 C 153.429688 205.226562 157.339844 205.226562 157.339844 207.832031 "/>
<path style="fill-rule:nonzero;fill:rgb(0%,0%,0%);fill-opacity:1;stroke-width:0.708661;stroke-linecap:round;stroke-linejoin:round;stroke:rgb(0%,0%,0%);stroke-opacity:1;stroke-miterlimit:10;" d="M 170.316406 238.199219 C 170.316406 240.804688 166.40625 240.804688 166.40625 238.199219 C 166.40625 235.59375 170.316406 235.59375 170.316406 238.199219 "/>
<path style="fill-rule:nonzero;fill:rgb(0%,0%,0%);fill-opacity:1;stroke-width:0.708661;stroke-linecap:round;stroke-linejoin:round;stroke:rgb(0%,0%,0%);stroke-opacity:1;stroke-miterlimit:10;" d="M 183.550781 233.167969 C 183.550781 235.773438 179.640625 235.773438 179.640625 233.167969 C 179.640625 230.5625 183.550781 230.5625 183.550781 233.167969 "/>
<path style="fill-rule:nonzero;fill:rgb(0%,0%,0%);fill-opacity:1;stroke-width:0.708661;stroke-linecap:round;stroke-linejoin:round;stroke:rgb(0%,0%,0%);stroke-opacity:1;stroke-miterlimit:10;" d="M 174.042969 237.734375 C 174.042969 240.339844 170.132812 240.339844 170.132812 237.734375 C 170.132812 235.128906 174.042969 235.128906 174.042969 237.734375 "/>
<path style="fill-rule:nonzero;fill:rgb(0%,0%,0%);fill-opacity:1;stroke-width:0.708661;stroke-linecap:round;stroke-linejoin:round;stroke:rgb(0%,0%,0%);stroke-opacity:1;stroke-miterlimit:10;" d="M 191.84375 230.835938 C 191.84375 233.441406 187.933594 233.441406 187.933594 230.835938 C 187.933594 228.230469 191.84375 228.230469 191.84375 230.835938 "/>
<path style="fill-rule:nonzero;fill:rgb(0%,0%,0%);fill-opacity:1;stroke-width:0.708661;stroke-linecap:round;stroke-linejoin:round;stroke:rgb(0%,0%,0%);stroke-opacity:1;stroke-miterlimit:10;" d="M 167.21875 243.75 C 167.21875 246.355469 163.3125 246.355469 163.3125 243.75 C 163.3125 241.144531 167.21875 241.144531 167.21875 243.75 "/>
<path style="fill-rule:nonzero;fill:rgb(0%,0%,0%);fill-opacity:1;stroke-width:0.708661;stroke-linecap:round;stroke-linejoin:round;stroke:rgb(0%,0%,0%);stroke-opacity:1;stroke-miterlimit:10;" d="M 198.050781 218.390625 C 198.050781 221 194.140625 221 194.140625 218.390625 C 194.140625 215.785156 198.050781 215.785156 198.050781 218.390625 "/>
<path style="fill-rule:nonzero;fill:rgb(0%,0%,0%);fill-opacity:1;stroke-width:0.708661;stroke-linecap:round;stroke-linejoin:round;stroke:rgb(0%,0%,0%);stroke-opacity:1;stroke-miterlimit:10;" d="M 196.171875 227.671875 C 196.171875 230.277344 192.261719 230.277344 192.261719 227.671875 C 192.261719 225.066406 196.171875 225.066406 196.171875 227.671875 "/>
<path style="fill-rule:nonzero;fill:rgb(0%,0%,0%);fill-opacity:1;stroke-width:0.708661;stroke-linecap:round;stroke-linejoin:round;stroke:rgb(0%,0%,0%);stroke-opacity:1;stroke-miterlimit:10;" d="M 182.800781 229.4375 C 182.800781 232.042969 178.894531 232.042969 178.894531 229.4375 C 178.894531 226.832031 182.800781 226.832031 182.800781 229.4375 "/>
<path style="fill-rule:nonzero;fill:rgb(0%,0%,0%);fill-opacity:1;stroke-width:0.708661;stroke-linecap:round;stroke-linejoin:round;stroke:rgb(0%,0%,0%);stroke-opacity:1;stroke-miterlimit:10;" d="M 131.121094 228.582031 C 131.121094 231.1875 127.210938 231.1875 127.210938 228.582031 C 127.210938 225.976562 131.121094 225.976562 131.121094 228.582031 "/>
<path style="fill-rule:nonzero;fill:rgb(0%,0%,0%);fill-opacity:1;stroke-width:0.708661;stroke-linecap:round;stroke-linejoin:round;stroke:rgb(0%,0%,0%);stroke-opacity:1;stroke-miterlimit:10;" d="M 133.351562 217.945312 C 133.351562 220.550781 129.441406 220.550781 129.441406 217.945312 C 129.441406 215.339844 133.351562 215.339844 133.351562 217.945312 "/>
<path style="fill-rule:nonzero;fill:rgb(0%,0%,0%);fill-opacity:1;stroke-width:0.708661;stroke-linecap:round;stroke-linejoin:round;stroke:rgb(0%,0%,0%);stroke-opacity:1;stroke-miterlimit:10;" d="M 124.148438 234.277344 C 124.148438 236.886719 120.238281 236.886719 120.238281 234.277344 C 120.238281 231.671875 124.148438 231.671875 124.148438 234.277344 "/>
<path style="fill-rule:nonzero;fill:rgb(0%,0%,0%);fill-opacity:1;stroke-width:0.708661;stroke-linecap:round;stroke-linejoin:round;stroke:rgb(0%,0%,0%);stroke-opacity:1;stroke-miterlimit:10;" d="M 96.820312 255.300781 C 96.820312 257.910156 92.910156 257.910156 92.910156 255.300781 C 92.910156 252.695312 96.820312 252.695312 96.820312 255.300781 "/>
<path style="fill-rule:nonzero;fill:rgb(0%,0%,0%);fill-opacity:1;stroke-width:0.708661;stroke-linecap:round;stroke-linejoin:round;stroke:rgb(0%,0%,0%);stroke-opacity:1;stroke-miterlimit:10;" d="M 93.484375 246.738281 C 93.484375 249.34375 89.574219 249.34375 89.574219 246.738281 C 89.574219 244.132812 93.484375 244.132812 93.484375 246.738281 "/>
<path style="fill-rule:nonzero;fill:rgb(0%,0%,0%);fill-opacity:1;stroke-width:0.708661;stroke-linecap:round;stroke-linejoin:round;stroke:rgb(0%,0%,0%);stroke-opacity:1;stroke-miterlimit:10;" d="M 110.707031 240.851562 C 110.707031 243.457031 106.796875 243.457031 106.796875 240.851562 C 106.796875 238.246094 110.707031 238.246094 110.707031 240.851562 "/>
<path style="fill-rule:nonzero;fill:rgb(0%,0%,0%);fill-opacity:1;stroke-width:0.708661;stroke-linecap:round;stroke-linejoin:round;stroke:rgb(0%,0%,0%);stroke-opacity:1;stroke-miterlimit:10;" d="M 116.476562 239.261719 C 116.476562 241.867188 112.566406 241.867188 112.566406 239.261719 C 112.566406 236.65625 116.476562 236.65625 116.476562 239.261719 "/>
<path style="fill-rule:nonzero;fill:rgb(0%,0%,0%);fill-opacity:1;stroke-width:0.708661;stroke-linecap:round;stroke-linejoin:round;stroke:rgb(0%,0%,0%);stroke-opacity:1;stroke-miterlimit:10;" d="M 153.628906 263.5625 C 153.628906 266.167969 149.71875 266.167969 149.71875 263.5625 C 149.71875 260.957031 153.628906 260.957031 153.628906 263.5625 "/>
<path style="fill-rule:nonzero;fill:rgb(0%,0%,0%);fill-opacity:1;stroke-width:0.708661;stroke-linecap:round;stroke-linejoin:round;stroke:rgb(0%,0%,0%);stroke-opacity:1;stroke-miterlimit:10;" d="M 160.226562 246.699219 C 160.226562 249.304688 156.316406 249.304688 156.316406 246.699219 C 156.316406 244.09375 160.226562 244.09375 160.226562 246.699219 "/>
<path style="fill-rule:nonzero;fill:rgb(0%,0%,0%);fill-opacity:1;stroke-width:0.708661;stroke-linecap:round;stroke-linejoin:round;stroke:rgb(0%,0%,0%);stroke-opacity:1;stroke-miterlimit:10;" d="M 117.75 235.242188 C 117.75 237.851562 113.839844 237.851562 113.839844 235.242188 C 113.839844 232.636719 117.75 232.636719 117.75 235.242188 "/>
<path style="fill-rule:nonzero;fill:rgb(0%,0%,0%);fill-opacity:1;stroke-width:0.708661;stroke-linecap:round;stroke-linejoin:round;stroke:rgb(0%,0%,0%);stroke-opacity:1;stroke-miterlimit:10;" d="M 106.148438 245.375 C 106.148438 247.984375 102.238281 247.984375 102.238281 245.375 C 102.238281 242.769531 106.148438 242.769531 106.148438 245.375 "/>
<path style="fill-rule:nonzero;fill:rgb(0%,0%,0%);fill-opacity:1;stroke-width:0.708661;stroke-linecap:round;stroke-linejoin:round;stroke:rgb(0%,0%,0%);stroke-opacity:1;stroke-miterlimit:10;" d="M 96.421875 251.257812 C 96.421875 253.863281 92.511719 253.863281 92.511719 251.257812 C 92.511719 248.652344 96.421875 248.652344 96.421875 251.257812 "/>
<path style="fill-rule:nonzero;fill:rgb(0%,0%,0%);fill-opacity:1;stroke-width:0.708661;stroke-linecap:round;stroke-linejoin:round;stroke:rgb(0%,0%,0%);stroke-opacity:1;stroke-miterlimit:10;" d="M 151.308594 257.429688 C 151.308594 260.035156 147.402344 260.035156 147.402344 257.429688 C 147.402344 254.820312 151.308594 254.820312 151.308594 257.429688 "/>
<path style="fill-rule:nonzero;fill:rgb(0%,0%,0%);fill-opacity:1;stroke-width:0.708661;stroke-linecap:round;stroke-linejoin:round;stroke:rgb(0%,0%,0%);stroke-opacity:1;stroke-miterlimit:10;" d="M 157.121094 254.074219 C 157.121094 256.679688 153.210938 256.679688 153.210938 254.074219 C 153.210938 251.46875 157.121094 251.46875 157.121094 254.074219 "/>
<path style="fill-rule:nonzero;fill:rgb(0%,0%,0%);fill-opacity:1;stroke-width:0.708661;stroke-linecap:round;stroke-linejoin:round;stroke:rgb(0%,0%,0%);stroke-opacity:1;stroke-miterlimit:10;" d="M 137.613281 264.859375 C 137.613281 267.464844 133.703125 267.464844 133.703125 264.859375 C 133.703125 262.253906 137.613281 262.253906 137.613281 264.859375 "/>
<path style="fill-rule:nonzero;fill:rgb(0%,0%,0%);fill-opacity:1;stroke-width:0.708661;stroke-linecap:round;stroke-linejoin:round;stroke:rgb(0%,0%,0%);stroke-opacity:1;stroke-miterlimit:10;" d="M 160.121094 253.027344 C 160.121094 255.632812 156.210938 255.632812 156.210938 253.027344 C 156.210938 250.417969 160.121094 250.417969 160.121094 253.027344 "/>
<path style="fill-rule:nonzero;fill:rgb(0%,0%,0%);fill-opacity:1;stroke-width:0.708661;stroke-linecap:round;stroke-linejoin:round;stroke:rgb(0%,0%,0%);stroke-opacity:1;stroke-miterlimit:10;" d="M 153.90625 251.722656 C 153.90625 254.328125 149.996094 254.328125 149.996094 251.722656 C 149.996094 249.113281 153.90625 249.113281 153.90625 251.722656 "/>
<path style="fill-rule:nonzero;fill:rgb(0%,0%,0%);fill-opacity:1;stroke-width:0.708661;stroke-linecap:round;stroke-linejoin:round;stroke:rgb(0%,0%,0%);stroke-opacity:1;stroke-miterlimit:10;" d="M 149.589844 267.3125 C 149.589844 269.917969 145.679688 269.917969 145.679688 267.3125 C 145.679688 264.707031 149.589844 264.707031 149.589844 267.3125 "/>
<path style="fill-rule:nonzero;fill:rgb(0%,0%,0%);fill-opacity:1;stroke-width:0.708661;stroke-linecap:round;stroke-linejoin:round;stroke:rgb(0%,0%,0%);stroke-opacity:1;stroke-miterlimit:10;" d="M 152.335938 254.320312 C 152.335938 256.925781 148.429688 256.925781 148.429688 254.320312 C 148.429688 251.714844 152.335938 251.714844 152.335938 254.320312 "/>
<path style="fill-rule:nonzero;fill:rgb(0%,0%,0%);fill-opacity:1;stroke-width:0.708661;stroke-linecap:round;stroke-linejoin:round;stroke:rgb(0%,0%,0%);stroke-opacity:1;stroke-miterlimit:10;" d="M 143.535156 258.628906 C 143.535156 261.234375 139.625 261.234375 139.625 258.628906 C 139.625 256.019531 143.535156 256.019531 143.535156 258.628906 "/>
<path style="fill-rule:nonzero;fill:rgb(0%,0%,0%);fill-opacity:1;stroke-width:0.708661;stroke-linecap:round;stroke-linejoin:round;stroke:rgb(0%,0%,0%);stroke-opacity:1;stroke-miterlimit:10;" d="M 183.066406 234.550781 C 183.066406 237.15625 179.15625 237.15625 179.15625 234.550781 C 179.15625 231.941406 183.066406 231.941406 183.066406 234.550781 "/>
<path style="fill-rule:nonzero;fill:rgb(0%,0%,0%);fill-opacity:1;stroke-width:0.708661;stroke-linecap:round;stroke-linejoin:round;stroke:rgb(0%,0%,0%);stroke-opacity:1;stroke-miterlimit:10;" d="M 171.484375 240.058594 C 171.484375 242.664062 167.574219 242.664062 167.574219 240.058594 C 167.574219 237.449219 171.484375 237.449219 171.484375 240.058594 "/>
<path style="fill-rule:nonzero;fill:rgb(0%,0%,0%);fill-opacity:1;stroke-width:0.708661;stroke-linecap:round;stroke-linejoin:round;stroke:rgb(0%,0%,0%);stroke-opacity:1;stroke-miterlimit:10;" d="M 167.878906 240.832031 C 167.878906 243.4375 163.96875 243.4375 163.96875 240.832031 C 163.96875 238.226562 167.878906 238.226562 167.878906 240.832031 "/>
<path style="fill-rule:nonzero;fill:rgb(0%,0%,0%);fill-opacity:1;stroke-width:0.708661;stroke-linecap:round;stroke-linejoin:round;stroke:rgb(0%,0%,0%);stroke-opacity:1;stroke-miterlimit:10;" d="M 133.296875 266.703125 C 133.296875 269.308594 129.386719 269.308594 129.386719 266.703125 C 129.386719 264.097656 133.296875 264.097656 133.296875 266.703125 "/>
<path style="fill-rule:nonzero;fill:rgb(0%,0%,0%);fill-opacity:1;stroke-width:0.708661;stroke-linecap:round;stroke-linejoin:round;stroke:rgb(0%,0%,0%);stroke-opacity:1;stroke-miterlimit:10;" d="M 147.648438 257.816406 C 147.648438 260.425781 143.738281 260.425781 143.738281 257.816406 C 143.738281 255.210938 147.648438 255.210938 147.648438 257.816406 "/>
<path style="fill-rule:nonzero;fill:rgb(0%,0%,0%);fill-opacity:1;stroke-width:0.708661;stroke-linecap:round;stroke-linejoin:round;stroke:rgb(0%,0%,0%);stroke-opacity:1;stroke-miterlimit:10;" d="M 58.601562 205.503906 C 58.601562 208.113281 54.695312 208.113281 54.695312 205.503906 C 54.695312 202.898438 58.601562 202.898438 58.601562 205.503906 "/>
<path style="fill-rule:nonzero;fill:rgb(0%,0%,0%);fill-opacity:1;stroke-width:0.708661;stroke-linecap:round;stroke-linejoin:round;stroke:rgb(0%,0%,0%);stroke-opacity:1;stroke-miterlimit:10;" d="M 59.601562 195.921875 C 59.601562 198.527344 55.691406 198.527344 55.691406 195.921875 C 55.691406 193.3125 59.601562 193.3125 59.601562 195.921875 "/>
<path style="fill-rule:nonzero;fill:rgb(0%,0%,0%);fill-opacity:1;stroke-width:0.708661;stroke-linecap:round;stroke-linejoin:round;stroke:rgb(0%,0%,0%);stroke-opacity:1;stroke-miterlimit:10;" d="M 242.570312 179.4375 C 242.570312 182.046875 238.664062 182.046875 238.664062 179.4375 C 238.664062 176.832031 242.570312 176.832031 242.570312 179.4375 "/>
<path style="fill-rule:nonzero;fill:rgb(0%,0%,0%);fill-opacity:1;stroke-width:0.708661;stroke-linecap:round;stroke-linejoin:round;stroke:rgb(0%,0%,0%);stroke-opacity:1;stroke-miterlimit:10;" d="M 113.125 21.652344 C 113.125 24.257812 109.214844 24.257812 109.214844 21.652344 C 109.214844 19.046875 113.125 19.046875 113.125 21.652344 "/>
<path style="fill-rule:nonzero;fill:rgb(0%,0%,0%);fill-opacity:1;stroke-width:0.708661;stroke-linecap:round;stroke-linejoin:round;stroke:rgb(0%,0%,0%);stroke-opacity:1;stroke-miterlimit:10;" d="M 109.210938 32.453125 C 109.210938 35.058594 105.304688 35.058594 105.304688 32.453125 C 105.304688 29.84375 109.210938 29.84375 109.210938 32.453125 "/>
<path style="fill-rule:nonzero;fill:rgb(0%,0%,0%);fill-opacity:1;stroke-width:0.708661;stroke-linecap:round;stroke-linejoin:round;stroke:rgb(0%,0%,0%);stroke-opacity:1;stroke-miterlimit:10;" d="M 88.941406 50.152344 C 88.941406 52.757812 85.03125 52.757812 85.03125 50.152344 C 85.03125 47.546875 88.941406 47.546875 88.941406 50.152344 "/>
</g>
</svg>
