<?xml version="1.0" encoding="UTF-8"?>
<svg xmlns="http://www.w3.org/2000/svg" xmlns:xlink="http://www.w3.org/1999/xlink" width="216pt" height="216pt" viewBox="0 0 216 216" version="1.1">
<defs>
<clipPath id="clip1">
  <path d="M 8.21875 197 L 210.519531 197 L 210.519531 198 L 8.21875 198 Z M 8.21875 197 "/>
</clipPath>
<clipPath id="clip2">
  <path d="M 8.21875 147 L 210.519531 147 L 210.519531 148 L 8.21875 148 Z M 8.21875 147 "/>
</clipPath>
<clipPath id="clip3">
  <path d="M 8.21875 97 L 210.519531 97 L 210.519531 98 L 8.21875 98 Z M 8.21875 97 "/>
</clipPath>
<clipPath id="clip4">
  <path d="M 8.21875 47 L 210.519531 47 L 210.519531 48 L 8.21875 48 Z M 8.21875 47 "/>
</clipPath>
<clipPath id="clip5">
  <path d="M 32 5.480469 L 34 5.480469 L 34 207.78125 L 32 207.78125 Z M 32 5.480469 "/>
</clipPath>
<clipPath id="clip6">
  <path d="M 86 5.480469 L 88 5.480469 L 88 207.78125 L 86 207.78125 Z M 86 5.480469 "/>
</clipPath>
<clipPath id="clip7">
  <path d="M 140 5.480469 L 141 5.480469 L 141 207.78125 L 140 207.78125 Z M 140 5.480469 "/>
</clipPath>
<clipPath id="clip8">
  <path d="M 194 5.480469 L 195 5.480469 L 195 207.78125 L 194 207.78125 Z M 194 5.480469 "/>
</clipPath>
<clipPath id="clip9">
  <path d="M 8.21875 172 L 210.519531 172 L 210.519531 174 L 8.21875 174 Z M 8.21875 172 "/>
</clipPath>
<clipPath id="clip10">
  <path d="M 8.21875 121 L 210.519531 121 L 210.519531 124 L 8.21875 124 Z M 8.21875 121 "/>
</clipPath>
<clipPath id="clip11">
  <path d="M 8.21875 71 L 210.519531 71 L 210.519531 73 L 8.21875 73 Z M 8.21875 71 "/>
</clipPath>
<clipPath id="clip12">
  <path d="M 8.21875 21 L 210.519531 21 L 210.519531 23 L 8.21875 23 Z M 8.21875 21 "/>
</clipPath>
<clipPath id="clip13">
  <path d="M 59 5.480469 L 61 5.480469 L 61 207.78125 L 59 207.78125 Z M 59 5.480469 "/>
</clipPath>
<clipPath id="clip14">
  <path d="M 113 5.480469 L 115 5.480469 L 115 207.78125 L 113 207.78125 Z M 113 5.480469 "/>
</clipPath>
<clipPath id="clip15">
  <path d="M 166 5.480469 L 168 5.480469 L 168 207.78125 L 166 207.78125 Z M 166 5.480469 "/>
</clipPath>
<clipPath id="clip16">
  <path d="M 8.21875 121 L 210.519531 121 L 210.519531 124 L 8.21875 124 Z M 8.21875 121 "/>
</clipPath>
</defs>
<g id="surface119">
<rect x="0" y="0" width="216" height="216" style="fill:rgb(100%,100%,100%);fill-opacity:1;stroke:none;"/>
<g clip-path="url(#clip1)" clip-rule="nonzero">
<path style="fill:none;stroke-width:0.533489;stroke-linecap:butt;stroke-linejoin:round;stroke:rgb(92.156863%,92.156863%,92.156863%);stroke-opacity:1;stroke-miterlimit:10;" d="M 8.21875 197.6875 L 210.519531 197.6875 "/>
</g>
<g clip-path="url(#clip2)" clip-rule="nonzero">
<path style="fill:none;stroke-width:0.533489;stroke-linecap:butt;stroke-linejoin:round;stroke:rgb(92.156863%,92.156863%,92.156863%);stroke-opacity:1;stroke-miterlimit:10;" d="M 8.21875 147.5625 L 210.519531 147.5625 "/>
</g>
<g clip-path="url(#clip3)" clip-rule="nonzero">
<path style="fill:none;stroke-width:0.533489;stroke-linecap:butt;stroke-linejoin:round;stroke:rgb(92.156863%,92.156863%,92.156863%);stroke-opacity:1;stroke-miterlimit:10;" d="M 8.21875 97.4375 L 210.519531 97.4375 "/>
</g>
<g clip-path="url(#clip4)" clip-rule="nonzero">
<path style="fill:none;stroke-width:0.533489;stroke-linecap:butt;stroke-linejoin:round;stroke:rgb(92.156863%,92.156863%,92.156863%);stroke-opacity:1;stroke-miterlimit:10;" d="M 8.21875 47.3125 L 210.519531 47.3125 "/>
</g>
<g clip-path="url(#clip5)" clip-rule="nonzero">
<path style="fill:none;stroke-width:0.533489;stroke-linecap:butt;stroke-linejoin:round;stroke:rgb(92.156863%,92.156863%,92.156863%);stroke-opacity:1;stroke-miterlimit:10;" d="M 33.007812 207.78125 L 33.007812 5.480469 "/>
</g>
<g clip-path="url(#clip6)" clip-rule="nonzero">
<path style="fill:none;stroke-width:0.533489;stroke-linecap:butt;stroke-linejoin:round;stroke:rgb(92.156863%,92.156863%,92.156863%);stroke-opacity:1;stroke-miterlimit:10;" d="M 86.785156 207.78125 L 86.785156 5.480469 "/>
</g>
<g clip-path="url(#clip7)" clip-rule="nonzero">
<path style="fill:none;stroke-width:0.533489;stroke-linecap:butt;stroke-linejoin:round;stroke:rgb(92.156863%,92.156863%,92.156863%);stroke-opacity:1;stroke-miterlimit:10;" d="M 140.558594 207.78125 L 140.558594 5.480469 "/>
</g>
<g clip-path="url(#clip8)" clip-rule="nonzero">
<path style="fill:none;stroke-width:0.533489;stroke-linecap:butt;stroke-linejoin:round;stroke:rgb(92.156863%,92.156863%,92.156863%);stroke-opacity:1;stroke-miterlimit:10;" d="M 194.335938 207.78125 L 194.335938 5.480469 "/>
</g>
<g clip-path="url(#clip9)" clip-rule="nonzero">
<path style="fill:none;stroke-width:1.066978;stroke-linecap:butt;stroke-linejoin:round;stroke:rgb(92.156863%,92.156863%,92.156863%);stroke-opacity:1;stroke-miterlimit:10;" d="M 8.21875 172.625 L 210.519531 172.625 "/>
</g>
<g clip-path="url(#clip10)" clip-rule="nonzero">
<path style="fill:none;stroke-width:1.066978;stroke-linecap:butt;stroke-linejoin:round;stroke:rgb(92.156863%,92.156863%,92.156863%);stroke-opacity:1;stroke-miterlimit:10;" d="M 8.21875 122.5 L 210.519531 122.5 "/>
</g>
<g clip-path="url(#clip11)" clip-rule="nonzero">
<path style="fill:none;stroke-width:1.066978;stroke-linecap:butt;stroke-linejoin:round;stroke:rgb(92.156863%,92.156863%,92.156863%);stroke-opacity:1;stroke-miterlimit:10;" d="M 8.21875 72.375 L 210.519531 72.375 "/>
</g>
<g clip-path="url(#clip12)" clip-rule="nonzero">
<path style="fill:none;stroke-width:1.066978;stroke-linecap:butt;stroke-linejoin:round;stroke:rgb(92.156863%,92.156863%,92.156863%);stroke-opacity:1;stroke-miterlimit:10;" d="M 8.21875 22.25 L 210.519531 22.25 "/>
</g>
<g clip-path="url(#clip13)" clip-rule="nonzero">
<path style="fill:none;stroke-width:1.066978;stroke-linecap:butt;stroke-linejoin:round;stroke:rgb(92.156863%,92.156863%,92.156863%);stroke-opacity:1;stroke-miterlimit:10;" d="M 59.898438 207.78125 L 59.898438 5.480469 "/>
</g>
<g clip-path="url(#clip14)" clip-rule="nonzero">
<path style="fill:none;stroke-width:1.066978;stroke-linecap:butt;stroke-linejoin:round;stroke:rgb(92.156863%,92.156863%,92.156863%);stroke-opacity:1;stroke-miterlimit:10;" d="M 113.671875 207.78125 L 113.671875 5.480469 "/>
</g>
<g clip-path="url(#clip15)" clip-rule="nonzero">
<path style="fill:none;stroke-width:1.066978;stroke-linecap:butt;stroke-linejoin:round;stroke:rgb(92.156863%,92.156863%,92.156863%);stroke-opacity:1;stroke-miterlimit:10;" d="M 167.445312 207.78125 L 167.445312 5.480469 "/>
</g>
<g clip-path="url(#clip16)" clip-rule="nonzero">
<path style="fill:none;stroke-width:1.066978;stroke-linecap:butt;stroke-linejoin:round;stroke:rgb(60%,60%,60%);stroke-opacity:1;stroke-dasharray:4.267913,4.267913;stroke-miterlimit:10;" d="M 8.21875 122.5 L 210.519531 122.5 "/>
</g>
<path style="fill-rule:nonzero;fill:rgb(0%,0%,0%);fill-opacity:1;stroke-width:0.708661;stroke-linecap:round;stroke-linejoin:round;stroke:rgb(0%,0%,0%);stroke-opacity:1;stroke-miterlimit:10;" d="M 19.371094 128.417969 C 19.371094 131.023438 15.460938 131.023438 15.460938 128.417969 C 15.460938 125.808594 19.371094 125.808594 19.371094 128.417969 "/>
<path style="fill-rule:nonzero;fill:rgb(0%,0%,0%);fill-opacity:1;stroke-width:0.708661;stroke-linecap:round;stroke-linejoin:round;stroke:rgb(0%,0%,0%);stroke-opacity:1;stroke-miterlimit:10;" d="M 20.804688 89.996094 C 20.804688 92.605469 16.894531 92.605469 16.894531 89.996094 C 16.894531 87.390625 20.804688 87.390625 20.804688 89.996094 "/>
<path style="fill-rule:nonzero;fill:rgb(0%,0%,0%);fill-opacity:1;stroke-width:0.708661;stroke-linecap:round;stroke-linejoin:round;stroke:rgb(0%,0%,0%);stroke-opacity:1;stroke-miterlimit:10;" d="M 28.691406 94.984375 C 28.691406 97.589844 24.78125 97.589844 24.78125 94.984375 C 24.78125 92.378906 28.691406 92.378906 28.691406 94.984375 "/>
<path style="fill-rule:nonzero;fill:rgb(0%,0%,0%);fill-opacity:1;stroke-width:0.708661;stroke-linecap:round;stroke-linejoin:round;stroke:rgb(0%,0%,0%);stroke-opacity:1;stroke-miterlimit:10;" d="M 45.359375 104.070312 C 45.359375 106.675781 41.449219 106.675781 41.449219 104.070312 C 41.449219 101.460938 45.359375 101.460938 45.359375 104.070312 "/>
<path style="fill-rule:nonzero;fill:rgb(0%,0%,0%);fill-opacity:1;stroke-width:0.708661;stroke-linecap:round;stroke-linejoin:round;stroke:rgb(0%,0%,0%);stroke-opacity:1;stroke-miterlimit:10;" d="M 84.257812 116.410156 C 84.257812 119.015625 80.347656 119.015625 80.347656 116.410156 C 80.347656 113.804688 84.257812 113.804688 84.257812 116.410156 "/>
<path style="fill-rule:nonzero;fill:rgb(0%,0%,0%);fill-opacity:1;stroke-width:0.708661;stroke-linecap:round;stroke-linejoin:round;stroke:rgb(0%,0%,0%);stroke-opacity:1;stroke-miterlimit:10;" d="M 59.34375 105.550781 C 59.34375 108.160156 55.433594 108.160156 55.433594 105.550781 C 55.433594 102.945312 59.34375 102.945312 59.34375 105.550781 "/>
<path style="fill-rule:nonzero;fill:rgb(0%,0%,0%);fill-opacity:1;stroke-width:0.708661;stroke-linecap:round;stroke-linejoin:round;stroke:rgb(0%,0%,0%);stroke-opacity:1;stroke-miterlimit:10;" d="M 106.304688 129.167969 C 106.304688 131.773438 102.394531 131.773438 102.394531 129.167969 C 102.394531 126.5625 106.304688 126.5625 106.304688 129.167969 "/>
<path style="fill-rule:nonzero;fill:rgb(0%,0%,0%);fill-opacity:1;stroke-width:0.708661;stroke-linecap:round;stroke-linejoin:round;stroke:rgb(0%,0%,0%);stroke-opacity:1;stroke-miterlimit:10;" d="M 126.382812 132.410156 C 126.382812 135.015625 122.472656 135.015625 122.472656 132.410156 C 122.472656 129.804688 126.382812 129.804688 126.382812 132.410156 "/>
<path style="fill-rule:nonzero;fill:rgb(0%,0%,0%);fill-opacity:1;stroke-width:0.708661;stroke-linecap:round;stroke-linejoin:round;stroke:rgb(0%,0%,0%);stroke-opacity:1;stroke-miterlimit:10;" d="M 22.238281 111.226562 C 22.238281 113.835938 18.328125 113.835938 18.328125 111.226562 C 18.328125 108.621094 22.238281 108.621094 22.238281 111.226562 "/>
<path style="fill-rule:nonzero;fill:rgb(0%,0%,0%);fill-opacity:1;stroke-width:0.708661;stroke-linecap:round;stroke-linejoin:round;stroke:rgb(0%,0%,0%);stroke-opacity:1;stroke-miterlimit:10;" d="M 24.03125 94.910156 C 24.03125 97.515625 20.121094 97.515625 20.121094 94.910156 C 20.121094 92.300781 24.03125 92.300781 24.03125 94.910156 "/>
<path style="fill-rule:nonzero;fill:rgb(0%,0%,0%);fill-opacity:1;stroke-width:0.708661;stroke-linecap:round;stroke-linejoin:round;stroke:rgb(0%,0%,0%);stroke-opacity:1;stroke-miterlimit:10;" d="M 20.625 87.46875 C 20.625 90.074219 16.714844 90.074219 16.714844 87.46875 C 16.714844 84.863281 20.625 84.863281 20.625 87.46875 "/>
<path style="fill-rule:nonzero;fill:rgb(0%,0%,0%);fill-opacity:1;stroke-width:0.708661;stroke-linecap:round;stroke-linejoin:round;stroke:rgb(0%,0%,0%);stroke-opacity:1;stroke-miterlimit:10;" d="M 37.292969 132.644531 C 37.292969 135.25 33.386719 135.25 33.386719 132.644531 C 33.386719 130.039062 37.292969 130.039062 37.292969 132.644531 "/>
<path style="fill-rule:nonzero;fill:rgb(0%,0%,0%);fill-opacity:1;stroke-width:0.708661;stroke-linecap:round;stroke-linejoin:round;stroke:rgb(0%,0%,0%);stroke-opacity:1;stroke-miterlimit:10;" d="M 86.050781 130.167969 C 86.050781 132.773438 82.140625 132.773438 82.140625 130.167969 C 82.140625 127.558594 86.050781 127.558594 86.050781 130.167969 "/>
<path style="fill-rule:nonzero;fill:rgb(0%,0%,0%);fill-opacity:1;stroke-width:0.708661;stroke-linecap:round;stroke-linejoin:round;stroke:rgb(0%,0%,0%);stroke-opacity:1;stroke-miterlimit:10;" d="M 59.519531 101.816406 C 59.519531 104.421875 55.613281 104.421875 55.613281 101.816406 C 55.613281 99.207031 59.519531 99.207031 59.519531 101.816406 "/>
<path style="fill-rule:nonzero;fill:rgb(0%,0%,0%);fill-opacity:1;stroke-width:0.708661;stroke-linecap:round;stroke-linejoin:round;stroke:rgb(0%,0%,0%);stroke-opacity:1;stroke-miterlimit:10;" d="M 135.703125 95.21875 C 135.703125 97.824219 131.792969 97.824219 131.792969 95.21875 C 131.792969 92.613281 135.703125 92.613281 135.703125 95.21875 "/>
<path style="fill-rule:nonzero;fill:rgb(0%,0%,0%);fill-opacity:1;stroke-width:0.708661;stroke-linecap:round;stroke-linejoin:round;stroke:rgb(0%,0%,0%);stroke-opacity:1;stroke-miterlimit:10;" d="M 19.726562 14.675781 C 19.726562 17.28125 15.820312 17.28125 15.820312 14.675781 C 15.820312 12.070312 19.726562 12.070312 19.726562 14.675781 "/>
<path style="fill-rule:nonzero;fill:rgb(0%,0%,0%);fill-opacity:1;stroke-width:0.708661;stroke-linecap:round;stroke-linejoin:round;stroke:rgb(0%,0%,0%);stroke-opacity:1;stroke-miterlimit:10;" d="M 94.296875 119.910156 C 94.296875 122.515625 90.386719 122.515625 90.386719 119.910156 C 90.386719 117.304688 94.296875 117.304688 94.296875 119.910156 "/>
<path style="fill-rule:nonzero;fill:rgb(0%,0%,0%);fill-opacity:1;stroke-width:0.708661;stroke-linecap:round;stroke-linejoin:round;stroke:rgb(0%,0%,0%);stroke-opacity:1;stroke-miterlimit:10;" d="M 129.429688 131.03125 C 129.429688 133.640625 125.519531 133.640625 125.519531 131.03125 C 125.519531 128.425781 129.429688 128.425781 129.429688 131.03125 "/>
<path style="fill-rule:nonzero;fill:rgb(0%,0%,0%);fill-opacity:1;stroke-width:0.708661;stroke-linecap:round;stroke-linejoin:round;stroke:rgb(0%,0%,0%);stroke-opacity:1;stroke-miterlimit:10;" d="M 95.550781 130.089844 C 95.550781 132.699219 91.640625 132.699219 91.640625 130.089844 C 91.640625 127.484375 95.550781 127.484375 95.550781 130.089844 "/>
<path style="fill-rule:nonzero;fill:rgb(0%,0%,0%);fill-opacity:1;stroke-width:0.708661;stroke-linecap:round;stroke-linejoin:round;stroke:rgb(0%,0%,0%);stroke-opacity:1;stroke-miterlimit:10;" d="M 73.503906 138.886719 C 73.503906 141.492188 69.59375 141.492188 69.59375 138.886719 C 69.59375 136.28125 73.503906 136.28125 73.503906 138.886719 "/>
<path style="fill-rule:nonzero;fill:rgb(0%,0%,0%);fill-opacity:1;stroke-width:0.708661;stroke-linecap:round;stroke-linejoin:round;stroke:rgb(0%,0%,0%);stroke-opacity:1;stroke-miterlimit:10;" d="M 105.050781 115.980469 C 105.050781 118.585938 101.140625 118.585938 101.140625 115.980469 C 101.140625 113.375 105.050781 113.375 105.050781 115.980469 "/>
<path style="fill-rule:nonzero;fill:rgb(0%,0%,0%);fill-opacity:1;stroke-width:0.708661;stroke-linecap:round;stroke-linejoin:round;stroke:rgb(0%,0%,0%);stroke-opacity:1;stroke-miterlimit:10;" d="M 32.992188 89.753906 C 32.992188 92.359375 29.082031 92.359375 29.082031 89.753906 C 29.082031 87.148438 32.992188 87.148438 32.992188 89.753906 "/>
<path style="fill-rule:nonzero;fill:rgb(0%,0%,0%);fill-opacity:1;stroke-width:0.708661;stroke-linecap:round;stroke-linejoin:round;stroke:rgb(0%,0%,0%);stroke-opacity:1;stroke-miterlimit:10;" d="M 124.949219 135.488281 C 124.949219 138.097656 121.039062 138.097656 121.039062 135.488281 C 121.039062 132.882812 124.949219 132.882812 124.949219 135.488281 "/>
<path style="fill-rule:nonzero;fill:rgb(0%,0%,0%);fill-opacity:1;stroke-width:0.708661;stroke-linecap:round;stroke-linejoin:round;stroke:rgb(0%,0%,0%);stroke-opacity:1;stroke-miterlimit:10;" d="M 73.144531 176.9375 C 73.144531 179.542969 69.234375 179.542969 69.234375 176.9375 C 69.234375 174.332031 73.144531 174.332031 73.144531 176.9375 "/>
<path style="fill-rule:nonzero;fill:rgb(0%,0%,0%);fill-opacity:1;stroke-width:0.708661;stroke-linecap:round;stroke-linejoin:round;stroke:rgb(0%,0%,0%);stroke-opacity:1;stroke-miterlimit:10;" d="M 113.835938 129.851562 C 113.835938 132.457031 109.925781 132.457031 109.925781 129.851562 C 109.925781 127.246094 113.835938 127.246094 113.835938 129.851562 "/>
<path style="fill-rule:nonzero;fill:rgb(0%,0%,0%);fill-opacity:1;stroke-width:0.708661;stroke-linecap:round;stroke-linejoin:round;stroke:rgb(0%,0%,0%);stroke-opacity:1;stroke-miterlimit:10;" d="M 102.363281 158.503906 C 102.363281 161.109375 98.453125 161.109375 98.453125 158.503906 C 98.453125 155.898438 102.363281 155.898438 102.363281 158.503906 "/>
<path style="fill-rule:nonzero;fill:rgb(0%,0%,0%);fill-opacity:1;stroke-width:0.708661;stroke-linecap:round;stroke-linejoin:round;stroke:rgb(0%,0%,0%);stroke-opacity:1;stroke-miterlimit:10;" d="M 29.585938 134.945312 C 29.585938 137.550781 25.675781 137.550781 25.675781 134.945312 C 25.675781 132.339844 29.585938 132.339844 29.585938 134.945312 "/>
<path style="fill-rule:nonzero;fill:rgb(0%,0%,0%);fill-opacity:1;stroke-width:0.708661;stroke-linecap:round;stroke-linejoin:round;stroke:rgb(0%,0%,0%);stroke-opacity:1;stroke-miterlimit:10;" d="M 76.550781 166.582031 C 76.550781 169.191406 72.640625 169.191406 72.640625 166.582031 C 72.640625 163.976562 76.550781 163.976562 76.550781 166.582031 "/>
<path style="fill-rule:nonzero;fill:rgb(0%,0%,0%);fill-opacity:1;stroke-width:0.708661;stroke-linecap:round;stroke-linejoin:round;stroke:rgb(0%,0%,0%);stroke-opacity:1;stroke-miterlimit:10;" d="M 30.304688 70.625 C 30.304688 73.230469 26.394531 73.230469 26.394531 70.625 C 26.394531 68.015625 30.304688 68.015625 30.304688 70.625 "/>
<path style="fill-rule:nonzero;fill:rgb(0%,0%,0%);fill-opacity:1;stroke-width:0.708661;stroke-linecap:round;stroke-linejoin:round;stroke:rgb(0%,0%,0%);stroke-opacity:1;stroke-miterlimit:10;" d="M 114.910156 138.253906 C 114.910156 140.863281 111 140.863281 111 138.253906 C 111 135.648438 114.910156 135.648438 114.910156 138.253906 "/>
<path style="fill-rule:nonzero;fill:rgb(0%,0%,0%);fill-opacity:1;stroke-width:0.708661;stroke-linecap:round;stroke-linejoin:round;stroke:rgb(0%,0%,0%);stroke-opacity:1;stroke-miterlimit:10;" d="M 30.839844 116.554688 C 30.839844 119.160156 26.933594 119.160156 26.933594 116.554688 C 26.933594 113.949219 30.839844 113.949219 30.839844 116.554688 "/>
<path style="fill-rule:nonzero;fill:rgb(0%,0%,0%);fill-opacity:1;stroke-width:0.708661;stroke-linecap:round;stroke-linejoin:round;stroke:rgb(0%,0%,0%);stroke-opacity:1;stroke-miterlimit:10;" d="M 203.28125 56.226562 C 203.28125 58.832031 199.371094 58.832031 199.371094 56.226562 C 199.371094 53.621094 203.28125 53.621094 203.28125 56.226562 "/>
<path style="fill-rule:nonzero;fill:rgb(0%,0%,0%);fill-opacity:1;stroke-width:0.708661;stroke-linecap:round;stroke-linejoin:round;stroke:rgb(0%,0%,0%);stroke-opacity:1;stroke-miterlimit:10;" d="M 115.984375 108.0625 C 115.984375 110.667969 112.074219 110.667969 112.074219 108.0625 C 112.074219 105.457031 115.984375 105.457031 115.984375 108.0625 "/>
<path style="fill-rule:nonzero;fill:rgb(0%,0%,0%);fill-opacity:1;stroke-width:0.708661;stroke-linecap:round;stroke-linejoin:round;stroke:rgb(0%,0%,0%);stroke-opacity:1;stroke-miterlimit:10;" d="M 115.449219 116.015625 C 115.449219 118.621094 111.539062 118.621094 111.539062 116.015625 C 111.539062 113.410156 115.449219 113.410156 115.449219 116.015625 "/>
<path style="fill-rule:nonzero;fill:rgb(0%,0%,0%);fill-opacity:1;stroke-width:0.708661;stroke-linecap:round;stroke-linejoin:round;stroke:rgb(0%,0%,0%);stroke-opacity:1;stroke-miterlimit:10;" d="M 121.003906 107.433594 C 121.003906 110.039062 117.09375 110.039062 117.09375 107.433594 C 117.09375 104.824219 121.003906 104.824219 121.003906 107.433594 "/>
<path style="fill-rule:nonzero;fill:rgb(0%,0%,0%);fill-opacity:1;stroke-width:0.708661;stroke-linecap:round;stroke-linejoin:round;stroke:rgb(0%,0%,0%);stroke-opacity:1;stroke-miterlimit:10;" d="M 64.898438 173.410156 C 64.898438 176.015625 60.988281 176.015625 60.988281 173.410156 C 60.988281 170.804688 64.898438 170.804688 64.898438 173.410156 "/>
<path style="fill-rule:nonzero;fill:rgb(0%,0%,0%);fill-opacity:1;stroke-width:0.708661;stroke-linecap:round;stroke-linejoin:round;stroke:rgb(0%,0%,0%);stroke-opacity:1;stroke-miterlimit:10;" d="M 63.285156 171.957031 C 63.285156 174.5625 59.375 174.5625 59.375 171.957031 C 59.375 169.351562 63.285156 169.351562 63.285156 171.957031 "/>
<path style="fill-rule:nonzero;fill:rgb(0%,0%,0%);fill-opacity:1;stroke-width:0.708661;stroke-linecap:round;stroke-linejoin:round;stroke:rgb(0%,0%,0%);stroke-opacity:1;stroke-miterlimit:10;" d="M 86.589844 156.046875 C 86.589844 158.65625 82.679688 158.65625 82.679688 156.046875 C 82.679688 153.441406 86.589844 153.441406 86.589844 156.046875 "/>
<path style="fill-rule:nonzero;fill:rgb(0%,0%,0%);fill-opacity:1;stroke-width:0.708661;stroke-linecap:round;stroke-linejoin:round;stroke:rgb(0%,0%,0%);stroke-opacity:1;stroke-miterlimit:10;" d="M 44.105469 148.777344 C 44.105469 151.382812 40.195312 151.382812 40.195312 148.777344 C 40.195312 146.171875 44.105469 146.171875 44.105469 148.777344 "/>
<path style="fill-rule:nonzero;fill:rgb(0%,0%,0%);fill-opacity:1;stroke-width:0.708661;stroke-linecap:round;stroke-linejoin:round;stroke:rgb(0%,0%,0%);stroke-opacity:1;stroke-miterlimit:10;" d="M 71.890625 154.476562 C 71.890625 157.082031 67.980469 157.082031 67.980469 154.476562 C 67.980469 151.871094 71.890625 151.871094 71.890625 154.476562 "/>
<path style="fill-rule:nonzero;fill:rgb(0%,0%,0%);fill-opacity:1;stroke-width:0.708661;stroke-linecap:round;stroke-linejoin:round;stroke:rgb(0%,0%,0%);stroke-opacity:1;stroke-miterlimit:10;" d="M 38.550781 98.210938 C 38.550781 100.820312 34.640625 100.820312 34.640625 98.210938 C 34.640625 95.605469 38.550781 95.605469 38.550781 98.210938 "/>
<path style="fill-rule:nonzero;fill:rgb(0%,0%,0%);fill-opacity:1;stroke-width:0.708661;stroke-linecap:round;stroke-linejoin:round;stroke:rgb(0%,0%,0%);stroke-opacity:1;stroke-miterlimit:10;" d="M 105.230469 156.355469 C 105.230469 158.960938 101.320312 158.960938 101.320312 156.355469 C 101.320312 153.746094 105.230469 153.746094 105.230469 156.355469 "/>
<path style="fill-rule:nonzero;fill:rgb(0%,0%,0%);fill-opacity:1;stroke-width:0.708661;stroke-linecap:round;stroke-linejoin:round;stroke:rgb(0%,0%,0%);stroke-opacity:1;stroke-miterlimit:10;" d="M 58.984375 170.171875 C 58.984375 172.777344 55.074219 172.777344 55.074219 170.171875 C 55.074219 167.5625 58.984375 167.5625 58.984375 170.171875 "/>
<path style="fill-rule:nonzero;fill:rgb(0%,0%,0%);fill-opacity:1;stroke-width:0.708661;stroke-linecap:round;stroke-linejoin:round;stroke:rgb(0%,0%,0%);stroke-opacity:1;stroke-miterlimit:10;" d="M 28.691406 78.945312 C 28.691406 81.550781 24.78125 81.550781 24.78125 78.945312 C 24.78125 76.339844 28.691406 76.339844 28.691406 78.945312 "/>
<path style="fill-rule:nonzero;fill:rgb(0%,0%,0%);fill-opacity:1;stroke-width:0.708661;stroke-linecap:round;stroke-linejoin:round;stroke:rgb(0%,0%,0%);stroke-opacity:1;stroke-miterlimit:10;" d="M 83.539062 181.984375 C 83.539062 184.59375 79.632812 184.59375 79.632812 181.984375 C 79.632812 179.378906 83.539062 179.378906 83.539062 181.984375 "/>
<path style="fill-rule:nonzero;fill:rgb(0%,0%,0%);fill-opacity:1;stroke-width:0.708661;stroke-linecap:round;stroke-linejoin:round;stroke:rgb(0%,0%,0%);stroke-opacity:1;stroke-miterlimit:10;" d="M 107.203125 146.574219 C 107.203125 149.179688 103.292969 149.179688 103.292969 146.574219 C 103.292969 143.96875 107.203125 143.96875 107.203125 146.574219 "/>
<path style="fill-rule:nonzero;fill:rgb(0%,0%,0%);fill-opacity:1;stroke-width:0.708661;stroke-linecap:round;stroke-linejoin:round;stroke:rgb(0%,0%,0%);stroke-opacity:1;stroke-miterlimit:10;" d="M 88.378906 141.230469 C 88.378906 143.839844 84.472656 143.839844 84.472656 141.230469 C 84.472656 138.625 88.378906 138.625 88.378906 141.230469 "/>
<path style="fill-rule:nonzero;fill:rgb(0%,0%,0%);fill-opacity:1;stroke-width:0.708661;stroke-linecap:round;stroke-linejoin:round;stroke:rgb(0%,0%,0%);stroke-opacity:1;stroke-miterlimit:10;" d="M 94.117188 145.953125 C 94.117188 148.558594 90.207031 148.558594 90.207031 145.953125 C 90.207031 143.347656 94.117188 143.347656 94.117188 145.953125 "/>
<path style="fill-rule:nonzero;fill:rgb(0%,0%,0%);fill-opacity:1;stroke-width:0.708661;stroke-linecap:round;stroke-linejoin:round;stroke:rgb(0%,0%,0%);stroke-opacity:1;stroke-miterlimit:10;" d="M 82.644531 138.765625 C 82.644531 141.375 78.734375 141.375 78.734375 138.765625 C 78.734375 136.160156 82.644531 136.160156 82.644531 138.765625 "/>
<path style="fill-rule:nonzero;fill:rgb(0%,0%,0%);fill-opacity:1;stroke-width:0.708661;stroke-linecap:round;stroke-linejoin:round;stroke:rgb(0%,0%,0%);stroke-opacity:1;stroke-miterlimit:10;" d="M 48.230469 145.777344 C 48.230469 148.386719 44.320312 148.386719 44.320312 145.777344 C 44.320312 143.171875 48.230469 143.171875 48.230469 145.777344 "/>
<path style="fill-rule:nonzero;fill:rgb(0%,0%,0%);fill-opacity:1;stroke-width:0.708661;stroke-linecap:round;stroke-linejoin:round;stroke:rgb(0%,0%,0%);stroke-opacity:1;stroke-miterlimit:10;" d="M 69.917969 165.761719 C 69.917969 168.367188 66.007812 168.367188 66.007812 165.761719 C 66.007812 163.15625 69.917969 163.15625 69.917969 165.761719 "/>
<path style="fill-rule:nonzero;fill:rgb(0%,0%,0%);fill-opacity:1;stroke-width:0.708661;stroke-linecap:round;stroke-linejoin:round;stroke:rgb(0%,0%,0%);stroke-opacity:1;stroke-miterlimit:10;" d="M 95.191406 123.28125 C 95.191406 125.886719 91.28125 125.886719 91.28125 123.28125 C 91.28125 120.671875 95.191406 120.671875 95.191406 123.28125 "/>
<path style="fill-rule:nonzero;fill:rgb(0%,0%,0%);fill-opacity:1;stroke-width:0.708661;stroke-linecap:round;stroke-linejoin:round;stroke:rgb(0%,0%,0%);stroke-opacity:1;stroke-miterlimit:10;" d="M 117.058594 125.992188 C 117.058594 128.597656 113.152344 128.597656 113.152344 125.992188 C 113.152344 123.382812 117.058594 123.382812 117.058594 125.992188 "/>
<path style="fill-rule:nonzero;fill:rgb(0%,0%,0%);fill-opacity:1;stroke-width:0.708661;stroke-linecap:round;stroke-linejoin:round;stroke:rgb(0%,0%,0%);stroke-opacity:1;stroke-miterlimit:10;" d="M 35.859375 120.4375 C 35.859375 123.042969 31.949219 123.042969 31.949219 120.4375 C 31.949219 117.828125 35.859375 117.828125 35.859375 120.4375 "/>
<path style="fill-rule:nonzero;fill:rgb(0%,0%,0%);fill-opacity:1;stroke-width:0.708661;stroke-linecap:round;stroke-linejoin:round;stroke:rgb(0%,0%,0%);stroke-opacity:1;stroke-miterlimit:10;" d="M 75.296875 140.863281 C 75.296875 143.46875 71.386719 143.46875 71.386719 140.863281 C 71.386719 138.257812 75.296875 138.257812 75.296875 140.863281 "/>
<path style="fill-rule:nonzero;fill:rgb(0%,0%,0%);fill-opacity:1;stroke-width:0.708661;stroke-linecap:round;stroke-linejoin:round;stroke:rgb(0%,0%,0%);stroke-opacity:1;stroke-miterlimit:10;" d="M 100.929688 129.003906 C 100.929688 131.609375 97.019531 131.609375 97.019531 129.003906 C 97.019531 126.398438 100.929688 126.398438 100.929688 129.003906 "/>
<path style="fill-rule:nonzero;fill:rgb(0%,0%,0%);fill-opacity:1;stroke-width:0.708661;stroke-linecap:round;stroke-linejoin:round;stroke:rgb(0%,0%,0%);stroke-opacity:1;stroke-miterlimit:10;" d="M 124.769531 95.617188 C 124.769531 98.222656 120.859375 98.222656 120.859375 95.617188 C 120.859375 93.011719 124.769531 93.011719 124.769531 95.617188 "/>
<path style="fill-rule:nonzero;fill:rgb(0%,0%,0%);fill-opacity:1;stroke-width:0.708661;stroke-linecap:round;stroke-linejoin:round;stroke:rgb(0%,0%,0%);stroke-opacity:1;stroke-miterlimit:10;" d="M 19.90625 88.382812 C 19.90625 90.988281 15.996094 90.988281 15.996094 88.382812 C 15.996094 85.777344 19.90625 85.777344 19.90625 88.382812 "/>
<path style="fill-rule:nonzero;fill:rgb(0%,0%,0%);fill-opacity:1;stroke-width:0.708661;stroke-linecap:round;stroke-linejoin:round;stroke:rgb(0%,0%,0%);stroke-opacity:1;stroke-miterlimit:10;" d="M 103.078125 106.714844 C 103.078125 109.320312 99.167969 109.320312 99.167969 106.714844 C 99.167969 104.109375 103.078125 104.109375 103.078125 106.714844 "/>
<path style="fill-rule:nonzero;fill:rgb(0%,0%,0%);fill-opacity:1;stroke-width:0.708661;stroke-linecap:round;stroke-linejoin:round;stroke:rgb(0%,0%,0%);stroke-opacity:1;stroke-miterlimit:10;" d="M 134.445312 101.582031 C 134.445312 104.1875 130.539062 104.1875 130.539062 101.582031 C 130.539062 98.972656 134.445312 98.972656 134.445312 101.582031 "/>
<path style="fill-rule:nonzero;fill:rgb(0%,0%,0%);fill-opacity:1;stroke-width:0.708661;stroke-linecap:round;stroke-linejoin:round;stroke:rgb(0%,0%,0%);stroke-opacity:1;stroke-miterlimit:10;" d="M 60.238281 119.699219 C 60.238281 122.304688 56.328125 122.304688 56.328125 119.699219 C 56.328125 117.09375 60.238281 117.09375 60.238281 119.699219 "/>
<path style="fill-rule:nonzero;fill:rgb(0%,0%,0%);fill-opacity:1;stroke-width:0.708661;stroke-linecap:round;stroke-linejoin:round;stroke:rgb(0%,0%,0%);stroke-opacity:1;stroke-miterlimit:10;" d="M 47.691406 127.667969 C 47.691406 130.273438 43.78125 130.273438 43.78125 127.667969 C 43.78125 125.058594 47.691406 125.058594 47.691406 127.667969 "/>
<path style="fill-rule:nonzero;fill:rgb(0%,0%,0%);fill-opacity:1;stroke-width:0.708661;stroke-linecap:round;stroke-linejoin:round;stroke:rgb(0%,0%,0%);stroke-opacity:1;stroke-miterlimit:10;" d="M 163.84375 72.390625 C 163.84375 75 159.933594 75 159.933594 72.390625 C 159.933594 69.785156 163.84375 69.785156 163.84375 72.390625 "/>
<path style="fill-rule:nonzero;fill:rgb(0%,0%,0%);fill-opacity:1;stroke-width:0.708661;stroke-linecap:round;stroke-linejoin:round;stroke:rgb(0%,0%,0%);stroke-opacity:1;stroke-miterlimit:10;" d="M 58.984375 130.570312 C 58.984375 133.175781 55.074219 133.175781 55.074219 130.570312 C 55.074219 127.964844 58.984375 127.964844 58.984375 130.570312 "/>
<path style="fill-rule:nonzero;fill:rgb(0%,0%,0%);fill-opacity:1;stroke-width:0.708661;stroke-linecap:round;stroke-linejoin:round;stroke:rgb(0%,0%,0%);stroke-opacity:1;stroke-miterlimit:10;" d="M 143.769531 89.453125 C 143.769531 92.058594 139.859375 92.058594 139.859375 89.453125 C 139.859375 86.847656 143.769531 86.847656 143.769531 89.453125 "/>
<path style="fill-rule:nonzero;fill:rgb(0%,0%,0%);fill-opacity:1;stroke-width:0.708661;stroke-linecap:round;stroke-linejoin:round;stroke:rgb(0%,0%,0%);stroke-opacity:1;stroke-miterlimit:10;" d="M 174.242188 79.445312 C 174.242188 82.050781 170.332031 82.050781 170.332031 79.445312 C 170.332031 76.839844 174.242188 76.839844 174.242188 79.445312 "/>
<path style="fill-rule:nonzero;fill:rgb(0%,0%,0%);fill-opacity:1;stroke-width:0.708661;stroke-linecap:round;stroke-linejoin:round;stroke:rgb(0%,0%,0%);stroke-opacity:1;stroke-miterlimit:10;" d="M 19.371094 174.28125 C 19.371094 176.886719 15.460938 176.886719 15.460938 174.28125 C 15.460938 171.675781 19.371094 171.675781 19.371094 174.28125 "/>
<path style="fill-rule:nonzero;fill:rgb(0%,0%,0%);fill-opacity:1;stroke-width:0.708661;stroke-linecap:round;stroke-linejoin:round;stroke:rgb(0%,0%,0%);stroke-opacity:1;stroke-miterlimit:10;" d="M 65.796875 173.773438 C 65.796875 176.378906 61.886719 176.378906 61.886719 173.773438 C 61.886719 171.164062 65.796875 171.164062 65.796875 173.773438 "/>
<path style="fill-rule:nonzero;fill:rgb(0%,0%,0%);fill-opacity:1;stroke-width:0.708661;stroke-linecap:round;stroke-linejoin:round;stroke:rgb(0%,0%,0%);stroke-opacity:1;stroke-miterlimit:10;" d="M 104.511719 157.019531 C 104.511719 159.625 100.601562 159.625 100.601562 157.019531 C 100.601562 154.410156 104.511719 154.410156 104.511719 157.019531 "/>
<path style="fill-rule:nonzero;fill:rgb(0%,0%,0%);fill-opacity:1;stroke-width:0.708661;stroke-linecap:round;stroke-linejoin:round;stroke:rgb(0%,0%,0%);stroke-opacity:1;stroke-miterlimit:10;" d="M 99.492188 140.355469 C 99.492188 142.960938 95.585938 142.960938 95.585938 140.355469 C 95.585938 137.75 99.492188 137.75 99.492188 140.355469 "/>
<path style="fill-rule:nonzero;fill:rgb(0%,0%,0%);fill-opacity:1;stroke-width:0.708661;stroke-linecap:round;stroke-linejoin:round;stroke:rgb(0%,0%,0%);stroke-opacity:1;stroke-miterlimit:10;" d="M 113.476562 141.335938 C 113.476562 143.941406 109.566406 143.941406 109.566406 141.335938 C 109.566406 138.730469 113.476562 138.730469 113.476562 141.335938 "/>
<path style="fill-rule:nonzero;fill:rgb(0%,0%,0%);fill-opacity:1;stroke-width:0.708661;stroke-linecap:round;stroke-linejoin:round;stroke:rgb(0%,0%,0%);stroke-opacity:1;stroke-miterlimit:10;" d="M 125.664062 133.574219 C 125.664062 136.179688 121.753906 136.179688 121.753906 133.574219 C 121.753906 130.96875 125.664062 130.96875 125.664062 133.574219 "/>
<path style="fill-rule:nonzero;fill:rgb(0%,0%,0%);fill-opacity:1;stroke-width:0.708661;stroke-linecap:round;stroke-linejoin:round;stroke:rgb(0%,0%,0%);stroke-opacity:1;stroke-miterlimit:10;" d="M 121.183594 120.238281 C 121.183594 122.84375 117.273438 122.84375 117.273438 120.238281 C 117.273438 117.628906 121.183594 117.628906 121.183594 120.238281 "/>
<path style="fill-rule:nonzero;fill:rgb(0%,0%,0%);fill-opacity:1;stroke-width:0.708661;stroke-linecap:round;stroke-linejoin:round;stroke:rgb(0%,0%,0%);stroke-opacity:1;stroke-miterlimit:10;" d="M 120.824219 130.96875 C 120.824219 133.574219 116.914062 133.574219 116.914062 130.96875 C 116.914062 128.363281 120.824219 128.363281 120.824219 130.96875 "/>
<path style="fill-rule:nonzero;fill:rgb(0%,0%,0%);fill-opacity:1;stroke-width:0.708661;stroke-linecap:round;stroke-linejoin:round;stroke:rgb(0%,0%,0%);stroke-opacity:1;stroke-miterlimit:10;" d="M 32.277344 123 C 32.277344 125.605469 28.367188 125.605469 28.367188 123 C 28.367188 120.390625 32.277344 120.390625 32.277344 123 "/>
<path style="fill-rule:nonzero;fill:rgb(0%,0%,0%);fill-opacity:1;stroke-width:0.708661;stroke-linecap:round;stroke-linejoin:round;stroke:rgb(0%,0%,0%);stroke-opacity:1;stroke-miterlimit:10;" d="M 135.164062 124.976562 C 135.164062 127.585938 131.253906 127.585938 131.253906 124.976562 C 131.253906 122.371094 135.164062 122.371094 135.164062 124.976562 "/>
<path style="fill-rule:nonzero;fill:rgb(0%,0%,0%);fill-opacity:1;stroke-width:0.708661;stroke-linecap:round;stroke-linejoin:round;stroke:rgb(0%,0%,0%);stroke-opacity:1;stroke-miterlimit:10;" d="M 139.824219 119.039062 C 139.824219 121.644531 135.914062 121.644531 135.914062 119.039062 C 135.914062 116.433594 139.824219 116.433594 139.824219 119.039062 "/>
<path style="fill-rule:nonzero;fill:rgb(0%,0%,0%);fill-opacity:1;stroke-width:0.708661;stroke-linecap:round;stroke-linejoin:round;stroke:rgb(0%,0%,0%);stroke-opacity:1;stroke-miterlimit:10;" d="M 23.824219 148.550781 C 23.824219 151.160156 19.917969 151.160156 19.917969 148.550781 C 19.917969 145.945312 23.824219 145.945312 23.824219 148.550781 "/>
<path style="fill-rule:nonzero;fill:rgb(0%,0%,0%);fill-opacity:1;stroke-width:0.708661;stroke-linecap:round;stroke-linejoin:round;stroke:rgb(0%,0%,0%);stroke-opacity:1;stroke-miterlimit:10;" d="M 107.117188 160.214844 C 107.117188 162.824219 103.207031 162.824219 103.207031 160.214844 C 103.207031 157.609375 107.117188 157.609375 107.117188 160.214844 "/>
<path style="fill-rule:nonzero;fill:rgb(0%,0%,0%);fill-opacity:1;stroke-width:0.708661;stroke-linecap:round;stroke-linejoin:round;stroke:rgb(0%,0%,0%);stroke-opacity:1;stroke-miterlimit:10;" d="M 34.066406 188.132812 C 34.066406 190.742188 30.160156 190.742188 30.160156 188.132812 C 30.160156 185.527344 34.066406 185.527344 34.066406 188.132812 "/>
<path style="fill-rule:nonzero;fill:rgb(0%,0%,0%);fill-opacity:1;stroke-width:0.708661;stroke-linecap:round;stroke-linejoin:round;stroke:rgb(0%,0%,0%);stroke-opacity:1;stroke-miterlimit:10;" d="M 28.871094 168.941406 C 28.871094 171.550781 24.960938 171.550781 24.960938 168.941406 C 24.960938 166.335938 28.871094 166.335938 28.871094 168.941406 "/>
<path style="fill-rule:nonzero;fill:rgb(0%,0%,0%);fill-opacity:1;stroke-width:0.708661;stroke-linecap:round;stroke-linejoin:round;stroke:rgb(0%,0%,0%);stroke-opacity:1;stroke-miterlimit:10;" d="M 43.566406 198.585938 C 43.566406 201.191406 39.660156 201.191406 39.660156 198.585938 C 39.660156 195.980469 43.566406 195.980469 43.566406 198.585938 "/>
<path style="fill-rule:nonzero;fill:rgb(0%,0%,0%);fill-opacity:1;stroke-width:0.708661;stroke-linecap:round;stroke-linejoin:round;stroke:rgb(0%,0%,0%);stroke-opacity:1;stroke-miterlimit:10;" d="M 124.230469 132.894531 C 124.230469 135.5 120.320312 135.5 120.320312 132.894531 C 120.320312 130.289062 124.230469 130.289062 124.230469 132.894531 "/>
<path style="fill-rule:nonzero;fill:rgb(0%,0%,0%);fill-opacity:1;stroke-width:0.708661;stroke-linecap:round;stroke-linejoin:round;stroke:rgb(0%,0%,0%);stroke-opacity:1;stroke-miterlimit:10;" d="M 153.449219 111.203125 C 153.449219 113.808594 149.539062 113.808594 149.539062 111.203125 C 149.539062 108.597656 153.449219 108.597656 153.449219 111.203125 "/>
<path style="fill-rule:nonzero;fill:rgb(0%,0%,0%);fill-opacity:1;stroke-width:0.708661;stroke-linecap:round;stroke-linejoin:round;stroke:rgb(0%,0%,0%);stroke-opacity:1;stroke-miterlimit:10;" d="M 136.597656 126.660156 C 136.597656 129.265625 132.6875 129.265625 132.6875 126.660156 C 132.6875 124.054688 136.597656 124.054688 136.597656 126.660156 "/>
<path style="fill-rule:nonzero;fill:rgb(0%,0%,0%);fill-opacity:1;stroke-width:0.708661;stroke-linecap:round;stroke-linejoin:round;stroke:rgb(0%,0%,0%);stroke-opacity:1;stroke-miterlimit:10;" d="M 110.25 136.925781 C 110.25 139.53125 106.339844 139.53125 106.339844 136.925781 C 106.339844 134.320312 110.25 134.320312 110.25 136.925781 "/>
<path style="fill-rule:nonzero;fill:rgb(0%,0%,0%);fill-opacity:1;stroke-width:0.708661;stroke-linecap:round;stroke-linejoin:round;stroke:rgb(0%,0%,0%);stroke-opacity:1;stroke-miterlimit:10;" d="M 124.589844 136.449219 C 124.589844 139.054688 120.679688 139.054688 120.679688 136.449219 C 120.679688 133.84375 124.589844 133.84375 124.589844 136.449219 "/>
<path style="fill-rule:nonzero;fill:rgb(0%,0%,0%);fill-opacity:1;stroke-width:0.708661;stroke-linecap:round;stroke-linejoin:round;stroke:rgb(0%,0%,0%);stroke-opacity:1;stroke-miterlimit:10;" d="M 160.257812 95.507812 C 160.257812 98.113281 156.347656 98.113281 156.347656 95.507812 C 156.347656 92.902344 160.257812 92.902344 160.257812 95.507812 "/>
<path style="fill-rule:nonzero;fill:rgb(0%,0%,0%);fill-opacity:1;stroke-width:0.708661;stroke-linecap:round;stroke-linejoin:round;stroke:rgb(0%,0%,0%);stroke-opacity:1;stroke-miterlimit:10;" d="M 29.226562 134.652344 C 29.226562 137.257812 25.320312 137.257812 25.320312 134.652344 C 25.320312 132.046875 29.226562 132.046875 29.226562 134.652344 "/>
<path style="fill-rule:nonzero;fill:rgb(0%,0%,0%);fill-opacity:1;stroke-width:0.708661;stroke-linecap:round;stroke-linejoin:round;stroke:rgb(0%,0%,0%);stroke-opacity:1;stroke-miterlimit:10;" d="M 19.90625 65.574219 C 19.90625 68.179688 15.996094 68.179688 15.996094 65.574219 C 15.996094 62.96875 19.90625 62.96875 19.90625 65.574219 "/>
<path style="fill-rule:nonzero;fill:rgb(0%,0%,0%);fill-opacity:1;stroke-width:0.708661;stroke-linecap:round;stroke-linejoin:round;stroke:rgb(0%,0%,0%);stroke-opacity:1;stroke-miterlimit:10;" d="M 23.492188 142.964844 C 23.492188 145.570312 19.582031 145.570312 19.582031 142.964844 C 19.582031 140.355469 23.492188 140.355469 23.492188 142.964844 "/>
<path style="fill-rule:nonzero;fill:rgb(0%,0%,0%);fill-opacity:1;stroke-width:0.708661;stroke-linecap:round;stroke-linejoin:round;stroke:rgb(0%,0%,0%);stroke-opacity:1;stroke-miterlimit:10;" d="M 35.324219 138.664062 C 35.324219 141.273438 31.414062 141.273438 31.414062 138.664062 C 31.414062 136.058594 35.324219 136.058594 35.324219 138.664062 "/>
<path style="fill-rule:nonzero;fill:rgb(0%,0%,0%);fill-opacity:1;stroke-width:0.708661;stroke-linecap:round;stroke-linejoin:round;stroke:rgb(0%,0%,0%);stroke-opacity:1;stroke-miterlimit:10;" d="M 84.617188 168.835938 C 84.617188 171.441406 80.707031 171.441406 80.707031 168.835938 C 80.707031 166.230469 84.617188 166.230469 84.617188 168.835938 "/>
<path style="fill-rule:nonzero;fill:rgb(0%,0%,0%);fill-opacity:1;stroke-width:0.708661;stroke-linecap:round;stroke-linejoin:round;stroke:rgb(0%,0%,0%);stroke-opacity:1;stroke-miterlimit:10;" d="M 99.492188 151.632812 C 99.492188 154.238281 95.585938 154.238281 95.585938 151.632812 C 95.585938 149.027344 99.492188 149.027344 99.492188 151.632812 "/>
<path style="fill-rule:nonzero;fill:rgb(0%,0%,0%);fill-opacity:1;stroke-width:0.708661;stroke-linecap:round;stroke-linejoin:round;stroke:rgb(0%,0%,0%);stroke-opacity:1;stroke-miterlimit:10;" d="M 143.410156 135.773438 C 143.410156 138.382812 139.5 138.382812 139.5 135.773438 C 139.5 133.167969 143.410156 133.167969 143.410156 135.773438 "/>
<path style="fill-rule:nonzero;fill:rgb(0%,0%,0%);fill-opacity:1;stroke-width:0.708661;stroke-linecap:round;stroke-linejoin:round;stroke:rgb(0%,0%,0%);stroke-opacity:1;stroke-miterlimit:10;" d="M 122.976562 132.992188 C 122.976562 135.597656 119.066406 135.597656 119.066406 132.992188 C 119.066406 130.382812 122.976562 130.382812 122.976562 132.992188 "/>
<path style="fill-rule:nonzero;fill:rgb(0%,0%,0%);fill-opacity:1;stroke-width:0.708661;stroke-linecap:round;stroke-linejoin:round;stroke:rgb(0%,0%,0%);stroke-opacity:1;stroke-miterlimit:10;" d="M 20.445312 44.589844 C 20.445312 47.195312 16.535156 47.195312 16.535156 44.589844 C 16.535156 41.984375 20.445312 41.984375 20.445312 44.589844 "/>
<path style="fill-rule:nonzero;fill:rgb(0%,0%,0%);fill-opacity:1;stroke-width:0.708661;stroke-linecap:round;stroke-linejoin:round;stroke:rgb(0%,0%,0%);stroke-opacity:1;stroke-miterlimit:10;" d="M 106.125 151.453125 C 106.125 154.058594 102.214844 154.058594 102.214844 151.453125 C 102.214844 148.847656 106.125 148.847656 106.125 151.453125 "/>
<path style="fill-rule:nonzero;fill:rgb(0%,0%,0%);fill-opacity:1;stroke-width:0.708661;stroke-linecap:round;stroke-linejoin:round;stroke:rgb(0%,0%,0%);stroke-opacity:1;stroke-miterlimit:10;" d="M 113.652344 139.855469 C 113.652344 142.460938 109.746094 142.460938 109.746094 139.855469 C 109.746094 137.25 113.652344 137.25 113.652344 139.855469 "/>
<path style="fill-rule:nonzero;fill:rgb(0%,0%,0%);fill-opacity:1;stroke-width:0.708661;stroke-linecap:round;stroke-linejoin:round;stroke:rgb(0%,0%,0%);stroke-opacity:1;stroke-miterlimit:10;" d="M 136.957031 137.230469 C 136.957031 139.835938 133.046875 139.835938 133.046875 137.230469 C 133.046875 134.625 136.957031 134.625 136.957031 137.230469 "/>
<path style="fill-rule:nonzero;fill:rgb(0%,0%,0%);fill-opacity:1;stroke-width:0.708661;stroke-linecap:round;stroke-linejoin:round;stroke:rgb(0%,0%,0%);stroke-opacity:1;stroke-miterlimit:10;" d="M 104.871094 159.316406 C 104.871094 161.925781 100.960938 161.925781 100.960938 159.316406 C 100.960938 156.710938 104.871094 156.710938 104.871094 159.316406 "/>
<path style="fill-rule:nonzero;fill:rgb(0%,0%,0%);fill-opacity:1;stroke-width:0.708661;stroke-linecap:round;stroke-linejoin:round;stroke:rgb(0%,0%,0%);stroke-opacity:1;stroke-miterlimit:10;" d="M 27.613281 61.769531 C 27.613281 64.375 23.707031 64.375 23.707031 61.769531 C 23.707031 59.164062 27.613281 59.164062 27.613281 61.769531 "/>
<path style="fill-rule:nonzero;fill:rgb(0%,0%,0%);fill-opacity:1;stroke-width:0.708661;stroke-linecap:round;stroke-linejoin:round;stroke:rgb(0%,0%,0%);stroke-opacity:1;stroke-miterlimit:10;" d="M 127.996094 135.867188 C 127.996094 138.476562 124.085938 138.476562 124.085938 135.867188 C 124.085938 133.261719 127.996094 133.261719 127.996094 135.867188 "/>
<path style="fill-rule:nonzero;fill:rgb(0%,0%,0%);fill-opacity:1;stroke-width:0.708661;stroke-linecap:round;stroke-linejoin:round;stroke:rgb(0%,0%,0%);stroke-opacity:1;stroke-miterlimit:10;" d="M 27.972656 40.507812 C 27.972656 43.117188 24.0625 43.117188 24.0625 40.507812 C 24.0625 37.902344 27.972656 37.902344 27.972656 40.507812 "/>
<path style="fill-rule:nonzero;fill:rgb(0%,0%,0%);fill-opacity:1;stroke-width:0.708661;stroke-linecap:round;stroke-linejoin:round;stroke:rgb(0%,0%,0%);stroke-opacity:1;stroke-miterlimit:10;" d="M 165.996094 93.710938 C 165.996094 96.316406 162.085938 96.316406 162.085938 93.710938 C 162.085938 91.105469 165.996094 91.105469 165.996094 93.710938 "/>
<path style="fill-rule:nonzero;fill:rgb(0%,0%,0%);fill-opacity:1;stroke-width:0.708661;stroke-linecap:round;stroke-linejoin:round;stroke:rgb(0%,0%,0%);stroke-opacity:1;stroke-miterlimit:10;" d="M 31.558594 151.730469 C 31.558594 154.339844 27.648438 154.339844 27.648438 151.730469 C 27.648438 149.125 31.558594 149.125 31.558594 151.730469 "/>
<path style="fill-rule:nonzero;fill:rgb(0%,0%,0%);fill-opacity:1;stroke-width:0.708661;stroke-linecap:round;stroke-linejoin:round;stroke:rgb(0%,0%,0%);stroke-opacity:1;stroke-miterlimit:10;" d="M 70.632812 187.90625 C 70.632812 190.511719 66.726562 190.511719 66.726562 187.90625 C 66.726562 185.300781 70.632812 185.300781 70.632812 187.90625 "/>
<path style="fill-rule:nonzero;fill:rgb(0%,0%,0%);fill-opacity:1;stroke-width:0.708661;stroke-linecap:round;stroke-linejoin:round;stroke:rgb(0%,0%,0%);stroke-opacity:1;stroke-miterlimit:10;" d="M 114.550781 158.261719 C 114.550781 160.867188 110.640625 160.867188 110.640625 158.261719 C 110.640625 155.65625 114.550781 155.65625 114.550781 158.261719 "/>
<path style="fill-rule:nonzero;fill:rgb(0%,0%,0%);fill-opacity:1;stroke-width:0.708661;stroke-linecap:round;stroke-linejoin:round;stroke:rgb(0%,0%,0%);stroke-opacity:1;stroke-miterlimit:10;" d="M 119.570312 162.644531 C 119.570312 165.25 115.660156 165.25 115.660156 162.644531 C 115.660156 160.039062 119.570312 160.039062 119.570312 162.644531 "/>
<path style="fill-rule:nonzero;fill:rgb(0%,0%,0%);fill-opacity:1;stroke-width:0.708661;stroke-linecap:round;stroke-linejoin:round;stroke:rgb(0%,0%,0%);stroke-opacity:1;stroke-miterlimit:10;" d="M 141.4375 136.53125 C 141.4375 139.140625 137.527344 139.140625 137.527344 136.53125 C 137.527344 133.925781 141.4375 133.925781 141.4375 136.53125 "/>
<path style="fill-rule:nonzero;fill:rgb(0%,0%,0%);fill-opacity:1;stroke-width:0.708661;stroke-linecap:round;stroke-linejoin:round;stroke:rgb(0%,0%,0%);stroke-opacity:1;stroke-miterlimit:10;" d="M 132.476562 143.441406 C 132.476562 146.046875 128.566406 146.046875 128.566406 143.441406 C 128.566406 140.835938 132.476562 140.835938 132.476562 143.441406 "/>
<path style="fill-rule:nonzero;fill:rgb(0%,0%,0%);fill-opacity:1;stroke-width:0.708661;stroke-linecap:round;stroke-linejoin:round;stroke:rgb(0%,0%,0%);stroke-opacity:1;stroke-miterlimit:10;" d="M 97.703125 134.367188 C 97.703125 136.972656 93.792969 136.972656 93.792969 134.367188 C 93.792969 131.761719 97.703125 131.761719 97.703125 134.367188 "/>
<path style="fill-rule:nonzero;fill:rgb(0%,0%,0%);fill-opacity:1;stroke-width:0.708661;stroke-linecap:round;stroke-linejoin:round;stroke:rgb(0%,0%,0%);stroke-opacity:1;stroke-miterlimit:10;" d="M 84.078125 75.285156 C 84.078125 77.890625 80.167969 77.890625 80.167969 75.285156 C 80.167969 72.679688 84.078125 72.679688 84.078125 75.285156 "/>
<path style="fill-rule:nonzero;fill:rgb(0%,0%,0%);fill-opacity:1;stroke-width:0.708661;stroke-linecap:round;stroke-linejoin:round;stroke:rgb(0%,0%,0%);stroke-opacity:1;stroke-miterlimit:10;" d="M 88.378906 68.800781 C 88.378906 71.40625 84.472656 71.40625 84.472656 68.800781 C 84.472656 66.195312 88.378906 66.195312 88.378906 68.800781 "/>
<path style="fill-rule:nonzero;fill:rgb(0%,0%,0%);fill-opacity:1;stroke-width:0.708661;stroke-linecap:round;stroke-linejoin:round;stroke:rgb(0%,0%,0%);stroke-opacity:1;stroke-miterlimit:10;" d="M 100.75 67.828125 C 100.75 70.433594 96.839844 70.433594 96.839844 67.828125 C 96.839844 65.222656 100.75 65.222656 100.75 67.828125 "/>
<path style="fill-rule:nonzero;fill:rgb(0%,0%,0%);fill-opacity:1;stroke-width:0.708661;stroke-linecap:round;stroke-linejoin:round;stroke:rgb(0%,0%,0%);stroke-opacity:1;stroke-miterlimit:10;" d="M 38.90625 70.9375 C 38.90625 73.542969 35 73.542969 35 70.9375 C 35 68.332031 38.90625 68.332031 38.90625 70.9375 "/>
<path style="fill-rule:nonzero;fill:rgb(0%,0%,0%);fill-opacity:1;stroke-width:0.708661;stroke-linecap:round;stroke-linejoin:round;stroke:rgb(0%,0%,0%);stroke-opacity:1;stroke-miterlimit:10;" d="M 135.164062 86.128906 C 135.164062 88.734375 131.253906 88.734375 131.253906 86.128906 C 131.253906 83.523438 135.164062 83.523438 135.164062 86.128906 "/>
<path style="fill-rule:nonzero;fill:rgb(0%,0%,0%);fill-opacity:1;stroke-width:0.708661;stroke-linecap:round;stroke-linejoin:round;stroke:rgb(0%,0%,0%);stroke-opacity:1;stroke-miterlimit:10;" d="M 124.050781 90.765625 C 124.050781 93.371094 120.140625 93.371094 120.140625 90.765625 C 120.140625 88.160156 124.050781 88.160156 124.050781 90.765625 "/>
<path style="fill-rule:nonzero;fill:rgb(0%,0%,0%);fill-opacity:1;stroke-width:0.708661;stroke-linecap:round;stroke-linejoin:round;stroke:rgb(0%,0%,0%);stroke-opacity:1;stroke-miterlimit:10;" d="M 24.566406 24.046875 C 24.566406 26.652344 20.65625 26.652344 20.65625 24.046875 C 20.65625 21.441406 24.566406 21.441406 24.566406 24.046875 "/>
<path style="fill-rule:nonzero;fill:rgb(0%,0%,0%);fill-opacity:1;stroke-width:0.708661;stroke-linecap:round;stroke-linejoin:round;stroke:rgb(0%,0%,0%);stroke-opacity:1;stroke-miterlimit:10;" d="M 153.628906 74.382812 C 153.628906 76.988281 149.71875 76.988281 149.71875 74.382812 C 149.71875 71.777344 153.628906 71.777344 153.628906 74.382812 "/>
<path style="fill-rule:nonzero;fill:rgb(0%,0%,0%);fill-opacity:1;stroke-width:0.708661;stroke-linecap:round;stroke-linejoin:round;stroke:rgb(0%,0%,0%);stroke-opacity:1;stroke-miterlimit:10;" d="M 132.117188 86.003906 C 132.117188 88.609375 128.207031 88.609375 128.207031 86.003906 C 128.207031 83.394531 132.117188 83.394531 132.117188 86.003906 "/>
<path style="fill-rule:nonzero;fill:rgb(0%,0%,0%);fill-opacity:1;stroke-width:0.708661;stroke-linecap:round;stroke-linejoin:round;stroke:rgb(0%,0%,0%);stroke-opacity:1;stroke-miterlimit:10;" d="M 96.445312 125.441406 C 96.445312 128.046875 92.539062 128.046875 92.539062 125.441406 C 92.539062 122.832031 96.445312 122.832031 96.445312 125.441406 "/>
<path style="fill-rule:nonzero;fill:rgb(0%,0%,0%);fill-opacity:1;stroke-width:0.708661;stroke-linecap:round;stroke-linejoin:round;stroke:rgb(0%,0%,0%);stroke-opacity:1;stroke-miterlimit:10;" d="M 129.609375 86.191406 C 129.609375 88.796875 125.699219 88.796875 125.699219 86.191406 C 125.699219 83.585938 129.609375 83.585938 129.609375 86.191406 "/>
<path style="fill-rule:nonzero;fill:rgb(0%,0%,0%);fill-opacity:1;stroke-width:0.708661;stroke-linecap:round;stroke-linejoin:round;stroke:rgb(0%,0%,0%);stroke-opacity:1;stroke-miterlimit:10;" d="M 118.675781 83.082031 C 118.675781 85.6875 114.765625 85.6875 114.765625 83.082031 C 114.765625 80.476562 118.675781 80.476562 118.675781 83.082031 "/>
<path style="fill-rule:nonzero;fill:rgb(0%,0%,0%);fill-opacity:1;stroke-width:0.708661;stroke-linecap:round;stroke-linejoin:round;stroke:rgb(0%,0%,0%);stroke-opacity:1;stroke-miterlimit:10;" d="M 119.570312 84.949219 C 119.570312 87.554688 115.660156 87.554688 115.660156 84.949219 C 115.660156 82.339844 119.570312 82.339844 119.570312 84.949219 "/>
</g>
</svg>
