<?xml version="1.0" encoding="UTF-8"?>
<svg xmlns="http://www.w3.org/2000/svg" xmlns:xlink="http://www.w3.org/1999/xlink" width="144pt" height="144pt" viewBox="0 0 144 144" version="1.1">
<defs>
<clipPath id="clip1">
  <path d="M 8.21875 5.480469 L 138.519531 5.480469 L 138.519531 135.78125 L 8.21875 135.78125 Z M 8.21875 5.480469 "/>
</clipPath>
<clipPath id="clip2">
  <path d="M 8.21875 117 L 138.519531 117 L 138.519531 118 L 8.21875 118 Z M 8.21875 117 "/>
</clipPath>
<clipPath id="clip3">
  <path d="M 8.21875 85 L 138.519531 85 L 138.519531 86 L 8.21875 86 Z M 8.21875 85 "/>
</clipPath>
<clipPath id="clip4">
  <path d="M 8.21875 52 L 138.519531 52 L 138.519531 54 L 8.21875 54 Z M 8.21875 52 "/>
</clipPath>
<clipPath id="clip5">
  <path d="M 8.21875 20 L 138.519531 20 L 138.519531 22 L 8.21875 22 Z M 8.21875 20 "/>
</clipPath>
<clipPath id="clip6">
  <path d="M 23 5.480469 L 25 5.480469 L 25 135.78125 L 23 135.78125 Z M 23 5.480469 "/>
</clipPath>
<clipPath id="clip7">
  <path d="M 58 5.480469 L 60 5.480469 L 60 135.78125 L 58 135.78125 Z M 58 5.480469 "/>
</clipPath>
<clipPath id="clip8">
  <path d="M 93 5.480469 L 94 5.480469 L 94 135.78125 L 93 135.78125 Z M 93 5.480469 "/>
</clipPath>
<clipPath id="clip9">
  <path d="M 127 5.480469 L 129 5.480469 L 129 135.78125 L 127 135.78125 Z M 127 5.480469 "/>
</clipPath>
<clipPath id="clip10">
  <path d="M 8.21875 133 L 138.519531 133 L 138.519531 135 L 8.21875 135 Z M 8.21875 133 "/>
</clipPath>
<clipPath id="clip11">
  <path d="M 8.21875 100 L 138.519531 100 L 138.519531 102 L 8.21875 102 Z M 8.21875 100 "/>
</clipPath>
<clipPath id="clip12">
  <path d="M 8.21875 68 L 138.519531 68 L 138.519531 70 L 8.21875 70 Z M 8.21875 68 "/>
</clipPath>
<clipPath id="clip13">
  <path d="M 8.21875 36 L 138.519531 36 L 138.519531 38 L 8.21875 38 Z M 8.21875 36 "/>
</clipPath>
<clipPath id="clip14">
  <path d="M 40 5.480469 L 43 5.480469 L 43 135.78125 L 40 135.78125 Z M 40 5.480469 "/>
</clipPath>
<clipPath id="clip15">
  <path d="M 75 5.480469 L 77 5.480469 L 77 135.78125 L 75 135.78125 Z M 75 5.480469 "/>
</clipPath>
<clipPath id="clip16">
  <path d="M 110 5.480469 L 112 5.480469 L 112 135.78125 L 110 135.78125 Z M 110 5.480469 "/>
</clipPath>
<clipPath id="clip17">
  <path d="M 8.21875 68 L 138.519531 68 L 138.519531 70 L 8.21875 70 Z M 8.21875 68 "/>
</clipPath>
<clipPath id="clip18">
  <path d="M 8.21875 5.480469 L 138.519531 5.480469 L 138.519531 135.78125 L 8.21875 135.78125 Z M 8.21875 5.480469 "/>
</clipPath>
</defs>
<g id="surface59">
<rect x="0" y="0" width="144" height="144" style="fill:rgb(100%,100%,100%);fill-opacity:1;stroke:none;"/>
<rect x="0" y="0" width="144" height="144" style="fill:rgb(100%,100%,100%);fill-opacity:1;stroke:none;"/>
<path style="fill:none;stroke-width:1.066978;stroke-linecap:round;stroke-linejoin:round;stroke:rgb(100%,100%,100%);stroke-opacity:1;stroke-miterlimit:10;" d="M 0 144 L 144 144 L 144 0 L 0 0 Z M 0 144 "/>
<g clip-path="url(#clip1)" clip-rule="nonzero">
<path style=" stroke:none;fill-rule:nonzero;fill:rgb(100%,100%,100%);fill-opacity:1;" d="M 8.21875 135.78125 L 138.519531 135.78125 L 138.519531 5.480469 L 8.21875 5.480469 Z M 8.21875 135.78125 "/>
</g>
<g clip-path="url(#clip2)" clip-rule="nonzero">
<path style="fill:none;stroke-width:0.533489;stroke-linecap:butt;stroke-linejoin:round;stroke:rgb(92.156863%,92.156863%,92.156863%);stroke-opacity:1;stroke-miterlimit:10;" d="M 8.21875 117.457031 L 138.519531 117.457031 "/>
</g>
<g clip-path="url(#clip3)" clip-rule="nonzero">
<path style="fill:none;stroke-width:0.533489;stroke-linecap:butt;stroke-linejoin:round;stroke:rgb(92.156863%,92.156863%,92.156863%);stroke-opacity:1;stroke-miterlimit:10;" d="M 8.21875 85.300781 L 138.519531 85.300781 "/>
</g>
<g clip-path="url(#clip4)" clip-rule="nonzero">
<path style="fill:none;stroke-width:0.533489;stroke-linecap:butt;stroke-linejoin:round;stroke:rgb(92.156863%,92.156863%,92.156863%);stroke-opacity:1;stroke-miterlimit:10;" d="M 8.21875 53.144531 L 138.519531 53.144531 "/>
</g>
<g clip-path="url(#clip5)" clip-rule="nonzero">
<path style="fill:none;stroke-width:0.533489;stroke-linecap:butt;stroke-linejoin:round;stroke:rgb(92.156863%,92.156863%,92.156863%);stroke-opacity:1;stroke-miterlimit:10;" d="M 8.21875 20.988281 L 138.519531 20.988281 "/>
</g>
<g clip-path="url(#clip6)" clip-rule="nonzero">
<path style="fill:none;stroke-width:0.533489;stroke-linecap:butt;stroke-linejoin:round;stroke:rgb(92.156863%,92.156863%,92.156863%);stroke-opacity:1;stroke-miterlimit:10;" d="M 24.1875 135.78125 L 24.1875 5.480469 "/>
</g>
<g clip-path="url(#clip7)" clip-rule="nonzero">
<path style="fill:none;stroke-width:0.533489;stroke-linecap:butt;stroke-linejoin:round;stroke:rgb(92.156863%,92.156863%,92.156863%);stroke-opacity:1;stroke-miterlimit:10;" d="M 58.824219 135.78125 L 58.824219 5.480469 "/>
</g>
<g clip-path="url(#clip8)" clip-rule="nonzero">
<path style="fill:none;stroke-width:0.533489;stroke-linecap:butt;stroke-linejoin:round;stroke:rgb(92.156863%,92.156863%,92.156863%);stroke-opacity:1;stroke-miterlimit:10;" d="M 93.457031 135.78125 L 93.457031 5.480469 "/>
</g>
<g clip-path="url(#clip9)" clip-rule="nonzero">
<path style="fill:none;stroke-width:0.533489;stroke-linecap:butt;stroke-linejoin:round;stroke:rgb(92.156863%,92.156863%,92.156863%);stroke-opacity:1;stroke-miterlimit:10;" d="M 128.09375 135.78125 L 128.09375 5.480469 "/>
</g>
<g clip-path="url(#clip10)" clip-rule="nonzero">
<path style="fill:none;stroke-width:1.066978;stroke-linecap:butt;stroke-linejoin:round;stroke:rgb(92.156863%,92.156863%,92.156863%);stroke-opacity:1;stroke-miterlimit:10;" d="M 8.21875 133.535156 L 138.519531 133.535156 "/>
</g>
<g clip-path="url(#clip11)" clip-rule="nonzero">
<path style="fill:none;stroke-width:1.066978;stroke-linecap:butt;stroke-linejoin:round;stroke:rgb(92.156863%,92.156863%,92.156863%);stroke-opacity:1;stroke-miterlimit:10;" d="M 8.21875 101.378906 L 138.519531 101.378906 "/>
</g>
<g clip-path="url(#clip12)" clip-rule="nonzero">
<path style="fill:none;stroke-width:1.066978;stroke-linecap:butt;stroke-linejoin:round;stroke:rgb(92.156863%,92.156863%,92.156863%);stroke-opacity:1;stroke-miterlimit:10;" d="M 8.21875 69.222656 L 138.519531 69.222656 "/>
</g>
<g clip-path="url(#clip13)" clip-rule="nonzero">
<path style="fill:none;stroke-width:1.066978;stroke-linecap:butt;stroke-linejoin:round;stroke:rgb(92.156863%,92.156863%,92.156863%);stroke-opacity:1;stroke-miterlimit:10;" d="M 8.21875 37.066406 L 138.519531 37.066406 "/>
</g>
<g clip-path="url(#clip14)" clip-rule="nonzero">
<path style="fill:none;stroke-width:1.066978;stroke-linecap:butt;stroke-linejoin:round;stroke:rgb(92.156863%,92.156863%,92.156863%);stroke-opacity:1;stroke-miterlimit:10;" d="M 41.503906 135.78125 L 41.503906 5.480469 "/>
</g>
<g clip-path="url(#clip15)" clip-rule="nonzero">
<path style="fill:none;stroke-width:1.066978;stroke-linecap:butt;stroke-linejoin:round;stroke:rgb(92.156863%,92.156863%,92.156863%);stroke-opacity:1;stroke-miterlimit:10;" d="M 76.140625 135.78125 L 76.140625 5.480469 "/>
</g>
<g clip-path="url(#clip16)" clip-rule="nonzero">
<path style="fill:none;stroke-width:1.066978;stroke-linecap:butt;stroke-linejoin:round;stroke:rgb(92.156863%,92.156863%,92.156863%);stroke-opacity:1;stroke-miterlimit:10;" d="M 110.777344 135.78125 L 110.777344 5.480469 "/>
</g>
<g clip-path="url(#clip17)" clip-rule="nonzero">
<path style="fill:none;stroke-width:1.066978;stroke-linecap:butt;stroke-linejoin:round;stroke:rgb(30.196078%,30.196078%,30.196078%);stroke-opacity:1;stroke-dasharray:4.267913,4.267913;stroke-miterlimit:10;" d="M 8.21875 69.222656 L 138.519531 69.222656 "/>
</g>
<path style="fill:none;stroke-width:0.708661;stroke-linecap:round;stroke-linejoin:round;stroke:rgb(0%,0%,0%);stroke-opacity:1;stroke-miterlimit:10;" d="M 16.097656 74.8125 C 16.097656 77.417969 12.1875 77.417969 12.1875 74.8125 C 12.1875 72.203125 16.097656 72.203125 16.097656 74.8125 "/>
<path style="fill:none;stroke-width:0.708661;stroke-linecap:round;stroke-linejoin:round;stroke:rgb(0%,0%,0%);stroke-opacity:1;stroke-miterlimit:10;" d="M 17.019531 53.625 C 17.019531 56.234375 13.109375 56.234375 13.109375 53.625 C 13.109375 51.019531 17.019531 51.019531 17.019531 53.625 "/>
<path style="fill:none;stroke-width:0.708661;stroke-linecap:round;stroke-linejoin:round;stroke:rgb(0%,0%,0%);stroke-opacity:1;stroke-miterlimit:10;" d="M 22.101562 52.488281 C 22.101562 55.09375 18.191406 55.09375 18.191406 52.488281 C 18.191406 49.878906 22.101562 49.878906 22.101562 52.488281 "/>
<path style="fill:none;stroke-width:0.708661;stroke-linecap:round;stroke-linejoin:round;stroke:rgb(0%,0%,0%);stroke-opacity:1;stroke-miterlimit:10;" d="M 32.835938 50.886719 C 32.835938 53.492188 28.929688 53.492188 28.929688 50.886719 C 28.929688 48.28125 32.835938 48.28125 32.835938 50.886719 "/>
<path style="fill:none;stroke-width:0.708661;stroke-linecap:round;stroke-linejoin:round;stroke:rgb(0%,0%,0%);stroke-opacity:1;stroke-miterlimit:10;" d="M 57.890625 51.316406 C 57.890625 53.925781 53.980469 53.925781 53.980469 51.316406 C 53.980469 48.710938 57.890625 48.710938 57.890625 51.316406 "/>
<path style="fill:none;stroke-width:0.708661;stroke-linecap:round;stroke-linejoin:round;stroke:rgb(0%,0%,0%);stroke-opacity:1;stroke-miterlimit:10;" d="M 41.84375 47.40625 C 41.84375 50.011719 37.933594 50.011719 37.933594 47.40625 C 37.933594 44.796875 41.84375 44.796875 41.84375 47.40625 "/>
<path style="fill:none;stroke-width:0.708661;stroke-linecap:round;stroke-linejoin:round;stroke:rgb(0%,0%,0%);stroke-opacity:1;stroke-miterlimit:10;" d="M 72.09375 66.9375 C 72.09375 69.542969 68.183594 69.542969 68.183594 66.9375 C 68.183594 64.328125 72.09375 64.328125 72.09375 66.9375 "/>
<path style="fill:none;stroke-width:0.708661;stroke-linecap:round;stroke-linejoin:round;stroke:rgb(0%,0%,0%);stroke-opacity:1;stroke-miterlimit:10;" d="M 85.023438 83.121094 C 85.023438 85.726562 81.113281 85.726562 81.113281 83.121094 C 81.113281 80.515625 85.023438 80.515625 85.023438 83.121094 "/>
<path style="fill:none;stroke-width:0.708661;stroke-linecap:round;stroke-linejoin:round;stroke:rgb(0%,0%,0%);stroke-opacity:1;stroke-miterlimit:10;" d="M 17.945312 64.007812 C 17.945312 66.613281 14.035156 66.613281 14.035156 64.007812 C 14.035156 61.402344 17.945312 61.402344 17.945312 64.007812 "/>
<path style="fill:none;stroke-width:0.708661;stroke-linecap:round;stroke-linejoin:round;stroke:rgb(0%,0%,0%);stroke-opacity:1;stroke-miterlimit:10;" d="M 19.097656 54.574219 C 19.097656 57.179688 15.1875 57.179688 15.1875 54.574219 C 15.1875 51.964844 19.097656 51.964844 19.097656 54.574219 "/>
<path style="fill:none;stroke-width:0.708661;stroke-linecap:round;stroke-linejoin:round;stroke:rgb(0%,0%,0%);stroke-opacity:1;stroke-miterlimit:10;" d="M 16.90625 52.464844 C 16.90625 55.074219 12.996094 55.074219 12.996094 52.464844 C 12.996094 49.859375 16.90625 49.859375 16.90625 52.464844 "/>
<path style="fill:none;stroke-width:0.708661;stroke-linecap:round;stroke-linejoin:round;stroke:rgb(0%,0%,0%);stroke-opacity:1;stroke-miterlimit:10;" d="M 27.640625 71.425781 C 27.640625 74.03125 23.734375 74.03125 23.734375 71.425781 C 23.734375 68.820312 27.640625 68.820312 27.640625 71.425781 "/>
<path style="fill:none;stroke-width:0.708661;stroke-linecap:round;stroke-linejoin:round;stroke:rgb(0%,0%,0%);stroke-opacity:1;stroke-miterlimit:10;" d="M 59.046875 63.667969 C 59.046875 66.273438 55.136719 66.273438 55.136719 63.667969 C 55.136719 61.0625 59.046875 61.0625 59.046875 63.667969 "/>
<path style="fill:none;stroke-width:0.708661;stroke-linecap:round;stroke-linejoin:round;stroke:rgb(0%,0%,0%);stroke-opacity:1;stroke-miterlimit:10;" d="M 41.957031 44.902344 C 41.957031 47.511719 38.050781 47.511719 38.050781 44.902344 C 38.050781 42.296875 41.957031 42.296875 41.957031 44.902344 "/>
<path style="fill:none;stroke-width:0.708661;stroke-linecap:round;stroke-linejoin:round;stroke:rgb(0%,0%,0%);stroke-opacity:1;stroke-miterlimit:10;" d="M 91.027344 38.15625 C 91.027344 40.765625 87.117188 40.765625 87.117188 38.15625 C 87.117188 35.550781 91.027344 35.550781 91.027344 38.15625 "/>
<path style="fill:none;stroke-width:0.708661;stroke-linecap:round;stroke-linejoin:round;stroke:rgb(0%,0%,0%);stroke-opacity:1;stroke-miterlimit:10;" d="M 16.328125 21.488281 C 16.328125 24.09375 12.417969 24.09375 12.417969 21.488281 C 12.417969 18.878906 16.328125 18.878906 16.328125 21.488281 "/>
<path style="fill:none;stroke-width:0.708661;stroke-linecap:round;stroke-linejoin:round;stroke:rgb(0%,0%,0%);stroke-opacity:1;stroke-miterlimit:10;" d="M 64.355469 54.675781 C 64.355469 57.28125 60.445312 57.28125 60.445312 54.675781 C 60.445312 52.066406 64.355469 52.066406 64.355469 54.675781 "/>
<path style="fill:none;stroke-width:0.708661;stroke-linecap:round;stroke-linejoin:round;stroke:rgb(0%,0%,0%);stroke-opacity:1;stroke-miterlimit:10;" d="M 86.984375 83.691406 C 86.984375 86.296875 83.074219 86.296875 83.074219 83.691406 C 83.074219 81.085938 86.984375 81.085938 86.984375 83.691406 "/>
<path style="fill:none;stroke-width:0.708661;stroke-linecap:round;stroke-linejoin:round;stroke:rgb(0%,0%,0%);stroke-opacity:1;stroke-miterlimit:10;" d="M 65.164062 64.960938 C 65.164062 67.566406 61.253906 67.566406 61.253906 64.960938 C 61.253906 62.351562 65.164062 62.351562 65.164062 64.960938 "/>
<path style="fill:none;stroke-width:0.708661;stroke-linecap:round;stroke-linejoin:round;stroke:rgb(0%,0%,0%);stroke-opacity:1;stroke-miterlimit:10;" d="M 50.964844 71.007812 C 50.964844 73.617188 47.054688 73.617188 47.054688 71.007812 C 47.054688 68.402344 50.964844 68.402344 50.964844 71.007812 "/>
<path style="fill:none;stroke-width:0.708661;stroke-linecap:round;stroke-linejoin:round;stroke:rgb(0%,0%,0%);stroke-opacity:1;stroke-miterlimit:10;" d="M 71.285156 52.257812 C 71.285156 54.863281 67.375 54.863281 67.375 52.257812 C 67.375 49.652344 71.285156 49.652344 71.285156 52.257812 "/>
<path style="fill:none;stroke-width:0.708661;stroke-linecap:round;stroke-linejoin:round;stroke:rgb(0%,0%,0%);stroke-opacity:1;stroke-miterlimit:10;" d="M 24.871094 47.804688 C 24.871094 50.410156 20.960938 50.410156 20.960938 47.804688 C 20.960938 45.195312 24.871094 45.195312 24.871094 47.804688 "/>
<path style="fill:none;stroke-width:0.708661;stroke-linecap:round;stroke-linejoin:round;stroke:rgb(0%,0%,0%);stroke-opacity:1;stroke-miterlimit:10;" d="M 84.097656 86.703125 C 84.097656 89.308594 80.191406 89.308594 80.191406 86.703125 C 80.191406 84.09375 84.097656 84.09375 84.097656 86.703125 "/>
<path style="fill:none;stroke-width:0.708661;stroke-linecap:round;stroke-linejoin:round;stroke:rgb(0%,0%,0%);stroke-opacity:1;stroke-miterlimit:10;" d="M 50.734375 110.609375 C 50.734375 113.214844 46.824219 113.214844 46.824219 110.609375 C 46.824219 108.003906 50.734375 108.003906 50.734375 110.609375 "/>
<path style="fill:none;stroke-width:0.708661;stroke-linecap:round;stroke-linejoin:round;stroke:rgb(0%,0%,0%);stroke-opacity:1;stroke-miterlimit:10;" d="M 76.941406 71 C 76.941406 73.605469 73.03125 73.605469 73.03125 71 C 73.03125 68.394531 76.941406 68.394531 76.941406 71 "/>
<path style="fill:none;stroke-width:0.708661;stroke-linecap:round;stroke-linejoin:round;stroke:rgb(0%,0%,0%);stroke-opacity:1;stroke-miterlimit:10;" d="M 69.550781 103.136719 C 69.550781 105.742188 65.640625 105.742188 65.640625 103.136719 C 65.640625 100.53125 69.550781 100.53125 69.550781 103.136719 "/>
<path style="fill:none;stroke-width:0.708661;stroke-linecap:round;stroke-linejoin:round;stroke:rgb(0%,0%,0%);stroke-opacity:1;stroke-miterlimit:10;" d="M 22.675781 75.199219 C 22.675781 77.804688 18.769531 77.804688 18.769531 75.199219 C 18.769531 72.59375 22.675781 72.59375 22.675781 75.199219 "/>
<path style="fill:none;stroke-width:0.708661;stroke-linecap:round;stroke-linejoin:round;stroke:rgb(0%,0%,0%);stroke-opacity:1;stroke-miterlimit:10;" d="M 52.925781 99.667969 C 52.925781 102.273438 49.015625 102.273438 49.015625 99.667969 C 49.015625 97.058594 52.925781 97.058594 52.925781 99.667969 "/>
<path style="fill:none;stroke-width:0.708661;stroke-linecap:round;stroke-linejoin:round;stroke:rgb(0%,0%,0%);stroke-opacity:1;stroke-miterlimit:10;" d="M 23.140625 39.433594 C 23.140625 42.039062 19.230469 42.039062 19.230469 39.433594 C 19.230469 36.828125 23.140625 36.828125 23.140625 39.433594 "/>
<path style="fill:none;stroke-width:0.708661;stroke-linecap:round;stroke-linejoin:round;stroke:rgb(0%,0%,0%);stroke-opacity:1;stroke-miterlimit:10;" d="M 77.632812 82.921875 C 77.632812 85.527344 73.722656 85.527344 73.722656 82.921875 C 73.722656 80.316406 77.632812 80.316406 77.632812 82.921875 "/>
<path style="fill:none;stroke-width:0.708661;stroke-linecap:round;stroke-linejoin:round;stroke:rgb(0%,0%,0%);stroke-opacity:1;stroke-miterlimit:10;" d="M 23.484375 63.570312 C 23.484375 66.179688 19.578125 66.179688 19.578125 63.570312 C 19.578125 60.964844 23.484375 60.964844 23.484375 63.570312 "/>
<path style="fill:none;stroke-width:0.708661;stroke-linecap:round;stroke-linejoin:round;stroke:rgb(0%,0%,0%);stroke-opacity:1;stroke-miterlimit:10;" d="M 134.550781 36.679688 C 134.550781 39.285156 130.644531 39.285156 130.644531 36.679688 C 130.644531 34.074219 134.550781 34.074219 134.550781 36.679688 "/>
<path style="fill:none;stroke-width:0.708661;stroke-linecap:round;stroke-linejoin:round;stroke:rgb(0%,0%,0%);stroke-opacity:1;stroke-miterlimit:10;" d="M 78.328125 46.320312 C 78.328125 48.925781 74.417969 48.925781 74.417969 46.320312 C 74.417969 43.710938 78.328125 43.710938 78.328125 46.320312 "/>
<path style="fill:none;stroke-width:0.708661;stroke-linecap:round;stroke-linejoin:round;stroke:rgb(0%,0%,0%);stroke-opacity:1;stroke-miterlimit:10;" d="M 77.980469 54.972656 C 77.980469 57.578125 74.070312 57.578125 74.070312 54.972656 C 74.070312 52.363281 77.980469 52.363281 77.980469 54.972656 "/>
<path style="fill:none;stroke-width:0.708661;stroke-linecap:round;stroke-linejoin:round;stroke:rgb(0%,0%,0%);stroke-opacity:1;stroke-miterlimit:10;" d="M 81.558594 47.042969 C 81.558594 49.648438 77.648438 49.648438 77.648438 47.042969 C 77.648438 44.4375 81.558594 44.4375 81.558594 47.042969 "/>
<path style="fill:none;stroke-width:0.708661;stroke-linecap:round;stroke-linejoin:round;stroke:rgb(0%,0%,0%);stroke-opacity:1;stroke-miterlimit:10;" d="M 45.421875 103.777344 C 45.421875 106.382812 41.511719 106.382812 41.511719 103.777344 C 41.511719 101.171875 45.421875 101.171875 45.421875 103.777344 "/>
<path style="fill:none;stroke-width:0.708661;stroke-linecap:round;stroke-linejoin:round;stroke:rgb(0%,0%,0%);stroke-opacity:1;stroke-miterlimit:10;" d="M 44.382812 101.863281 C 44.382812 104.46875 40.472656 104.46875 40.472656 101.863281 C 40.472656 99.257812 44.382812 99.257812 44.382812 101.863281 "/>
<path style="fill:none;stroke-width:0.708661;stroke-linecap:round;stroke-linejoin:round;stroke:rgb(0%,0%,0%);stroke-opacity:1;stroke-miterlimit:10;" d="M 59.390625 91.058594 C 59.390625 93.664062 55.480469 93.664062 55.480469 91.058594 C 55.480469 88.449219 59.390625 88.449219 59.390625 91.058594 "/>
<path style="fill:none;stroke-width:0.708661;stroke-linecap:round;stroke-linejoin:round;stroke:rgb(0%,0%,0%);stroke-opacity:1;stroke-miterlimit:10;" d="M 32.03125 81.257812 C 32.03125 83.863281 28.121094 83.863281 28.121094 81.257812 C 28.121094 78.652344 32.03125 78.652344 32.03125 81.257812 "/>
<path style="fill:none;stroke-width:0.708661;stroke-linecap:round;stroke-linejoin:round;stroke:rgb(0%,0%,0%);stroke-opacity:1;stroke-miterlimit:10;" d="M 49.925781 85.59375 C 49.925781 88.199219 46.015625 88.199219 46.015625 85.59375 C 46.015625 82.988281 49.925781 82.988281 49.925781 85.59375 "/>
<path style="fill:none;stroke-width:0.708661;stroke-linecap:round;stroke-linejoin:round;stroke:rgb(0%,0%,0%);stroke-opacity:1;stroke-miterlimit:10;" d="M 28.449219 50.050781 C 28.449219 52.65625 24.539062 52.65625 24.539062 50.050781 C 24.539062 47.445312 28.449219 47.445312 28.449219 50.050781 "/>
<path style="fill:none;stroke-width:0.708661;stroke-linecap:round;stroke-linejoin:round;stroke:rgb(0%,0%,0%);stroke-opacity:1;stroke-miterlimit:10;" d="M 71.398438 102.175781 C 71.398438 104.785156 67.488281 104.785156 67.488281 102.175781 C 67.488281 99.570312 71.398438 99.570312 71.398438 102.175781 "/>
<path style="fill:none;stroke-width:0.708661;stroke-linecap:round;stroke-linejoin:round;stroke:rgb(0%,0%,0%);stroke-opacity:1;stroke-miterlimit:10;" d="M 41.613281 99.296875 C 41.613281 101.902344 37.703125 101.902344 37.703125 99.296875 C 37.703125 96.691406 41.613281 96.691406 41.613281 99.296875 "/>
<path style="fill:none;stroke-width:0.708661;stroke-linecap:round;stroke-linejoin:round;stroke:rgb(0%,0%,0%);stroke-opacity:1;stroke-miterlimit:10;" d="M 22.101562 44.300781 C 22.101562 46.90625 18.191406 46.90625 18.191406 44.300781 C 18.191406 41.695312 22.101562 41.695312 22.101562 44.300781 "/>
<path style="fill:none;stroke-width:0.708661;stroke-linecap:round;stroke-linejoin:round;stroke:rgb(0%,0%,0%);stroke-opacity:1;stroke-miterlimit:10;" d="M 57.429688 123.464844 C 57.429688 126.070312 53.519531 126.070312 53.519531 123.464844 C 53.519531 120.859375 57.429688 120.859375 57.429688 123.464844 "/>
<path style="fill:none;stroke-width:0.708661;stroke-linecap:round;stroke-linejoin:round;stroke:rgb(0%,0%,0%);stroke-opacity:1;stroke-miterlimit:10;" d="M 72.667969 89.441406 C 72.667969 92.046875 68.757812 92.046875 68.757812 89.441406 C 68.757812 86.835938 72.667969 86.835938 72.667969 89.441406 "/>
<path style="fill:none;stroke-width:0.708661;stroke-linecap:round;stroke-linejoin:round;stroke:rgb(0%,0%,0%);stroke-opacity:1;stroke-miterlimit:10;" d="M 60.546875 75.085938 C 60.546875 77.691406 56.636719 77.691406 56.636719 75.085938 C 56.636719 72.480469 60.546875 72.480469 60.546875 75.085938 "/>
<path style="fill:none;stroke-width:0.708661;stroke-linecap:round;stroke-linejoin:round;stroke:rgb(0%,0%,0%);stroke-opacity:1;stroke-miterlimit:10;" d="M 64.242188 82.039062 C 64.242188 84.648438 60.332031 84.648438 60.332031 82.039062 C 60.332031 79.433594 64.242188 79.433594 64.242188 82.039062 "/>
<path style="fill:none;stroke-width:0.708661;stroke-linecap:round;stroke-linejoin:round;stroke:rgb(0%,0%,0%);stroke-opacity:1;stroke-miterlimit:10;" d="M 56.851562 71.578125 C 56.851562 74.183594 52.941406 74.183594 52.941406 71.578125 C 52.941406 68.972656 56.851562 68.972656 56.851562 71.578125 "/>
<path style="fill:none;stroke-width:0.708661;stroke-linecap:round;stroke-linejoin:round;stroke:rgb(0%,0%,0%);stroke-opacity:1;stroke-miterlimit:10;" d="M 34.683594 78.355469 C 34.683594 80.960938 30.773438 80.960938 30.773438 78.355469 C 30.773438 75.746094 34.683594 75.746094 34.683594 78.355469 "/>
<path style="fill:none;stroke-width:0.708661;stroke-linecap:round;stroke-linejoin:round;stroke:rgb(0%,0%,0%);stroke-opacity:1;stroke-miterlimit:10;" d="M 48.65625 96.816406 C 48.65625 99.425781 44.746094 99.425781 44.746094 96.816406 C 44.746094 94.210938 48.65625 94.210938 48.65625 96.816406 "/>
<path style="fill:none;stroke-width:0.708661;stroke-linecap:round;stroke-linejoin:round;stroke:rgb(0%,0%,0%);stroke-opacity:1;stroke-miterlimit:10;" d="M 64.933594 58.023438 C 64.933594 60.628906 61.023438 60.628906 61.023438 58.023438 C 61.023438 55.417969 64.933594 55.417969 64.933594 58.023438 "/>
<path style="fill:none;stroke-width:0.708661;stroke-linecap:round;stroke-linejoin:round;stroke:rgb(0%,0%,0%);stroke-opacity:1;stroke-miterlimit:10;" d="M 79.019531 67.707031 C 79.019531 70.316406 75.109375 70.316406 75.109375 67.707031 C 75.109375 65.101562 79.019531 65.101562 79.019531 67.707031 "/>
<path style="fill:none;stroke-width:0.708661;stroke-linecap:round;stroke-linejoin:round;stroke:rgb(0%,0%,0%);stroke-opacity:1;stroke-miterlimit:10;" d="M 26.71875 64.113281 C 26.71875 66.71875 22.808594 66.71875 22.808594 64.113281 C 22.808594 61.503906 26.71875 61.503906 26.71875 64.113281 "/>
<path style="fill:none;stroke-width:0.708661;stroke-linecap:round;stroke-linejoin:round;stroke:rgb(0%,0%,0%);stroke-opacity:1;stroke-miterlimit:10;" d="M 52.117188 72.890625 C 52.117188 75.496094 48.207031 75.496094 48.207031 72.890625 C 48.207031 70.285156 52.117188 70.285156 52.117188 72.890625 "/>
<path style="fill:none;stroke-width:0.708661;stroke-linecap:round;stroke-linejoin:round;stroke:rgb(0%,0%,0%);stroke-opacity:1;stroke-miterlimit:10;" d="M 68.628906 65.074219 C 68.628906 67.679688 64.71875 67.679688 64.71875 65.074219 C 64.71875 62.464844 68.628906 62.464844 68.628906 65.074219 "/>
<path style="fill:none;stroke-width:0.708661;stroke-linecap:round;stroke-linejoin:round;stroke:rgb(0%,0%,0%);stroke-opacity:1;stroke-miterlimit:10;" d="M 83.984375 35.148438 C 83.984375 37.753906 80.074219 37.753906 80.074219 35.148438 C 80.074219 32.542969 83.984375 32.542969 83.984375 35.148438 "/>
<path style="fill:none;stroke-width:0.708661;stroke-linecap:round;stroke-linejoin:round;stroke:rgb(0%,0%,0%);stroke-opacity:1;stroke-miterlimit:10;" d="M 16.441406 53.269531 C 16.441406 55.875 12.535156 55.875 12.535156 53.269531 C 12.535156 50.664062 16.441406 50.664062 16.441406 53.269531 "/>
<path style="fill:none;stroke-width:0.708661;stroke-linecap:round;stroke-linejoin:round;stroke:rgb(0%,0%,0%);stroke-opacity:1;stroke-miterlimit:10;" d="M 70.011719 42.953125 C 70.011719 45.5625 66.105469 45.5625 66.105469 42.953125 C 66.105469 40.347656 70.011719 40.347656 70.011719 42.953125 "/>
<path style="fill:none;stroke-width:0.708661;stroke-linecap:round;stroke-linejoin:round;stroke:rgb(0%,0%,0%);stroke-opacity:1;stroke-miterlimit:10;" d="M 90.21875 45.390625 C 90.21875 47.996094 86.308594 47.996094 86.308594 45.390625 C 86.308594 42.785156 90.21875 42.785156 90.21875 45.390625 "/>
<path style="fill:none;stroke-width:0.708661;stroke-linecap:round;stroke-linejoin:round;stroke:rgb(0%,0%,0%);stroke-opacity:1;stroke-miterlimit:10;" d="M 42.421875 56.933594 C 42.421875 59.539062 38.511719 59.539062 38.511719 56.933594 C 38.511719 54.324219 42.421875 54.324219 42.421875 56.933594 "/>
<path style="fill:none;stroke-width:0.708661;stroke-linecap:round;stroke-linejoin:round;stroke:rgb(0%,0%,0%);stroke-opacity:1;stroke-miterlimit:10;" d="M 34.339844 65.347656 C 34.339844 67.953125 30.429688 67.953125 30.429688 65.347656 C 30.429688 62.742188 34.339844 62.742188 34.339844 65.347656 "/>
<path style="fill:none;stroke-width:0.708661;stroke-linecap:round;stroke-linejoin:round;stroke:rgb(0%,0%,0%);stroke-opacity:1;stroke-miterlimit:10;" d="M 109.152344 23.273438 C 109.152344 25.878906 105.242188 25.878906 105.242188 23.273438 C 105.242188 20.667969 109.152344 20.667969 109.152344 23.273438 "/>
<path style="fill:none;stroke-width:0.708661;stroke-linecap:round;stroke-linejoin:round;stroke:rgb(0%,0%,0%);stroke-opacity:1;stroke-miterlimit:10;" d="M 41.613281 65.171875 C 41.613281 67.777344 37.703125 67.777344 37.703125 65.171875 C 37.703125 62.566406 41.613281 62.566406 41.613281 65.171875 "/>
<path style="fill:none;stroke-width:0.708661;stroke-linecap:round;stroke-linejoin:round;stroke:rgb(0%,0%,0%);stroke-opacity:1;stroke-miterlimit:10;" d="M 96.222656 34.640625 C 96.222656 37.25 92.3125 37.25 92.3125 34.640625 C 92.3125 32.035156 96.222656 32.035156 96.222656 34.640625 "/>
<path style="fill:none;stroke-width:0.708661;stroke-linecap:round;stroke-linejoin:round;stroke:rgb(0%,0%,0%);stroke-opacity:1;stroke-miterlimit:10;" d="M 115.847656 42.75 C 115.847656 45.355469 111.9375 45.355469 111.9375 42.75 C 111.9375 40.140625 115.847656 40.140625 115.847656 42.75 "/>
<path style="fill:none;stroke-width:0.708661;stroke-linecap:round;stroke-linejoin:round;stroke:rgb(0%,0%,0%);stroke-opacity:1;stroke-miterlimit:10;" d="M 16.097656 104.496094 C 16.097656 107.101562 12.1875 107.101562 12.1875 104.496094 C 12.1875 101.886719 16.097656 101.886719 16.097656 104.496094 "/>
<path style="fill:none;stroke-width:0.708661;stroke-linecap:round;stroke-linejoin:round;stroke:rgb(0%,0%,0%);stroke-opacity:1;stroke-miterlimit:10;" d="M 46 104.402344 C 46 107.007812 42.089844 107.007812 42.089844 104.402344 C 42.089844 101.796875 46 101.796875 46 104.402344 "/>
<path style="fill:none;stroke-width:0.708661;stroke-linecap:round;stroke-linejoin:round;stroke:rgb(0%,0%,0%);stroke-opacity:1;stroke-miterlimit:10;" d="M 70.9375 102.601562 C 70.9375 105.207031 67.027344 105.207031 67.027344 102.601562 C 67.027344 99.996094 70.9375 99.996094 70.9375 102.601562 "/>
<path style="fill:none;stroke-width:0.708661;stroke-linecap:round;stroke-linejoin:round;stroke:rgb(0%,0%,0%);stroke-opacity:1;stroke-miterlimit:10;" d="M 67.703125 77.5 C 67.703125 80.105469 63.792969 80.105469 63.792969 77.5 C 63.792969 74.890625 67.703125 74.890625 67.703125 77.5 "/>
<path style="fill:none;stroke-width:0.708661;stroke-linecap:round;stroke-linejoin:round;stroke:rgb(0%,0%,0%);stroke-opacity:1;stroke-miterlimit:10;" d="M 76.710938 86.3125 C 76.710938 88.917969 72.800781 88.917969 72.800781 86.3125 C 72.800781 83.707031 76.710938 83.707031 76.710938 86.3125 "/>
<path style="fill:none;stroke-width:0.708661;stroke-linecap:round;stroke-linejoin:round;stroke:rgb(0%,0%,0%);stroke-opacity:1;stroke-miterlimit:10;" d="M 84.5625 84.316406 C 84.5625 86.921875 80.652344 86.921875 80.652344 84.316406 C 80.652344 81.710938 84.5625 81.710938 84.5625 84.316406 "/>
<path style="fill:none;stroke-width:0.708661;stroke-linecap:round;stroke-linejoin:round;stroke:rgb(0%,0%,0%);stroke-opacity:1;stroke-miterlimit:10;" d="M 81.675781 62.453125 C 81.675781 65.058594 77.765625 65.058594 77.765625 62.453125 C 77.765625 59.847656 81.675781 59.847656 81.675781 62.453125 "/>
<path style="fill:none;stroke-width:0.708661;stroke-linecap:round;stroke-linejoin:round;stroke:rgb(0%,0%,0%);stroke-opacity:1;stroke-miterlimit:10;" d="M 81.441406 76.65625 C 81.441406 79.261719 77.535156 79.261719 77.535156 76.65625 C 77.535156 74.050781 81.441406 74.050781 81.441406 76.65625 "/>
<path style="fill:none;stroke-width:0.708661;stroke-linecap:round;stroke-linejoin:round;stroke:rgb(0%,0%,0%);stroke-opacity:1;stroke-miterlimit:10;" d="M 24.410156 66.898438 C 24.410156 69.507812 20.5 69.507812 20.5 66.898438 C 20.5 64.292969 24.410156 64.292969 24.410156 66.898438 "/>
<path style="fill:none;stroke-width:0.708661;stroke-linecap:round;stroke-linejoin:round;stroke:rgb(0%,0%,0%);stroke-opacity:1;stroke-miterlimit:10;" d="M 90.679688 79.308594 C 90.679688 81.917969 86.769531 81.917969 86.769531 79.308594 C 86.769531 76.703125 90.679688 76.703125 90.679688 79.308594 "/>
<path style="fill:none;stroke-width:0.708661;stroke-linecap:round;stroke-linejoin:round;stroke:rgb(0%,0%,0%);stroke-opacity:1;stroke-miterlimit:10;" d="M 93.679688 74.09375 C 93.679688 76.699219 89.773438 76.699219 89.773438 74.09375 C 89.773438 71.484375 93.679688 71.484375 93.679688 74.09375 "/>
<path style="fill:none;stroke-width:0.708661;stroke-linecap:round;stroke-linejoin:round;stroke:rgb(0%,0%,0%);stroke-opacity:1;stroke-miterlimit:10;" d="M 18.96875 85.679688 C 18.96875 88.285156 15.058594 88.285156 15.058594 85.679688 C 15.058594 83.074219 18.96875 83.074219 18.96875 85.679688 "/>
<path style="fill:none;stroke-width:0.708661;stroke-linecap:round;stroke-linejoin:round;stroke:rgb(0%,0%,0%);stroke-opacity:1;stroke-miterlimit:10;" d="M 72.613281 109.890625 C 72.613281 112.496094 68.703125 112.496094 68.703125 109.890625 C 68.703125 107.28125 72.613281 107.28125 72.613281 109.890625 "/>
<path style="fill:none;stroke-width:0.708661;stroke-linecap:round;stroke-linejoin:round;stroke:rgb(0%,0%,0%);stroke-opacity:1;stroke-miterlimit:10;" d="M 25.5625 114.257812 C 25.5625 116.863281 21.652344 116.863281 21.652344 114.257812 C 21.652344 111.652344 25.5625 111.652344 25.5625 114.257812 "/>
<path style="fill:none;stroke-width:0.708661;stroke-linecap:round;stroke-linejoin:round;stroke:rgb(0%,0%,0%);stroke-opacity:1;stroke-miterlimit:10;" d="M 22.214844 98.882812 C 22.214844 101.488281 18.304688 101.488281 18.304688 98.882812 C 18.304688 96.277344 22.214844 96.277344 22.214844 98.882812 "/>
<path style="fill:none;stroke-width:0.708661;stroke-linecap:round;stroke-linejoin:round;stroke:rgb(0%,0%,0%);stroke-opacity:1;stroke-miterlimit:10;" d="M 31.683594 125.515625 C 31.683594 128.125 27.773438 128.125 27.773438 125.515625 C 27.773438 122.910156 31.683594 122.910156 31.683594 125.515625 "/>
<path style="fill:none;stroke-width:0.708661;stroke-linecap:round;stroke-linejoin:round;stroke:rgb(0%,0%,0%);stroke-opacity:1;stroke-miterlimit:10;" d="M 83.636719 82.046875 C 83.636719 84.652344 79.726562 84.652344 79.726562 82.046875 C 79.726562 79.441406 83.636719 79.441406 83.636719 82.046875 "/>
<path style="fill:none;stroke-width:0.708661;stroke-linecap:round;stroke-linejoin:round;stroke:rgb(0%,0%,0%);stroke-opacity:1;stroke-miterlimit:10;" d="M 102.457031 75.492188 C 102.457031 78.097656 98.546875 78.097656 98.546875 75.492188 C 98.546875 72.882812 102.457031 72.882812 102.457031 75.492188 "/>
<path style="fill:none;stroke-width:0.708661;stroke-linecap:round;stroke-linejoin:round;stroke:rgb(0%,0%,0%);stroke-opacity:1;stroke-miterlimit:10;" d="M 91.601562 83.589844 C 91.601562 86.195312 87.695312 86.195312 87.695312 83.589844 C 87.695312 80.984375 91.601562 80.984375 91.601562 83.589844 "/>
<path style="fill:none;stroke-width:0.708661;stroke-linecap:round;stroke-linejoin:round;stroke:rgb(0%,0%,0%);stroke-opacity:1;stroke-miterlimit:10;" d="M 74.632812 78.253906 C 74.632812 80.859375 70.722656 80.859375 70.722656 78.253906 C 70.722656 75.648438 74.632812 75.648438 74.632812 78.253906 "/>
<path style="fill:none;stroke-width:0.708661;stroke-linecap:round;stroke-linejoin:round;stroke:rgb(0%,0%,0%);stroke-opacity:1;stroke-miterlimit:10;" d="M 83.867188 87.902344 C 83.867188 90.507812 79.957031 90.507812 79.957031 87.902344 C 79.957031 85.296875 83.867188 85.296875 83.867188 87.902344 "/>
<path style="fill:none;stroke-width:0.708661;stroke-linecap:round;stroke-linejoin:round;stroke:rgb(0%,0%,0%);stroke-opacity:1;stroke-miterlimit:10;" d="M 106.84375 55.394531 C 106.84375 58 102.933594 58 102.933594 55.394531 C 102.933594 52.785156 106.84375 52.785156 106.84375 55.394531 "/>
<path style="fill:none;stroke-width:0.708661;stroke-linecap:round;stroke-linejoin:round;stroke:rgb(0%,0%,0%);stroke-opacity:1;stroke-miterlimit:10;" d="M 22.445312 75.125 C 22.445312 77.730469 18.535156 77.730469 18.535156 75.125 C 18.535156 72.519531 22.445312 72.519531 22.445312 75.125 "/>
<path style="fill:none;stroke-width:0.708661;stroke-linecap:round;stroke-linejoin:round;stroke:rgb(0%,0%,0%);stroke-opacity:1;stroke-miterlimit:10;" d="M 16.441406 42.53125 C 16.441406 45.136719 12.535156 45.136719 12.535156 42.53125 C 12.535156 39.921875 16.441406 39.921875 16.441406 42.53125 "/>
<path style="fill:none;stroke-width:0.708661;stroke-linecap:round;stroke-linejoin:round;stroke:rgb(0%,0%,0%);stroke-opacity:1;stroke-miterlimit:10;" d="M 18.753906 82.179688 C 18.753906 84.785156 14.84375 84.785156 14.84375 82.179688 C 14.84375 79.574219 18.753906 79.574219 18.753906 82.179688 "/>
<path style="fill:none;stroke-width:0.708661;stroke-linecap:round;stroke-linejoin:round;stroke:rgb(0%,0%,0%);stroke-opacity:1;stroke-miterlimit:10;" d="M 26.371094 75.960938 C 26.371094 78.566406 22.460938 78.566406 22.460938 75.960938 C 22.460938 73.355469 26.371094 73.355469 26.371094 75.960938 "/>
<path style="fill:none;stroke-width:0.708661;stroke-linecap:round;stroke-linejoin:round;stroke:rgb(0%,0%,0%);stroke-opacity:1;stroke-miterlimit:10;" d="M 58.121094 105.96875 C 58.121094 108.574219 54.210938 108.574219 54.210938 105.96875 C 54.210938 103.359375 58.121094 103.359375 58.121094 105.96875 "/>
<path style="fill:none;stroke-width:0.708661;stroke-linecap:round;stroke-linejoin:round;stroke:rgb(0%,0%,0%);stroke-opacity:1;stroke-miterlimit:10;" d="M 67.703125 91.613281 C 67.703125 94.21875 63.792969 94.21875 63.792969 91.613281 C 63.792969 89.007812 67.703125 89.007812 67.703125 91.613281 "/>
<path style="fill:none;stroke-width:0.708661;stroke-linecap:round;stroke-linejoin:round;stroke:rgb(0%,0%,0%);stroke-opacity:1;stroke-miterlimit:10;" d="M 95.992188 110.835938 C 95.992188 113.441406 92.082031 113.441406 92.082031 110.835938 C 92.082031 108.226562 95.992188 108.226562 95.992188 110.835938 "/>
<path style="fill:none;stroke-width:0.708661;stroke-linecap:round;stroke-linejoin:round;stroke:rgb(0%,0%,0%);stroke-opacity:1;stroke-miterlimit:10;" d="M 82.828125 81.183594 C 82.828125 83.789062 78.917969 83.789062 78.917969 81.183594 C 78.917969 78.574219 82.828125 78.574219 82.828125 81.183594 "/>
<path style="fill:none;stroke-width:0.708661;stroke-linecap:round;stroke-linejoin:round;stroke:rgb(0%,0%,0%);stroke-opacity:1;stroke-miterlimit:10;" d="M 16.789062 33.070312 C 16.789062 35.675781 12.878906 35.675781 12.878906 33.070312 C 12.878906 30.460938 16.789062 30.460938 16.789062 33.070312 "/>
<path style="fill:none;stroke-width:0.708661;stroke-linecap:round;stroke-linejoin:round;stroke:rgb(0%,0%,0%);stroke-opacity:1;stroke-miterlimit:10;" d="M 71.976562 95.621094 C 71.976562 98.226562 68.066406 98.226562 68.066406 95.621094 C 68.066406 93.015625 71.976562 93.015625 71.976562 95.621094 "/>
<path style="fill:none;stroke-width:0.708661;stroke-linecap:round;stroke-linejoin:round;stroke:rgb(0%,0%,0%);stroke-opacity:1;stroke-miterlimit:10;" d="M 76.824219 84.328125 C 76.824219 86.933594 72.914062 86.933594 72.914062 84.328125 C 72.914062 81.722656 76.824219 81.722656 76.824219 84.328125 "/>
<path style="fill:none;stroke-width:0.708661;stroke-linecap:round;stroke-linejoin:round;stroke:rgb(0%,0%,0%);stroke-opacity:1;stroke-miterlimit:10;" d="M 91.835938 103.664062 C 91.835938 106.269531 87.925781 106.269531 87.925781 103.664062 C 87.925781 101.058594 91.835938 101.058594 91.835938 103.664062 "/>
<path style="fill:none;stroke-width:0.708661;stroke-linecap:round;stroke-linejoin:round;stroke:rgb(0%,0%,0%);stroke-opacity:1;stroke-miterlimit:10;" d="M 71.167969 106.417969 C 71.167969 109.023438 67.257812 109.023438 67.257812 106.417969 C 67.257812 103.8125 71.167969 103.8125 71.167969 106.417969 "/>
<path style="fill:none;stroke-width:0.708661;stroke-linecap:round;stroke-linejoin:round;stroke:rgb(0%,0%,0%);stroke-opacity:1;stroke-miterlimit:10;" d="M 21.40625 36.648438 C 21.40625 39.253906 17.5 39.253906 17.5 36.648438 C 17.5 34.042969 21.40625 34.042969 21.40625 36.648438 "/>
<path style="fill:none;stroke-width:0.708661;stroke-linecap:round;stroke-linejoin:round;stroke:rgb(0%,0%,0%);stroke-opacity:1;stroke-miterlimit:10;" d="M 86.0625 90.246094 C 86.0625 92.851562 82.152344 92.851562 82.152344 90.246094 C 82.152344 87.640625 86.0625 87.640625 86.0625 90.246094 "/>
<path style="fill:none;stroke-width:0.708661;stroke-linecap:round;stroke-linejoin:round;stroke:rgb(0%,0%,0%);stroke-opacity:1;stroke-miterlimit:10;" d="M 21.636719 26.988281 C 21.636719 29.59375 17.730469 29.59375 17.730469 26.988281 C 17.730469 24.378906 21.636719 24.378906 21.636719 26.988281 "/>
<path style="fill:none;stroke-width:0.708661;stroke-linecap:round;stroke-linejoin:round;stroke:rgb(0%,0%,0%);stroke-opacity:1;stroke-miterlimit:10;" d="M 110.539062 58.667969 C 110.539062 61.273438 106.628906 61.273438 106.628906 58.667969 C 106.628906 56.0625 110.539062 56.0625 110.539062 58.667969 "/>
<path style="fill:none;stroke-width:0.708661;stroke-linecap:round;stroke-linejoin:round;stroke:rgb(0%,0%,0%);stroke-opacity:1;stroke-miterlimit:10;" d="M 23.949219 85.839844 C 23.949219 88.445312 20.039062 88.445312 20.039062 85.839844 C 20.039062 83.234375 23.949219 83.234375 23.949219 85.839844 "/>
<path style="fill:none;stroke-width:0.708661;stroke-linecap:round;stroke-linejoin:round;stroke:rgb(0%,0%,0%);stroke-opacity:1;stroke-miterlimit:10;" d="M 49.117188 123.257812 C 49.117188 125.863281 45.207031 125.863281 45.207031 123.257812 C 45.207031 120.652344 49.117188 120.652344 49.117188 123.257812 "/>
<path style="fill:none;stroke-width:0.708661;stroke-linecap:round;stroke-linejoin:round;stroke:rgb(0%,0%,0%);stroke-opacity:1;stroke-miterlimit:10;" d="M 77.402344 114.441406 C 77.402344 117.046875 73.492188 117.046875 73.492188 114.441406 C 73.492188 111.832031 77.402344 111.832031 77.402344 114.441406 "/>
<path style="fill:none;stroke-width:0.708661;stroke-linecap:round;stroke-linejoin:round;stroke:rgb(0%,0%,0%);stroke-opacity:1;stroke-miterlimit:10;" d="M 80.636719 129.859375 C 80.636719 132.464844 76.726562 132.464844 76.726562 129.859375 C 76.726562 127.25 80.636719 127.25 80.636719 129.859375 "/>
<path style="fill:none;stroke-width:0.708661;stroke-linecap:round;stroke-linejoin:round;stroke:rgb(0%,0%,0%);stroke-opacity:1;stroke-miterlimit:10;" d="M 94.71875 109.152344 C 94.71875 111.757812 90.8125 111.757812 90.8125 109.152344 C 90.8125 106.546875 94.71875 106.546875 94.71875 109.152344 "/>
<path style="fill:none;stroke-width:0.708661;stroke-linecap:round;stroke-linejoin:round;stroke:rgb(0%,0%,0%);stroke-opacity:1;stroke-miterlimit:10;" d="M 88.949219 109.691406 C 88.949219 112.300781 85.039062 112.300781 85.039062 109.691406 C 85.039062 107.085938 88.949219 107.085938 88.949219 109.691406 "/>
<path style="fill:none;stroke-width:0.708661;stroke-linecap:round;stroke-linejoin:round;stroke:rgb(0%,0%,0%);stroke-opacity:1;stroke-miterlimit:10;" d="M 66.550781 70.058594 C 66.550781 72.664062 62.640625 72.664062 62.640625 70.058594 C 62.640625 67.449219 66.550781 67.449219 66.550781 70.058594 "/>
<path style="fill:none;stroke-width:0.708661;stroke-linecap:round;stroke-linejoin:round;stroke:rgb(0%,0%,0%);stroke-opacity:1;stroke-miterlimit:10;" d="M 57.777344 20.542969 C 57.777344 23.152344 53.867188 23.152344 53.867188 20.542969 C 53.867188 17.9375 57.777344 17.9375 57.777344 20.542969 "/>
<path style="fill:none;stroke-width:0.708661;stroke-linecap:round;stroke-linejoin:round;stroke:rgb(0%,0%,0%);stroke-opacity:1;stroke-miterlimit:10;" d="M 60.546875 15.0625 C 60.546875 17.667969 56.636719 17.667969 56.636719 15.0625 C 56.636719 12.457031 60.546875 12.457031 60.546875 15.0625 "/>
<path style="fill:none;stroke-width:0.708661;stroke-linecap:round;stroke-linejoin:round;stroke:rgb(0%,0%,0%);stroke-opacity:1;stroke-miterlimit:10;" d="M 68.511719 11.402344 C 68.511719 14.007812 64.601562 14.007812 64.601562 11.402344 C 64.601562 8.796875 68.511719 8.796875 68.511719 11.402344 "/>
<path style="fill:none;stroke-width:0.708661;stroke-linecap:round;stroke-linejoin:round;stroke:rgb(0%,0%,0%);stroke-opacity:1;stroke-miterlimit:10;" d="M 28.679688 35.367188 C 28.679688 37.972656 24.773438 37.972656 24.773438 35.367188 C 24.773438 32.757812 28.679688 32.757812 28.679688 35.367188 "/>
<path style="fill:none;stroke-width:0.708661;stroke-linecap:round;stroke-linejoin:round;stroke:rgb(0%,0%,0%);stroke-opacity:1;stroke-miterlimit:10;" d="M 90.679688 27.566406 C 90.679688 30.175781 86.769531 30.175781 86.769531 27.566406 C 86.769531 24.960938 90.679688 24.960938 90.679688 27.566406 "/>
<path style="fill:none;stroke-width:0.708661;stroke-linecap:round;stroke-linejoin:round;stroke:rgb(0%,0%,0%);stroke-opacity:1;stroke-miterlimit:10;" d="M 83.523438 29.96875 C 83.523438 32.574219 79.613281 32.574219 79.613281 29.96875 C 79.613281 27.359375 83.523438 27.359375 83.523438 29.96875 "/>
<path style="fill:none;stroke-width:0.708661;stroke-linecap:round;stroke-linejoin:round;stroke:rgb(0%,0%,0%);stroke-opacity:1;stroke-miterlimit:10;" d="M 19.445312 22.164062 C 19.445312 24.769531 15.535156 24.769531 15.535156 22.164062 C 15.535156 19.554688 19.445312 19.554688 19.445312 22.164062 "/>
<path style="fill:none;stroke-width:0.708661;stroke-linecap:round;stroke-linejoin:round;stroke:rgb(0%,0%,0%);stroke-opacity:1;stroke-miterlimit:10;" d="M 102.570312 20.511719 C 102.570312 23.117188 98.664062 23.117188 98.664062 20.511719 C 98.664062 17.90625 102.570312 17.90625 102.570312 20.511719 "/>
<path style="fill:none;stroke-width:0.708661;stroke-linecap:round;stroke-linejoin:round;stroke:rgb(0%,0%,0%);stroke-opacity:1;stroke-miterlimit:10;" d="M 88.71875 26.65625 C 88.71875 29.261719 84.808594 29.261719 84.808594 26.65625 C 84.808594 24.046875 88.71875 24.046875 88.71875 26.65625 "/>
<path style="fill:none;stroke-width:0.708661;stroke-linecap:round;stroke-linejoin:round;stroke:rgb(0%,0%,0%);stroke-opacity:1;stroke-miterlimit:10;" d="M 65.742188 60.363281 C 65.742188 62.96875 61.832031 62.96875 61.832031 60.363281 C 61.832031 57.753906 65.742188 57.753906 65.742188 60.363281 "/>
<path style="fill:none;stroke-width:0.708661;stroke-linecap:round;stroke-linejoin:round;stroke:rgb(0%,0%,0%);stroke-opacity:1;stroke-miterlimit:10;" d="M 87.101562 26.3125 C 87.101562 28.921875 83.191406 28.921875 83.191406 26.3125 C 83.191406 23.707031 87.101562 23.707031 87.101562 26.3125 "/>
<path style="fill:none;stroke-width:0.708661;stroke-linecap:round;stroke-linejoin:round;stroke:rgb(0%,0%,0%);stroke-opacity:1;stroke-miterlimit:10;" d="M 80.058594 22.027344 C 80.058594 24.636719 76.148438 24.636719 76.148438 22.027344 C 76.148438 19.421875 80.058594 19.421875 80.058594 22.027344 "/>
<path style="fill:none;stroke-width:0.708661;stroke-linecap:round;stroke-linejoin:round;stroke:rgb(0%,0%,0%);stroke-opacity:1;stroke-miterlimit:10;" d="M 80.636719 23.792969 C 80.636719 26.398438 76.726562 26.398438 76.726562 23.792969 C 76.726562 21.1875 80.636719 21.1875 80.636719 23.792969 "/>
<g clip-path="url(#clip18)" clip-rule="nonzero">
<path style="fill:none;stroke-width:1.066978;stroke-linecap:round;stroke-linejoin:round;stroke:rgb(20%,20%,20%);stroke-opacity:1;stroke-miterlimit:10;" d="M 8.21875 135.78125 L 138.519531 135.78125 L 138.519531 5.480469 L 8.21875 5.480469 Z M 8.21875 135.78125 "/>
</g>
</g>
</svg>
