<?xml version="1.0" encoding="UTF-8"?>
<svg xmlns="http://www.w3.org/2000/svg" xmlns:xlink="http://www.w3.org/1999/xlink" width="216pt" height="216pt" viewBox="0 0 216 216" version="1.1">
<defs>
<clipPath id="clip1">
  <path d="M 8.21875 188 L 210.519531 188 L 210.519531 190 L 8.21875 190 Z M 8.21875 188 "/>
</clipPath>
<clipPath id="clip2">
  <path d="M 8.21875 156 L 210.519531 156 L 210.519531 158 L 8.21875 158 Z M 8.21875 156 "/>
</clipPath>
<clipPath id="clip3">
  <path d="M 8.21875 125 L 210.519531 125 L 210.519531 127 L 8.21875 127 Z M 8.21875 125 "/>
</clipPath>
<clipPath id="clip4">
  <path d="M 8.21875 93 L 210.519531 93 L 210.519531 95 L 8.21875 95 Z M 8.21875 93 "/>
</clipPath>
<clipPath id="clip5">
  <path d="M 8.21875 62 L 210.519531 62 L 210.519531 63 L 8.21875 63 Z M 8.21875 62 "/>
</clipPath>
<clipPath id="clip6">
  <path d="M 8.21875 30 L 210.519531 30 L 210.519531 32 L 8.21875 32 Z M 8.21875 30 "/>
</clipPath>
<clipPath id="clip7">
  <path d="M 61 5.480469 L 63 5.480469 L 63 207.78125 L 61 207.78125 Z M 61 5.480469 "/>
</clipPath>
<clipPath id="clip8">
  <path d="M 123 5.480469 L 124 5.480469 L 124 207.78125 L 123 207.78125 Z M 123 5.480469 "/>
</clipPath>
<clipPath id="clip9">
  <path d="M 184 5.480469 L 186 5.480469 L 186 207.78125 L 184 207.78125 Z M 184 5.480469 "/>
</clipPath>
<clipPath id="clip10">
  <path d="M 8.21875 203 L 210.519531 203 L 210.519531 206 L 8.21875 206 Z M 8.21875 203 "/>
</clipPath>
<clipPath id="clip11">
  <path d="M 8.21875 172 L 210.519531 172 L 210.519531 174 L 8.21875 174 Z M 8.21875 172 "/>
</clipPath>
<clipPath id="clip12">
  <path d="M 8.21875 140 L 210.519531 140 L 210.519531 143 L 8.21875 143 Z M 8.21875 140 "/>
</clipPath>
<clipPath id="clip13">
  <path d="M 8.21875 109 L 210.519531 109 L 210.519531 111 L 8.21875 111 Z M 8.21875 109 "/>
</clipPath>
<clipPath id="clip14">
  <path d="M 8.21875 77 L 210.519531 77 L 210.519531 80 L 8.21875 80 Z M 8.21875 77 "/>
</clipPath>
<clipPath id="clip15">
  <path d="M 8.21875 46 L 210.519531 46 L 210.519531 48 L 8.21875 48 Z M 8.21875 46 "/>
</clipPath>
<clipPath id="clip16">
  <path d="M 8.21875 14 L 210.519531 14 L 210.519531 17 L 8.21875 17 Z M 8.21875 14 "/>
</clipPath>
<clipPath id="clip17">
  <path d="M 31 5.480469 L 33 5.480469 L 33 207.78125 L 31 207.78125 Z M 31 5.480469 "/>
</clipPath>
<clipPath id="clip18">
  <path d="M 92 5.480469 L 94 5.480469 L 94 207.78125 L 92 207.78125 Z M 92 5.480469 "/>
</clipPath>
<clipPath id="clip19">
  <path d="M 153 5.480469 L 155 5.480469 L 155 207.78125 L 153 207.78125 Z M 153 5.480469 "/>
</clipPath>
<clipPath id="clip20">
  <path d="M 8.21875 109 L 210.519531 109 L 210.519531 111 L 8.21875 111 Z M 8.21875 109 "/>
</clipPath>
</defs>
<g id="surface674">
<rect x="0" y="0" width="216" height="216" style="fill:rgb(100%,100%,100%);fill-opacity:1;stroke:none;"/>
<g clip-path="url(#clip1)" clip-rule="nonzero">
<path style="fill:none;stroke-width:0.533489;stroke-linecap:butt;stroke-linejoin:round;stroke:rgb(92.156863%,92.156863%,92.156863%);stroke-opacity:1;stroke-miterlimit:10;" d="M 8.21875 188.765625 L 210.519531 188.765625 "/>
</g>
<g clip-path="url(#clip2)" clip-rule="nonzero">
<path style="fill:none;stroke-width:0.533489;stroke-linecap:butt;stroke-linejoin:round;stroke:rgb(92.156863%,92.156863%,92.156863%);stroke-opacity:1;stroke-miterlimit:10;" d="M 8.21875 157.257812 L 210.519531 157.257812 "/>
</g>
<g clip-path="url(#clip3)" clip-rule="nonzero">
<path style="fill:none;stroke-width:0.533489;stroke-linecap:butt;stroke-linejoin:round;stroke:rgb(92.156863%,92.156863%,92.156863%);stroke-opacity:1;stroke-miterlimit:10;" d="M 8.21875 125.75 L 210.519531 125.75 "/>
</g>
<g clip-path="url(#clip4)" clip-rule="nonzero">
<path style="fill:none;stroke-width:0.533489;stroke-linecap:butt;stroke-linejoin:round;stroke:rgb(92.156863%,92.156863%,92.156863%);stroke-opacity:1;stroke-miterlimit:10;" d="M 8.21875 94.242188 L 210.519531 94.242188 "/>
</g>
<g clip-path="url(#clip5)" clip-rule="nonzero">
<path style="fill:none;stroke-width:0.533489;stroke-linecap:butt;stroke-linejoin:round;stroke:rgb(92.156863%,92.156863%,92.156863%);stroke-opacity:1;stroke-miterlimit:10;" d="M 8.21875 62.734375 L 210.519531 62.734375 "/>
</g>
<g clip-path="url(#clip6)" clip-rule="nonzero">
<path style="fill:none;stroke-width:0.533489;stroke-linecap:butt;stroke-linejoin:round;stroke:rgb(92.156863%,92.156863%,92.156863%);stroke-opacity:1;stroke-miterlimit:10;" d="M 8.21875 31.226562 L 210.519531 31.226562 "/>
</g>
<g clip-path="url(#clip7)" clip-rule="nonzero">
<path style="fill:none;stroke-width:0.533489;stroke-linecap:butt;stroke-linejoin:round;stroke:rgb(92.156863%,92.156863%,92.156863%);stroke-opacity:1;stroke-miterlimit:10;" d="M 62.253906 207.78125 L 62.253906 5.480469 "/>
</g>
<g clip-path="url(#clip8)" clip-rule="nonzero">
<path style="fill:none;stroke-width:0.533489;stroke-linecap:butt;stroke-linejoin:round;stroke:rgb(92.156863%,92.156863%,92.156863%);stroke-opacity:1;stroke-miterlimit:10;" d="M 123.59375 207.78125 L 123.59375 5.480469 "/>
</g>
<g clip-path="url(#clip9)" clip-rule="nonzero">
<path style="fill:none;stroke-width:0.533489;stroke-linecap:butt;stroke-linejoin:round;stroke:rgb(92.156863%,92.156863%,92.156863%);stroke-opacity:1;stroke-miterlimit:10;" d="M 184.9375 207.78125 L 184.9375 5.480469 "/>
</g>
<g clip-path="url(#clip10)" clip-rule="nonzero">
<path style="fill:none;stroke-width:1.066978;stroke-linecap:butt;stroke-linejoin:round;stroke:rgb(92.156863%,92.156863%,92.156863%);stroke-opacity:1;stroke-miterlimit:10;" d="M 8.21875 204.519531 L 210.519531 204.519531 "/>
</g>
<g clip-path="url(#clip11)" clip-rule="nonzero">
<path style="fill:none;stroke-width:1.066978;stroke-linecap:butt;stroke-linejoin:round;stroke:rgb(92.156863%,92.156863%,92.156863%);stroke-opacity:1;stroke-miterlimit:10;" d="M 8.21875 173.011719 L 210.519531 173.011719 "/>
</g>
<g clip-path="url(#clip12)" clip-rule="nonzero">
<path style="fill:none;stroke-width:1.066978;stroke-linecap:butt;stroke-linejoin:round;stroke:rgb(92.156863%,92.156863%,92.156863%);stroke-opacity:1;stroke-miterlimit:10;" d="M 8.21875 141.503906 L 210.519531 141.503906 "/>
</g>
<g clip-path="url(#clip13)" clip-rule="nonzero">
<path style="fill:none;stroke-width:1.066978;stroke-linecap:butt;stroke-linejoin:round;stroke:rgb(92.156863%,92.156863%,92.156863%);stroke-opacity:1;stroke-miterlimit:10;" d="M 8.21875 109.996094 L 210.519531 109.996094 "/>
</g>
<g clip-path="url(#clip14)" clip-rule="nonzero">
<path style="fill:none;stroke-width:1.066978;stroke-linecap:butt;stroke-linejoin:round;stroke:rgb(92.156863%,92.156863%,92.156863%);stroke-opacity:1;stroke-miterlimit:10;" d="M 8.21875 78.488281 L 210.519531 78.488281 "/>
</g>
<g clip-path="url(#clip15)" clip-rule="nonzero">
<path style="fill:none;stroke-width:1.066978;stroke-linecap:butt;stroke-linejoin:round;stroke:rgb(92.156863%,92.156863%,92.156863%);stroke-opacity:1;stroke-miterlimit:10;" d="M 8.21875 46.980469 L 210.519531 46.980469 "/>
</g>
<g clip-path="url(#clip16)" clip-rule="nonzero">
<path style="fill:none;stroke-width:1.066978;stroke-linecap:butt;stroke-linejoin:round;stroke:rgb(92.156863%,92.156863%,92.156863%);stroke-opacity:1;stroke-miterlimit:10;" d="M 8.21875 15.472656 L 210.519531 15.472656 "/>
</g>
<g clip-path="url(#clip17)" clip-rule="nonzero">
<path style="fill:none;stroke-width:1.066978;stroke-linecap:butt;stroke-linejoin:round;stroke:rgb(92.156863%,92.156863%,92.156863%);stroke-opacity:1;stroke-miterlimit:10;" d="M 31.582031 207.78125 L 31.582031 5.480469 "/>
</g>
<g clip-path="url(#clip18)" clip-rule="nonzero">
<path style="fill:none;stroke-width:1.066978;stroke-linecap:butt;stroke-linejoin:round;stroke:rgb(92.156863%,92.156863%,92.156863%);stroke-opacity:1;stroke-miterlimit:10;" d="M 92.925781 207.78125 L 92.925781 5.480469 "/>
</g>
<g clip-path="url(#clip19)" clip-rule="nonzero">
<path style="fill:none;stroke-width:1.066978;stroke-linecap:butt;stroke-linejoin:round;stroke:rgb(92.156863%,92.156863%,92.156863%);stroke-opacity:1;stroke-miterlimit:10;" d="M 154.265625 207.78125 L 154.265625 5.480469 "/>
</g>
<g clip-path="url(#clip20)" clip-rule="nonzero">
<path style="fill:none;stroke-width:1.066978;stroke-linecap:butt;stroke-linejoin:round;stroke:rgb(60%,60%,60%);stroke-opacity:1;stroke-dasharray:4.267913,4.267913;stroke-miterlimit:10;" d="M 8.21875 109.996094 L 210.519531 109.996094 "/>
</g>
<path style="fill-rule:nonzero;fill:rgb(0%,0%,0%);fill-opacity:1;stroke-width:0.708661;stroke-linecap:round;stroke-linejoin:round;stroke:rgb(0%,0%,0%);stroke-opacity:1;stroke-miterlimit:10;" d="M 142.03125 141.738281 C 142.03125 144.347656 138.121094 144.347656 138.121094 141.738281 C 138.121094 139.132812 142.03125 139.132812 142.03125 141.738281 "/>
<path style="fill-rule:nonzero;fill:rgb(0%,0%,0%);fill-opacity:1;stroke-width:0.708661;stroke-linecap:round;stroke-linejoin:round;stroke:rgb(0%,0%,0%);stroke-opacity:1;stroke-miterlimit:10;" d="M 170.933594 79.800781 C 170.933594 82.40625 167.023438 82.40625 167.023438 79.800781 C 167.023438 77.195312 170.933594 77.195312 170.933594 79.800781 "/>
<path style="fill-rule:nonzero;fill:rgb(0%,0%,0%);fill-opacity:1;stroke-width:0.708661;stroke-linecap:round;stroke-linejoin:round;stroke:rgb(0%,0%,0%);stroke-opacity:1;stroke-miterlimit:10;" d="M 20.234375 111.671875 C 20.234375 114.277344 16.324219 114.277344 16.324219 111.671875 C 16.324219 109.0625 20.234375 109.0625 20.234375 111.671875 "/>
<path style="fill-rule:nonzero;fill:rgb(0%,0%,0%);fill-opacity:1;stroke-width:0.708661;stroke-linecap:round;stroke-linejoin:round;stroke:rgb(0%,0%,0%);stroke-opacity:1;stroke-miterlimit:10;" d="M 100.167969 111.46875 C 100.167969 114.074219 96.257812 114.074219 96.257812 111.46875 C 96.257812 108.859375 100.167969 108.859375 100.167969 111.46875 "/>
<path style="fill-rule:nonzero;fill:rgb(0%,0%,0%);fill-opacity:1;stroke-width:0.708661;stroke-linecap:round;stroke-linejoin:round;stroke:rgb(0%,0%,0%);stroke-opacity:1;stroke-miterlimit:10;" d="M 94.859375 55.644531 C 94.859375 58.25 90.949219 58.25 90.949219 55.644531 C 90.949219 53.039062 94.859375 53.039062 94.859375 55.644531 "/>
<path style="fill-rule:nonzero;fill:rgb(0%,0%,0%);fill-opacity:1;stroke-width:0.708661;stroke-linecap:round;stroke-linejoin:round;stroke:rgb(0%,0%,0%);stroke-opacity:1;stroke-miterlimit:10;" d="M 194.546875 137.328125 C 194.546875 139.933594 190.636719 139.933594 190.636719 137.328125 C 190.636719 134.722656 194.546875 134.722656 194.546875 137.328125 "/>
<path style="fill-rule:nonzero;fill:rgb(0%,0%,0%);fill-opacity:1;stroke-width:0.708661;stroke-linecap:round;stroke-linejoin:round;stroke:rgb(0%,0%,0%);stroke-opacity:1;stroke-miterlimit:10;" d="M 47.039062 125.988281 C 47.039062 128.59375 43.132812 128.59375 43.132812 125.988281 C 43.132812 123.382812 47.039062 123.382812 47.039062 125.988281 "/>
<path style="fill-rule:nonzero;fill:rgb(0%,0%,0%);fill-opacity:1;stroke-width:0.708661;stroke-linecap:round;stroke-linejoin:round;stroke:rgb(0%,0%,0%);stroke-opacity:1;stroke-miterlimit:10;" d="M 74.664062 138.597656 C 74.664062 141.203125 70.753906 141.203125 70.753906 138.597656 C 70.753906 135.992188 74.664062 135.992188 74.664062 138.597656 "/>
<path style="fill-rule:nonzero;fill:rgb(0%,0%,0%);fill-opacity:1;stroke-width:0.708661;stroke-linecap:round;stroke-linejoin:round;stroke:rgb(0%,0%,0%);stroke-opacity:1;stroke-miterlimit:10;" d="M 189.484375 103.394531 C 189.484375 106 185.574219 106 185.574219 103.394531 C 185.574219 100.789062 189.484375 100.789062 189.484375 103.394531 "/>
<path style="fill-rule:nonzero;fill:rgb(0%,0%,0%);fill-opacity:1;stroke-width:0.708661;stroke-linecap:round;stroke-linejoin:round;stroke:rgb(0%,0%,0%);stroke-opacity:1;stroke-miterlimit:10;" d="M 126.503906 95.683594 C 126.503906 98.289062 122.59375 98.289062 122.59375 95.683594 C 122.59375 93.078125 126.503906 93.078125 126.503906 95.683594 "/>
<path style="fill-rule:nonzero;fill:rgb(0%,0%,0%);fill-opacity:1;stroke-width:0.708661;stroke-linecap:round;stroke-linejoin:round;stroke:rgb(0%,0%,0%);stroke-opacity:1;stroke-miterlimit:10;" d="M 47.050781 89.066406 C 47.050781 91.671875 43.140625 91.671875 43.140625 89.066406 C 43.140625 86.460938 47.050781 86.460938 47.050781 89.066406 "/>
<path style="fill-rule:nonzero;fill:rgb(0%,0%,0%);fill-opacity:1;stroke-width:0.708661;stroke-linecap:round;stroke-linejoin:round;stroke:rgb(0%,0%,0%);stroke-opacity:1;stroke-miterlimit:10;" d="M 36.722656 153.175781 C 36.722656 155.785156 32.8125 155.785156 32.8125 153.175781 C 32.8125 150.570312 36.722656 150.570312 36.722656 153.175781 "/>
<path style="fill-rule:nonzero;fill:rgb(0%,0%,0%);fill-opacity:1;stroke-width:0.708661;stroke-linecap:round;stroke-linejoin:round;stroke:rgb(0%,0%,0%);stroke-opacity:1;stroke-miterlimit:10;" d="M 84.253906 126.050781 C 84.253906 128.660156 80.34375 128.660156 80.34375 126.050781 C 80.34375 123.445312 84.253906 123.445312 84.253906 126.050781 "/>
<path style="fill-rule:nonzero;fill:rgb(0%,0%,0%);fill-opacity:1;stroke-width:0.708661;stroke-linecap:round;stroke-linejoin:round;stroke:rgb(0%,0%,0%);stroke-opacity:1;stroke-miterlimit:10;" d="M 145.992188 119.90625 C 145.992188 122.511719 142.085938 122.511719 142.085938 119.90625 C 142.085938 117.300781 145.992188 117.300781 145.992188 119.90625 "/>
<path style="fill-rule:nonzero;fill:rgb(0%,0%,0%);fill-opacity:1;stroke-width:0.708661;stroke-linecap:round;stroke-linejoin:round;stroke:rgb(0%,0%,0%);stroke-opacity:1;stroke-miterlimit:10;" d="M 47.261719 60.964844 C 47.261719 63.570312 43.351562 63.570312 43.351562 60.964844 C 43.351562 58.355469 47.261719 58.355469 47.261719 60.964844 "/>
<path style="fill-rule:nonzero;fill:rgb(0%,0%,0%);fill-opacity:1;stroke-width:0.708661;stroke-linecap:round;stroke-linejoin:round;stroke:rgb(0%,0%,0%);stroke-opacity:1;stroke-miterlimit:10;" d="M 25.355469 106.257812 C 25.355469 108.863281 21.445312 108.863281 21.445312 106.257812 C 21.445312 103.652344 25.355469 103.652344 25.355469 106.257812 "/>
<path style="fill-rule:nonzero;fill:rgb(0%,0%,0%);fill-opacity:1;stroke-width:0.708661;stroke-linecap:round;stroke-linejoin:round;stroke:rgb(0%,0%,0%);stroke-opacity:1;stroke-miterlimit:10;" d="M 202.6875 130.992188 C 202.6875 133.597656 198.777344 133.597656 198.777344 130.992188 C 198.777344 128.382812 202.6875 128.382812 202.6875 130.992188 "/>
<path style="fill-rule:nonzero;fill:rgb(0%,0%,0%);fill-opacity:1;stroke-width:0.708661;stroke-linecap:round;stroke-linejoin:round;stroke:rgb(0%,0%,0%);stroke-opacity:1;stroke-miterlimit:10;" d="M 46.351562 91.710938 C 46.351562 94.316406 42.441406 94.316406 42.441406 91.710938 C 42.441406 89.105469 46.351562 89.105469 46.351562 91.710938 "/>
<path style="fill-rule:nonzero;fill:rgb(0%,0%,0%);fill-opacity:1;stroke-width:0.708661;stroke-linecap:round;stroke-linejoin:round;stroke:rgb(0%,0%,0%);stroke-opacity:1;stroke-miterlimit:10;" d="M 84.347656 152.304688 C 84.347656 154.910156 80.4375 154.910156 80.4375 152.304688 C 80.4375 149.695312 84.347656 149.695312 84.347656 152.304688 "/>
<path style="fill-rule:nonzero;fill:rgb(0%,0%,0%);fill-opacity:1;stroke-width:0.708661;stroke-linecap:round;stroke-linejoin:round;stroke:rgb(0%,0%,0%);stroke-opacity:1;stroke-miterlimit:10;" d="M 30.722656 159.464844 C 30.722656 162.074219 26.8125 162.074219 26.8125 159.464844 C 26.8125 156.859375 30.722656 156.859375 30.722656 159.464844 "/>
<path style="fill-rule:nonzero;fill:rgb(0%,0%,0%);fill-opacity:1;stroke-width:0.708661;stroke-linecap:round;stroke-linejoin:round;stroke:rgb(0%,0%,0%);stroke-opacity:1;stroke-miterlimit:10;" d="M 149.304688 98.324219 C 149.304688 100.929688 145.394531 100.929688 145.394531 98.324219 C 145.394531 95.714844 149.304688 95.714844 149.304688 98.324219 "/>
<path style="fill-rule:nonzero;fill:rgb(0%,0%,0%);fill-opacity:1;stroke-width:0.708661;stroke-linecap:round;stroke-linejoin:round;stroke:rgb(0%,0%,0%);stroke-opacity:1;stroke-miterlimit:10;" d="M 81.773438 84.238281 C 81.773438 86.847656 77.863281 86.847656 77.863281 84.238281 C 77.863281 81.632812 81.773438 81.632812 81.773438 84.238281 "/>
<path style="fill-rule:nonzero;fill:rgb(0%,0%,0%);fill-opacity:1;stroke-width:0.708661;stroke-linecap:round;stroke-linejoin:round;stroke:rgb(0%,0%,0%);stroke-opacity:1;stroke-miterlimit:10;" d="M 55.960938 133.984375 C 55.960938 136.589844 52.050781 136.589844 52.050781 133.984375 C 52.050781 131.375 55.960938 131.375 55.960938 133.984375 "/>
<path style="fill-rule:nonzero;fill:rgb(0%,0%,0%);fill-opacity:1;stroke-width:0.708661;stroke-linecap:round;stroke-linejoin:round;stroke:rgb(0%,0%,0%);stroke-opacity:1;stroke-miterlimit:10;" d="M 69.679688 141.421875 C 69.679688 144.027344 65.769531 144.027344 65.769531 141.421875 C 65.769531 138.8125 69.679688 138.8125 69.679688 141.421875 "/>
<path style="fill-rule:nonzero;fill:rgb(0%,0%,0%);fill-opacity:1;stroke-width:0.708661;stroke-linecap:round;stroke-linejoin:round;stroke:rgb(0%,0%,0%);stroke-opacity:1;stroke-miterlimit:10;" d="M 183.5625 35.710938 C 183.5625 38.316406 179.652344 38.316406 179.652344 35.710938 C 179.652344 33.105469 183.5625 33.105469 183.5625 35.710938 "/>
<path style="fill-rule:nonzero;fill:rgb(0%,0%,0%);fill-opacity:1;stroke-width:0.708661;stroke-linecap:round;stroke-linejoin:round;stroke:rgb(0%,0%,0%);stroke-opacity:1;stroke-miterlimit:10;" d="M 118.71875 144.671875 C 118.71875 147.277344 114.8125 147.277344 114.8125 144.671875 C 114.8125 142.066406 118.71875 142.066406 118.71875 144.671875 "/>
<path style="fill-rule:nonzero;fill:rgb(0%,0%,0%);fill-opacity:1;stroke-width:0.708661;stroke-linecap:round;stroke-linejoin:round;stroke:rgb(0%,0%,0%);stroke-opacity:1;stroke-miterlimit:10;" d="M 63.71875 79.507812 C 63.71875 82.113281 59.808594 82.113281 59.808594 79.507812 C 59.808594 76.902344 63.71875 76.902344 63.71875 79.507812 "/>
<path style="fill-rule:nonzero;fill:rgb(0%,0%,0%);fill-opacity:1;stroke-width:0.708661;stroke-linecap:round;stroke-linejoin:round;stroke:rgb(0%,0%,0%);stroke-opacity:1;stroke-miterlimit:10;" d="M 78.355469 29.242188 C 78.355469 31.847656 74.445312 31.847656 74.445312 29.242188 C 74.445312 26.636719 78.355469 26.636719 78.355469 29.242188 "/>
<path style="fill-rule:nonzero;fill:rgb(0%,0%,0%);fill-opacity:1;stroke-width:0.708661;stroke-linecap:round;stroke-linejoin:round;stroke:rgb(0%,0%,0%);stroke-opacity:1;stroke-miterlimit:10;" d="M 58.738281 183.386719 C 58.738281 185.992188 54.828125 185.992188 54.828125 183.386719 C 54.828125 180.78125 58.738281 180.78125 58.738281 183.386719 "/>
<path style="fill-rule:nonzero;fill:rgb(0%,0%,0%);fill-opacity:1;stroke-width:0.708661;stroke-linecap:round;stroke-linejoin:round;stroke:rgb(0%,0%,0%);stroke-opacity:1;stroke-miterlimit:10;" d="M 156.820312 123.4375 C 156.820312 126.042969 152.910156 126.042969 152.910156 123.4375 C 152.910156 120.828125 156.820312 120.828125 156.820312 123.4375 "/>
<path style="fill-rule:nonzero;fill:rgb(0%,0%,0%);fill-opacity:1;stroke-width:0.708661;stroke-linecap:round;stroke-linejoin:round;stroke:rgb(0%,0%,0%);stroke-opacity:1;stroke-miterlimit:10;" d="M 116.621094 140.871094 C 116.621094 143.476562 112.710938 143.476562 112.710938 140.871094 C 112.710938 138.261719 116.621094 138.261719 116.621094 140.871094 "/>
<path style="fill-rule:nonzero;fill:rgb(0%,0%,0%);fill-opacity:1;stroke-width:0.708661;stroke-linecap:round;stroke-linejoin:round;stroke:rgb(0%,0%,0%);stroke-opacity:1;stroke-miterlimit:10;" d="M 143.515625 129.945312 C 143.515625 132.550781 139.605469 132.550781 139.605469 129.945312 C 139.605469 127.335938 143.515625 127.335938 143.515625 129.945312 "/>
<path style="fill-rule:nonzero;fill:rgb(0%,0%,0%);fill-opacity:1;stroke-width:0.708661;stroke-linecap:round;stroke-linejoin:round;stroke:rgb(0%,0%,0%);stroke-opacity:1;stroke-miterlimit:10;" d="M 31.472656 96.496094 C 31.472656 99.101562 27.5625 99.101562 27.5625 96.496094 C 27.5625 93.890625 31.472656 93.890625 31.472656 96.496094 "/>
<path style="fill-rule:nonzero;fill:rgb(0%,0%,0%);fill-opacity:1;stroke-width:0.708661;stroke-linecap:round;stroke-linejoin:round;stroke:rgb(0%,0%,0%);stroke-opacity:1;stroke-miterlimit:10;" d="M 94.15625 155.421875 C 94.15625 158.027344 90.246094 158.027344 90.246094 155.421875 C 90.246094 152.8125 94.15625 152.8125 94.15625 155.421875 "/>
<path style="fill-rule:nonzero;fill:rgb(0%,0%,0%);fill-opacity:1;stroke-width:0.708661;stroke-linecap:round;stroke-linejoin:round;stroke:rgb(0%,0%,0%);stroke-opacity:1;stroke-miterlimit:10;" d="M 102.890625 126.582031 C 102.890625 129.1875 98.984375 129.1875 98.984375 126.582031 C 98.984375 123.976562 102.890625 123.976562 102.890625 126.582031 "/>
<path style="fill-rule:nonzero;fill:rgb(0%,0%,0%);fill-opacity:1;stroke-width:0.708661;stroke-linecap:round;stroke-linejoin:round;stroke:rgb(0%,0%,0%);stroke-opacity:1;stroke-miterlimit:10;" d="M 171.511719 198.585938 C 171.511719 201.191406 167.601562 201.191406 167.601562 198.585938 C 167.601562 195.980469 171.511719 195.980469 171.511719 198.585938 "/>
<path style="fill-rule:nonzero;fill:rgb(0%,0%,0%);fill-opacity:1;stroke-width:0.708661;stroke-linecap:round;stroke-linejoin:round;stroke:rgb(0%,0%,0%);stroke-opacity:1;stroke-miterlimit:10;" d="M 123.570312 170.855469 C 123.570312 173.460938 119.660156 173.460938 119.660156 170.855469 C 119.660156 168.25 123.570312 168.25 123.570312 170.855469 "/>
<path style="fill-rule:nonzero;fill:rgb(0%,0%,0%);fill-opacity:1;stroke-width:0.708661;stroke-linecap:round;stroke-linejoin:round;stroke:rgb(0%,0%,0%);stroke-opacity:1;stroke-miterlimit:10;" d="M 91.785156 153.109375 C 91.785156 155.71875 87.875 155.71875 87.875 153.109375 C 87.875 150.503906 91.785156 150.503906 91.785156 153.109375 "/>
<path style="fill-rule:nonzero;fill:rgb(0%,0%,0%);fill-opacity:1;stroke-width:0.708661;stroke-linecap:round;stroke-linejoin:round;stroke:rgb(0%,0%,0%);stroke-opacity:1;stroke-miterlimit:10;" d="M 19.371094 46.496094 C 19.371094 49.101562 15.460938 49.101562 15.460938 46.496094 C 15.460938 43.890625 19.371094 43.890625 19.371094 46.496094 "/>
<path style="fill-rule:nonzero;fill:rgb(0%,0%,0%);fill-opacity:1;stroke-width:0.708661;stroke-linecap:round;stroke-linejoin:round;stroke:rgb(0%,0%,0%);stroke-opacity:1;stroke-miterlimit:10;" d="M 89.210938 70.523438 C 89.210938 73.128906 85.300781 73.128906 85.300781 70.523438 C 85.300781 67.917969 89.210938 67.917969 89.210938 70.523438 "/>
<path style="fill-rule:nonzero;fill:rgb(0%,0%,0%);fill-opacity:1;stroke-width:0.708661;stroke-linecap:round;stroke-linejoin:round;stroke:rgb(0%,0%,0%);stroke-opacity:1;stroke-miterlimit:10;" d="M 163.035156 123.425781 C 163.035156 126.03125 159.125 126.03125 159.125 123.425781 C 159.125 120.820312 163.035156 120.820312 163.035156 123.425781 "/>
<path style="fill-rule:nonzero;fill:rgb(0%,0%,0%);fill-opacity:1;stroke-width:0.708661;stroke-linecap:round;stroke-linejoin:round;stroke:rgb(0%,0%,0%);stroke-opacity:1;stroke-miterlimit:10;" d="M 185.230469 29.375 C 185.230469 31.980469 181.324219 31.980469 181.324219 29.375 C 181.324219 26.769531 185.230469 26.769531 185.230469 29.375 "/>
<path style="fill-rule:nonzero;fill:rgb(0%,0%,0%);fill-opacity:1;stroke-width:0.708661;stroke-linecap:round;stroke-linejoin:round;stroke:rgb(0%,0%,0%);stroke-opacity:1;stroke-miterlimit:10;" d="M 122.3125 92.734375 C 122.3125 95.339844 118.402344 95.339844 118.402344 92.734375 C 118.402344 90.128906 122.3125 90.128906 122.3125 92.734375 "/>
<path style="fill-rule:nonzero;fill:rgb(0%,0%,0%);fill-opacity:1;stroke-width:0.708661;stroke-linecap:round;stroke-linejoin:round;stroke:rgb(0%,0%,0%);stroke-opacity:1;stroke-miterlimit:10;" d="M 203.28125 160.503906 C 203.28125 163.113281 199.371094 163.113281 199.371094 160.503906 C 199.371094 157.898438 203.28125 157.898438 203.28125 160.503906 "/>
<path style="fill-rule:nonzero;fill:rgb(0%,0%,0%);fill-opacity:1;stroke-width:0.708661;stroke-linecap:round;stroke-linejoin:round;stroke:rgb(0%,0%,0%);stroke-opacity:1;stroke-miterlimit:10;" d="M 59.394531 88.726562 C 59.394531 91.335938 55.488281 91.335938 55.488281 88.726562 C 55.488281 86.121094 59.394531 86.121094 59.394531 88.726562 "/>
<path style="fill-rule:nonzero;fill:rgb(0%,0%,0%);fill-opacity:1;stroke-width:0.708661;stroke-linecap:round;stroke-linejoin:round;stroke:rgb(0%,0%,0%);stroke-opacity:1;stroke-miterlimit:10;" d="M 77.816406 82.570312 C 77.816406 85.175781 73.90625 85.175781 73.90625 82.570312 C 73.90625 79.964844 77.816406 79.964844 77.816406 82.570312 "/>
<path style="fill-rule:nonzero;fill:rgb(0%,0%,0%);fill-opacity:1;stroke-width:0.708661;stroke-linecap:round;stroke-linejoin:round;stroke:rgb(0%,0%,0%);stroke-opacity:1;stroke-miterlimit:10;" d="M 62.074219 117.558594 C 62.074219 120.164062 58.164062 120.164062 58.164062 117.558594 C 58.164062 114.953125 62.074219 114.953125 62.074219 117.558594 "/>
<path style="fill-rule:nonzero;fill:rgb(0%,0%,0%);fill-opacity:1;stroke-width:0.708661;stroke-linecap:round;stroke-linejoin:round;stroke:rgb(0%,0%,0%);stroke-opacity:1;stroke-miterlimit:10;" d="M 195.792969 14.675781 C 195.792969 17.28125 191.882812 17.28125 191.882812 14.675781 C 191.882812 12.070312 195.792969 12.070312 195.792969 14.675781 "/>
<path style="fill-rule:nonzero;fill:rgb(0%,0%,0%);fill-opacity:1;stroke-width:0.708661;stroke-linecap:round;stroke-linejoin:round;stroke:rgb(0%,0%,0%);stroke-opacity:1;stroke-miterlimit:10;" d="M 19.808594 102.859375 C 19.808594 105.464844 15.898438 105.464844 15.898438 102.859375 C 15.898438 100.25 19.808594 100.25 19.808594 102.859375 "/>
<path style="fill-rule:nonzero;fill:rgb(0%,0%,0%);fill-opacity:1;stroke-width:0.708661;stroke-linecap:round;stroke-linejoin:round;stroke:rgb(0%,0%,0%);stroke-opacity:1;stroke-miterlimit:10;" d="M 63.675781 64.148438 C 63.675781 66.753906 59.765625 66.753906 59.765625 64.148438 C 59.765625 61.542969 63.675781 61.542969 63.675781 64.148438 "/>
<path style="fill-rule:nonzero;fill:rgb(0%,0%,0%);fill-opacity:1;stroke-width:0.708661;stroke-linecap:round;stroke-linejoin:round;stroke:rgb(0%,0%,0%);stroke-opacity:1;stroke-miterlimit:10;" d="M 108.757812 117.882812 C 108.757812 120.488281 104.847656 120.488281 104.847656 117.882812 C 104.847656 115.277344 108.757812 115.277344 108.757812 117.882812 "/>
<path style="fill-rule:nonzero;fill:rgb(0%,0%,0%);fill-opacity:1;stroke-width:0.708661;stroke-linecap:round;stroke-linejoin:round;stroke:rgb(0%,0%,0%);stroke-opacity:1;stroke-miterlimit:10;" d="M 202.605469 103.136719 C 202.605469 105.742188 198.695312 105.742188 198.695312 103.136719 C 198.695312 100.527344 202.605469 100.527344 202.605469 103.136719 "/>
<path style="fill-rule:nonzero;fill:rgb(0%,0%,0%);fill-opacity:1;stroke-width:0.708661;stroke-linecap:round;stroke-linejoin:round;stroke:rgb(0%,0%,0%);stroke-opacity:1;stroke-miterlimit:10;" d="M 114.6875 107.519531 C 114.6875 110.128906 110.777344 110.128906 110.777344 107.519531 C 110.777344 104.914062 114.6875 104.914062 114.6875 107.519531 "/>
<path style="fill-rule:nonzero;fill:rgb(0%,0%,0%);fill-opacity:1;stroke-width:0.708661;stroke-linecap:round;stroke-linejoin:round;stroke:rgb(0%,0%,0%);stroke-opacity:1;stroke-miterlimit:10;" d="M 128.222656 100.589844 C 128.222656 103.199219 124.3125 103.199219 124.3125 100.589844 C 124.3125 97.984375 128.222656 97.984375 128.222656 100.589844 "/>
</g>
</svg>
